<svg width="59" height="35" viewBox="0 0 59 35" fill="none" xmlns="http://www.w3.org/2000/svg">
<rect width="58.2748" height="34.1121" rx="8.52802" fill="white"/>
<g clip-path="url(#clip0_19_16)">
<path d="M11.035 23.7349L9.69531 8.70818H24.4168L23.0758 23.7327L17.0471 25.404L11.035 23.7349Z" fill="#1572B6"/>
<path d="M17.0562 24.1266L21.9277 22.7759L23.0738 9.93674H17.0562V24.1266Z" fill="#33A9DC"/>
<path d="M17.0562 15.3809H19.4949L19.6634 13.4937H17.0562V11.6507H21.6776L21.6333 12.1452L21.1803 17.2239H17.0562V15.3809Z" fill="white"/>
<path d="M17.0671 20.1673L17.059 20.1697L15.0065 19.6155L14.8753 18.1456H13.0255L13.2836 21.0394L17.0587 22.0872L17.0671 22.0848V20.1673Z" fill="#EBEBEB"/>
<path d="M19.3382 17.146L19.1162 19.614L17.0607 20.1689V22.0864L20.8389 21.0393L20.8666 20.7279L21.1872 17.146H19.3382Z" fill="white"/>
<path d="M17.0624 11.6507V13.4937H12.6108L12.5739 13.0796L12.4899 12.1452L12.4458 11.6507H17.0624ZM17.0562 15.3812V17.2242H15.0296L14.9926 16.8101L14.9086 15.8757L14.8646 15.3812H17.0562Z" fill="#EBEBEB"/>
</g>
<path d="M35.2316 16.1732H34.1292C34.0868 15.9377 34.0079 15.7304 33.8925 15.5514C33.7771 15.3724 33.6358 15.2205 33.4685 15.0956C33.3013 14.9708 33.114 14.8766 32.9068 14.813C32.7018 14.7494 32.484 14.7176 32.2531 14.7176C31.8362 14.7176 31.4629 14.8224 31.1331 15.032C30.8057 15.2417 30.5466 15.549 30.3558 15.9542C30.1674 16.3593 30.0732 16.8539 30.0732 17.4381C30.0732 18.027 30.1674 18.5239 30.3558 18.9291C30.5466 19.3342 30.8069 19.6404 31.1367 19.8477C31.4664 20.055 31.8374 20.1586 32.2496 20.1586C32.4781 20.1586 32.6948 20.128 32.8997 20.0668C33.107 20.0032 33.2942 19.9101 33.4615 19.7876C33.6287 19.6652 33.77 19.5156 33.8854 19.3389C34.0032 19.1599 34.0845 18.955 34.1292 18.7242L35.2316 18.7277C35.1727 19.0834 35.0585 19.4108 34.8889 19.7099C34.7216 20.0067 34.5061 20.2634 34.2423 20.4801C33.9808 20.6945 33.6817 20.8605 33.3449 20.9783C33.008 21.0961 32.6406 21.155 32.2425 21.155C31.616 21.155 31.0577 21.0066 30.5678 20.7098C30.0779 20.4107 29.6916 19.9831 29.4089 19.4273C29.1286 18.8714 28.9885 18.2083 28.9885 17.4381C28.9885 16.6655 29.1298 16.0025 29.4125 15.4489C29.6951 14.893 30.0814 14.4667 30.5714 14.1699C31.0613 13.8708 31.6183 13.7212 32.2425 13.7212C32.6265 13.7212 32.9845 13.7766 33.3166 13.8873C33.6511 13.9956 33.9514 14.1558 34.2176 14.3678C34.4837 14.5774 34.704 14.8342 34.8783 15.138C35.0526 15.4395 35.1703 15.7846 35.2316 16.1732ZM40.6835 15.721C40.6458 15.3865 40.4903 15.1274 40.2171 14.9437C39.9439 14.7576 39.6 14.6646 39.1854 14.6646C38.8886 14.6646 38.6319 14.7117 38.4152 14.8059C38.1985 14.8978 38.0301 15.0249 37.91 15.1875C37.7922 15.3476 37.7333 15.5302 37.7333 15.7351C37.7333 15.9071 37.7733 16.0555 37.8534 16.1803C37.9359 16.3051 38.043 16.4099 38.1749 16.4947C38.3092 16.5772 38.4529 16.6467 38.606 16.7032C38.7591 16.7574 38.9063 16.8021 39.0476 16.8375L39.7543 17.0212C39.9851 17.0777 40.2218 17.1543 40.4644 17.2508C40.707 17.3474 40.932 17.4746 41.1393 17.6324C41.3465 17.7902 41.5138 17.9857 41.641 18.2189C41.7705 18.4521 41.8353 18.7312 41.8353 19.0563C41.8353 19.4661 41.7293 19.83 41.5173 20.148C41.3077 20.466 41.0026 20.7169 40.6022 20.9006C40.2042 21.0843 39.7225 21.1762 39.1572 21.1762C38.6154 21.1762 38.1467 21.0902 37.751 20.9182C37.3553 20.7463 37.0455 20.5025 36.8217 20.1869C36.598 19.8689 36.4743 19.492 36.4508 19.0563H37.546C37.5672 19.3177 37.652 19.5356 37.8004 19.7099C37.9512 19.8819 38.1431 20.0102 38.3763 20.095C38.6119 20.1775 38.8698 20.2187 39.1501 20.2187C39.4587 20.2187 39.7331 20.1704 39.9733 20.0738C40.2159 19.9749 40.4067 19.8383 40.5457 19.664C40.6847 19.4873 40.7541 19.2812 40.7541 19.0457C40.7541 18.8313 40.6929 18.6559 40.5704 18.5192C40.4503 18.3826 40.2866 18.2696 40.0793 18.1801C39.8744 18.0905 39.6424 18.0116 39.3833 17.9433L38.5283 17.7101C37.9488 17.5523 37.4895 17.3203 37.1503 17.0141C36.8135 16.7079 36.6451 16.3028 36.6451 15.7987C36.6451 15.3818 36.7581 15.0179 36.9843 14.707C37.2104 14.396 37.5166 14.1546 37.9029 13.9827C38.2892 13.8084 38.7249 13.7212 39.2102 13.7212C39.7001 13.7212 40.1323 13.8072 40.5068 13.9791C40.8837 14.1511 41.1805 14.3878 41.3972 14.6893C41.6139 14.9884 41.7269 15.3323 41.7364 15.721H40.6835ZM47.2854 15.721C47.2477 15.3865 47.0923 15.1274 46.819 14.9437C46.5458 14.7576 46.2019 14.6646 45.7874 14.6646C45.4906 14.6646 45.2338 14.7117 45.0171 14.8059C44.8004 14.8978 44.632 15.0249 44.5119 15.1875C44.3941 15.3476 44.3352 15.5302 44.3352 15.7351C44.3352 15.9071 44.3753 16.0555 44.4554 16.1803C44.5378 16.3051 44.645 16.4099 44.7769 16.4947C44.9111 16.5772 45.0548 16.6467 45.2079 16.7032C45.361 16.7574 45.5082 16.8021 45.6496 16.8375L46.3562 17.0212C46.587 17.0777 46.8238 17.1543 47.0664 17.2508C47.309 17.3474 47.5339 17.4746 47.7412 17.6324C47.9485 17.7902 48.1157 17.9857 48.2429 18.2189C48.3725 18.4521 48.4372 18.7312 48.4372 19.0563C48.4372 19.4661 48.3312 19.83 48.1192 20.148C47.9096 20.466 47.6046 20.7169 47.2042 20.9006C46.8061 21.0843 46.3244 21.1762 45.7591 21.1762C45.2174 21.1762 44.7486 21.0902 44.3529 20.9182C43.9572 20.7463 43.6475 20.5025 43.4237 20.1869C43.1999 19.8689 43.0763 19.492 43.0527 19.0563H44.148C44.1692 19.3177 44.254 19.5356 44.4024 19.7099C44.5531 19.8819 44.7451 20.0102 44.9783 20.095C45.2138 20.1775 45.4717 20.2187 45.752 20.2187C46.0606 20.2187 46.335 20.1704 46.5753 20.0738C46.8179 19.9749 47.0087 19.8383 47.1476 19.664C47.2866 19.4873 47.3561 19.2812 47.3561 19.0457C47.3561 18.8313 47.2948 18.6559 47.1724 18.5192C47.0522 18.3826 46.8885 18.2696 46.6813 18.1801C46.4763 18.0905 46.2443 18.0116 45.9852 17.9433L45.1302 17.7101C44.5508 17.5523 44.0915 17.3203 43.7523 17.0141C43.4154 16.7079 43.247 16.3028 43.247 15.7987C43.247 15.3818 43.3601 15.0179 43.5862 14.707C43.8123 14.396 44.1185 14.1546 44.5048 13.9827C44.8911 13.8084 45.3269 13.7212 45.8121 13.7212C46.302 13.7212 46.7343 13.8072 47.1088 13.9791C47.4856 14.1511 47.7824 14.3878 47.9991 14.6893C48.2158 14.9884 48.3289 15.3323 48.3383 15.721H47.2854Z" fill="black"/>
<defs>
<clipPath id="clip0_19_16">
<rect width="17.056" height="17.056" fill="white" transform="translate(8.52802 8.52802)"/>
</clipPath>
</defs>
</svg>
