<svg width="41" height="24" viewBox="0 0 41 24" fill="none" xmlns="http://www.w3.org/2000/svg">
<rect width="41" height="24" rx="6" fill="white"/>
<g clip-path="url(#clip0_19_16)">
<path d="M7.76382 16.699L6.82126 6.12675H17.1788L16.2353 16.6974L11.9937 17.8733L7.76382 16.699Z" fill="#1572B6"/>
<path d="M12.0001 16.9746L15.4275 16.0243L16.2338 6.99113H12.0001V16.9746Z" fill="#33A9DC"/>
<path d="M12.0001 10.8215H13.7159L13.8344 9.49369H12.0001V8.19703H15.2515L15.2204 8.54494L14.9017 12.1181H12.0001V10.8215Z" fill="white"/>
<path d="M12.0078 14.189L12.0021 14.1907L10.558 13.8008L10.4657 12.7666H9.16425L9.34584 14.8026L12.0019 15.5397L12.0078 15.538V14.189Z" fill="#EBEBEB"/>
<path d="M13.6057 12.0633L13.4495 13.7997L12.0033 14.1901V15.5392L14.6615 14.8025L14.681 14.5834L14.9065 12.0633H13.6057Z" fill="white"/>
<path d="M12.0045 8.19703V9.49369H8.8725L8.84653 9.20231L8.78747 8.54494L8.75644 8.19703H12.0045ZM12.0001 10.8217V12.1183H10.5743L10.5483 11.8269L10.4891 11.1696L10.4582 10.8217H12.0001Z" fill="#EBEBEB"/>
</g>
<path d="M24.7876 11.5646H24.0121C23.9822 11.3989 23.9267 11.2531 23.8455 11.1271C23.7643 11.0012 23.6649 10.8943 23.5472 10.8065C23.4296 10.7186 23.2978 10.6523 23.152 10.6076C23.0078 10.5629 22.8545 10.5405 22.6921 10.5405C22.3988 10.5405 22.1361 10.6142 21.9041 10.7617C21.6738 10.9092 21.4915 11.1255 21.3572 11.4105C21.2247 11.6955 21.1584 12.0436 21.1584 12.4545C21.1584 12.8688 21.2247 13.2185 21.3572 13.5036C21.4915 13.7886 21.6746 14.004 21.9066 14.1499C22.1386 14.2957 22.3996 14.3686 22.6896 14.3686C22.8504 14.3686 23.0028 14.3471 23.147 14.304C23.2929 14.2592 23.4246 14.1938 23.5423 14.1076C23.6599 14.0214 23.7594 13.9162 23.8406 13.7919C23.9234 13.666 23.9806 13.5218 24.0121 13.3594L24.7876 13.3619C24.7462 13.6121 24.6658 13.8424 24.5465 14.0529C24.4289 14.2617 24.2772 14.4424 24.0916 14.5948C23.9077 14.7456 23.6972 14.8625 23.4602 14.9453C23.2232 15.0282 22.9647 15.0696 22.6847 15.0696C22.2438 15.0696 21.8511 14.9652 21.5064 14.7564C21.1617 14.5459 20.8899 14.2451 20.6911 13.854C20.4938 13.4629 20.3952 12.9964 20.3952 12.4545C20.3952 11.911 20.4947 11.4445 20.6935 11.055C20.8924 10.6639 21.1642 10.364 21.5089 10.1552C21.8536 9.94472 22.2455 9.83949 22.6847 9.83949C22.9548 9.83949 23.2067 9.87843 23.4403 9.95632C23.6757 10.0326 23.887 10.1452 24.0742 10.2944C24.2615 10.4419 24.4164 10.6225 24.5391 10.8363C24.6617 11.0484 24.7446 11.2912 24.7876 11.5646ZM28.6234 11.2464C28.5969 11.0111 28.4875 10.8288 28.2953 10.6996C28.103 10.5687 27.8611 10.5032 27.5694 10.5032C27.3606 10.5032 27.18 10.5363 27.0275 10.6026C26.8751 10.6673 26.7566 10.7567 26.672 10.8711C26.5892 10.9838 26.5478 11.1122 26.5478 11.2564C26.5478 11.3774 26.5759 11.4818 26.6323 11.5696C26.6903 11.6574 26.7657 11.7312 26.8585 11.7908C26.9529 11.8488 27.054 11.8977 27.1618 11.9375C27.2695 11.9756 27.373 12.0071 27.4725 12.032L27.9696 12.1612C28.132 12.201 28.2986 12.2549 28.4693 12.3228C28.64 12.3907 28.7982 12.4802 28.9441 12.5913C29.0899 12.7023 29.2076 12.8398 29.297 13.0039C29.3882 13.168 29.4338 13.3643 29.4338 13.593C29.4338 13.8814 29.3592 14.1374 29.21 14.3612C29.0626 14.5849 28.8479 14.7614 28.5662 14.8906C28.2862 15.0199 27.9473 15.0845 27.5495 15.0845C27.1684 15.0845 26.8386 15.024 26.5602 14.9031C26.2818 14.7821 26.0639 14.6106 25.9064 14.3885C25.749 14.1648 25.662 13.8996 25.6454 13.593H26.416C26.4309 13.777 26.4906 13.9303 26.595 14.0529C26.701 14.1739 26.8361 14.2642 27.0002 14.3239C27.1659 14.3819 27.3474 14.4109 27.5446 14.4109C27.7617 14.4109 27.9547 14.3769 28.1238 14.3089C28.2944 14.2393 28.4287 14.1432 28.5265 14.0206C28.6242 13.8963 28.6731 13.7513 28.6731 13.5856C28.6731 13.4348 28.63 13.3113 28.5439 13.2152C28.4593 13.1191 28.3442 13.0395 28.1983 12.9766C28.0542 12.9136 27.8909 12.8581 27.7086 12.81L27.1071 12.646C26.6994 12.5349 26.3762 12.3717 26.1376 12.1562C25.9006 11.9408 25.7821 11.6558 25.7821 11.3011C25.7821 11.0078 25.8617 10.7518 26.0208 10.533C26.1799 10.3143 26.3953 10.1444 26.6671 10.0234C26.9389 9.9008 27.2454 9.83949 27.5868 9.83949C27.9315 9.83949 28.2356 9.89998 28.4991 10.021C28.7643 10.1419 28.9731 10.3085 29.1255 10.5206C29.278 10.7311 29.3575 10.973 29.3642 11.2464H28.6234ZM33.2683 11.2464C33.2418 11.0111 33.1324 10.8288 32.9402 10.6996C32.7479 10.5687 32.506 10.5032 32.2143 10.5032C32.0055 10.5032 31.8249 10.5363 31.6724 10.6026C31.5199 10.6673 31.4014 10.7567 31.3169 10.8711C31.2341 10.9838 31.1926 11.1122 31.1926 11.2564C31.1926 11.3774 31.2208 11.4818 31.2772 11.5696C31.3352 11.6574 31.4106 11.7312 31.5034 11.7908C31.5978 11.8488 31.6989 11.8977 31.8066 11.9375C31.9144 11.9756 32.0179 12.0071 32.1174 12.032L32.6145 12.1612C32.7769 12.201 32.9435 12.2549 33.1142 12.3228C33.2849 12.3907 33.4431 12.4802 33.5889 12.5913C33.7348 12.7023 33.8524 12.8398 33.9419 13.0039C34.0331 13.168 34.0787 13.3643 34.0787 13.593C34.0787 13.8814 34.0041 14.1374 33.8549 14.3612C33.7074 14.5849 33.4928 14.7614 33.2111 14.8906C32.931 15.0199 32.5921 15.0845 32.1944 15.0845C31.8133 15.0845 31.4835 15.024 31.2051 14.9031C30.9267 14.7821 30.7087 14.6106 30.5513 14.3885C30.3939 14.1648 30.3069 13.8996 30.2903 13.593H31.0609C31.0758 13.777 31.1355 13.9303 31.2399 14.0529C31.3459 14.1739 31.481 14.2642 31.6451 14.3239C31.8108 14.3819 31.9922 14.4109 32.1894 14.4109C32.4065 14.4109 32.5996 14.3769 32.7686 14.3089C32.9393 14.2393 33.0736 14.1432 33.1713 14.0206C33.2691 13.8963 33.318 13.7513 33.318 13.5856C33.318 13.4348 33.2749 13.3113 33.1887 13.2152C33.1042 13.1191 32.989 13.0395 32.8432 12.9766C32.699 12.9136 32.5358 12.8581 32.3535 12.81L31.7519 12.646C31.3443 12.5349 31.0211 12.3717 30.7825 12.1562C30.5455 11.9408 30.427 11.6558 30.427 11.3011C30.427 11.0078 30.5066 10.7518 30.6657 10.533C30.8247 10.3143 31.0402 10.1444 31.312 10.0234C31.5837 9.9008 31.8903 9.83949 32.2317 9.83949C32.5764 9.83949 32.8805 9.89998 33.144 10.021C33.4091 10.1419 33.6179 10.3085 33.7704 10.5206C33.9229 10.7311 34.0024 10.973 34.009 11.2464H33.2683Z" fill="black"/>
<defs>
<clipPath id="clip0_19_16">
<rect width="12" height="12" fill="white" transform="translate(6 6)"/>
</clipPath>
</defs>
</svg>
