<svg width="53" height="35" viewBox="0 0 53 35" fill="none" xmlns="http://www.w3.org/2000/svg">
<rect width="52.5895" height="34.1121" rx="8.52802" fill="white"/>
<g clip-path="url(#clip0_19_60)">
<path d="M25.1493 16.3069L17.805 8.96294C17.3824 8.54 16.6964 8.54 16.2731 8.96294L14.7481 10.4881L16.6827 12.4227C17.1324 12.2709 17.6478 12.3727 18.0061 12.731C18.3663 13.0916 18.4673 13.6114 18.3118 14.0626L20.1762 15.9271C20.6273 15.7716 21.1479 15.8721 21.5079 16.2329C22.0116 16.7362 22.0116 17.5521 21.5079 18.0557C21.3882 18.1754 21.2461 18.2704 21.0897 18.3352C20.9333 18.4001 20.7656 18.4334 20.5963 18.4334C20.427 18.4334 20.2593 18.4001 20.1029 18.3352C19.9465 18.2704 19.8044 18.1754 19.6847 18.0557C19.5048 17.8757 19.3822 17.6466 19.3323 17.3971C19.2824 17.1477 19.3074 16.889 19.4042 16.6537L17.6655 14.9151L17.6653 19.491C17.7914 19.5532 17.9066 19.6354 18.0062 19.7346C18.5097 20.2379 18.5097 21.0535 18.0062 21.5579C17.5027 22.0612 16.6865 22.0612 16.1835 21.5579C15.6801 21.0537 15.6801 20.238 16.1835 19.7346C16.3041 19.6138 16.4476 19.5182 16.6055 19.4535V14.8351C16.4475 14.7705 16.304 14.6749 16.1835 14.5539C15.8021 14.1728 15.7103 13.6131 15.906 13.1446L13.9987 11.2374L8.96294 16.2729C8.75978 16.4761 8.64565 16.7517 8.64565 17.0391C8.64565 17.3265 8.75978 17.6021 8.96294 17.8053L16.3073 25.1493C16.7302 25.5722 17.4159 25.5722 17.8395 25.1493L25.1494 17.8394C25.3525 17.6361 25.4666 17.3605 25.4666 17.0731C25.4666 16.7858 25.3524 16.5101 25.1493 16.3069Z" fill="#F34F29"/>
</g>
<path d="M34.1187 16.1061C34.0503 15.8918 33.9585 15.6998 33.8431 15.5302C33.73 15.3582 33.5946 15.2122 33.4368 15.0921C33.2789 14.9696 33.0987 14.8766 32.8962 14.813C32.696 14.7494 32.4757 14.7176 32.2355 14.7176C31.828 14.7176 31.4605 14.8224 31.1331 15.032C30.8057 15.2417 30.5466 15.549 30.3558 15.9542C30.1674 16.357 30.0732 16.8504 30.0732 17.4346C30.0732 18.0211 30.1686 18.5169 30.3594 18.922C30.5502 19.3272 30.8116 19.6345 31.1437 19.8442C31.4759 20.0538 31.8539 20.1586 32.2779 20.1586C32.6712 20.1586 33.014 20.0785 33.306 19.9184C33.6005 19.7582 33.8278 19.5321 33.9879 19.24C34.1505 18.9456 34.2317 18.5993 34.2317 18.2013L34.5144 18.2543H32.4439V17.3533H35.2881V18.1765C35.2881 18.7842 35.1586 19.3118 34.8995 19.7594C34.6427 20.2046 34.2871 20.5484 33.8325 20.7911C33.3802 21.0337 32.862 21.155 32.2779 21.155C31.6231 21.155 31.0483 21.0042 30.5537 20.7027C30.0614 20.4012 29.6775 19.9737 29.4019 19.4202C29.1263 18.8643 28.9885 18.2048 28.9885 17.4416C28.9885 16.8645 29.0686 16.3464 29.2288 15.887C29.3889 15.4277 29.6139 15.0379 29.9036 14.7176C30.1957 14.3949 30.5384 14.1487 30.9317 13.9791C31.3275 13.8072 31.7597 13.7212 32.2284 13.7212C32.6194 13.7212 32.9833 13.7789 33.3202 13.8943C33.6593 14.0098 33.9608 14.1735 34.2246 14.3855C34.4908 14.5974 34.711 14.8495 34.8853 15.1415C35.0596 15.4313 35.1774 15.7528 35.2387 16.1061H34.1187ZM37.1283 21.056V15.6291H38.1847V21.056H37.1283ZM37.6618 14.7918C37.478 14.7918 37.3202 14.7305 37.1883 14.608C37.0588 14.4832 36.994 14.3348 36.994 14.1629C36.994 13.9886 37.0588 13.8402 37.1883 13.7177C37.3202 13.5928 37.478 13.5304 37.6618 13.5304C37.8455 13.5304 38.0021 13.5928 38.1317 13.7177C38.2636 13.8402 38.3295 13.9886 38.3295 14.1629C38.3295 14.3348 38.2636 14.4832 38.1317 14.608C38.0021 14.7305 37.8455 14.7918 37.6618 14.7918ZM42.3381 15.6291V16.4771H39.3738V15.6291H42.3381ZM40.1688 14.3289H41.2252V19.4626C41.2252 19.6675 41.2558 19.8218 41.3171 19.9254C41.3783 20.0267 41.4572 20.0962 41.5538 20.1339C41.6527 20.1692 41.7599 20.1869 41.8753 20.1869C41.9601 20.1869 42.0343 20.181 42.0979 20.1692C42.1615 20.1574 42.2109 20.148 42.2463 20.141L42.4371 21.0136C42.3758 21.0372 42.2887 21.0608 42.1756 21.0843C42.0626 21.1102 41.9212 21.1244 41.7516 21.1267C41.4737 21.1314 41.2146 21.082 40.9743 20.9783C40.7341 20.8747 40.5398 20.7145 40.3914 20.4978C40.243 20.2811 40.1688 20.0091 40.1688 19.6816V14.3289Z" fill="black"/>
<defs>
<clipPath id="clip0_19_60">
<rect width="17.056" height="17.056" fill="white" transform="translate(8.52802 8.52802)"/>
</clipPath>
</defs>
</svg>
