<svg width="37" height="24" viewBox="0 0 37 24" fill="none" xmlns="http://www.w3.org/2000/svg">
<rect width="37" height="24" rx="6" fill="white"/>
<g clip-path="url(#clip0_19_60)">
<path d="M17.6941 11.4729L12.527 6.306C12.2296 6.00843 11.747 6.00843 11.4491 6.306L10.3763 7.37906L11.7373 8.74012C12.0537 8.63334 12.4163 8.70497 12.6684 8.95706C12.9218 9.21075 12.9929 9.57647 12.8835 9.8939L14.1953 11.2057C14.5126 11.0963 14.8789 11.167 15.1322 11.4209C15.4866 11.775 15.4866 12.349 15.1322 12.7033C15.048 12.7876 14.948 12.8544 14.8379 12.9C14.7279 12.9456 14.6099 12.9691 14.4908 12.9691C14.3717 12.9691 14.2537 12.9456 14.1437 12.9C14.0336 12.8544 13.9336 12.7876 13.8494 12.7033C13.7229 12.5767 13.6366 12.4155 13.6015 12.24C13.5664 12.0645 13.584 11.8825 13.6521 11.717L12.4288 10.4937L12.4286 13.7132C12.5174 13.7569 12.5984 13.8148 12.6685 13.8846C13.0227 14.2387 13.0227 14.8125 12.6685 15.1673C12.3143 15.5214 11.74 15.5214 11.3861 15.1673C11.0319 14.8126 11.0319 14.2387 11.3861 13.8846C11.471 13.7996 11.5719 13.7323 11.683 13.6867V10.4375C11.5718 10.392 11.4709 10.3247 11.3861 10.2396C11.1178 9.97143 11.0532 9.57768 11.1908 9.24806L9.849 7.90622L6.306 11.449C6.16306 11.592 6.08276 11.7859 6.08276 11.9881C6.08276 12.1903 6.16306 12.3842 6.306 12.5272L11.4732 17.6941C11.7708 17.9917 12.2532 17.9917 12.5513 17.6941L17.6942 12.5512C17.8371 12.4081 17.9174 12.2142 17.9173 12.012C17.9173 11.8098 17.837 11.6159 17.6941 11.4729Z" fill="#F34F29"/>
</g>
<path d="M24.0046 11.5174C23.9566 11.3666 23.8919 11.2315 23.8107 11.1122C23.7312 10.9912 23.6359 10.8885 23.5249 10.804C23.4138 10.7178 23.2871 10.6523 23.1445 10.6076C23.0037 10.5629 22.8487 10.5405 22.6797 10.5405C22.393 10.5405 22.1345 10.6142 21.9041 10.7617C21.6738 10.9092 21.4915 11.1255 21.3572 11.4105C21.2247 11.6939 21.1584 12.0411 21.1584 12.4521C21.1584 12.8647 21.2255 13.2135 21.3597 13.4986C21.494 13.7836 21.6779 13.9999 21.9116 14.1474C22.1452 14.2949 22.4112 14.3686 22.7095 14.3686C22.9863 14.3686 23.2274 14.3123 23.4329 14.1996C23.64 14.0869 23.8 13.9278 23.9126 13.7223C24.027 13.5152 24.0842 13.2715 24.0842 12.9915L24.283 13.0288H22.8263V12.3949H24.8274V12.9741C24.8274 13.4016 24.7363 13.7728 24.554 14.0877C24.3733 14.4009 24.1231 14.6429 23.8033 14.8136C23.4851 14.9843 23.1205 15.0696 22.7095 15.0696C22.2488 15.0696 21.8445 14.9635 21.4964 14.7514C21.1501 14.5393 20.88 14.2385 20.6861 13.8491C20.4922 13.458 20.3952 12.994 20.3952 12.457C20.3952 12.051 20.4516 11.6864 20.5643 11.3633C20.677 11.0401 20.8352 10.7659 21.0391 10.5405C21.2446 10.3134 21.4857 10.1403 21.7624 10.021C22.0408 9.89998 22.3449 9.83949 22.6747 9.83949C22.9498 9.83949 23.2058 9.88009 23.4428 9.96129C23.6815 10.0425 23.8936 10.1577 24.0792 10.3068C24.2665 10.456 24.4214 10.6333 24.544 10.8388C24.6667 11.0426 24.7495 11.2688 24.7926 11.5174H24.0046ZM26.1221 15V11.1818H26.8653V15H26.1221ZM26.4974 10.5927C26.3682 10.5927 26.2571 10.5496 26.1643 10.4634C26.0732 10.3756 26.0276 10.2712 26.0276 10.1502C26.0276 10.0276 26.0732 9.92318 26.1643 9.837C26.2571 9.74917 26.3682 9.70526 26.4974 9.70526C26.6267 9.70526 26.7369 9.74917 26.828 9.837C26.9208 9.92318 26.9672 10.0276 26.9672 10.1502C26.9672 10.2712 26.9208 10.3756 26.828 10.4634C26.7369 10.5496 26.6267 10.5927 26.4974 10.5927ZM29.7875 11.1818V11.7784H27.702V11.1818H29.7875ZM28.2613 10.267H29.0045V13.8789C29.0045 14.0231 29.0261 14.1316 29.0692 14.2045C29.1122 14.2758 29.1678 14.3247 29.2357 14.3512C29.3053 14.3761 29.3807 14.3885 29.4619 14.3885C29.5216 14.3885 29.5738 14.3844 29.6185 14.3761C29.6633 14.3678 29.6981 14.3612 29.7229 14.3562L29.8571 14.9702C29.8141 14.9867 29.7527 15.0033 29.6732 15.0199C29.5937 15.0381 29.4942 15.0481 29.3749 15.0497C29.1794 15.053 28.9971 15.0182 28.828 14.9453C28.659 14.8724 28.5223 14.7597 28.4179 14.6072C28.3135 14.4548 28.2613 14.2634 28.2613 14.033V10.267Z" fill="black"/>
<defs>
<clipPath id="clip0_19_60">
<rect width="12" height="12" fill="white" transform="translate(6 6)"/>
</clipPath>
</defs>
</svg>
