<svg width="47" height="24" viewBox="0 0 47 24" fill="none" xmlns="http://www.w3.org/2000/svg">
<rect width="47" height="24" rx="6" fill="white"/>
<g clip-path="url(#clip0_19_9)">
<path d="M7.78471 16.6759L6.84674 6.15572H17.1532L16.2142 16.6743L11.9937 17.8443L7.78471 16.6759Z" fill="#E44D26"/>
<path d="M12 16.95L15.4104 16.0044L16.2128 7.01587H12V16.95Z" fill="#F16529"/>
<path d="M12 10.9177H10.2926L10.1747 9.59635H12V8.30616H8.76459L8.79552 8.65228L9.11259 12.2079H12V10.9177ZM12 14.2686L11.9943 14.2702L10.5574 13.882L10.4656 12.8531H9.17024L9.35099 14.879L11.9941 15.6127L12 15.6111V14.2686Z" fill="#EBEBEB"/>
<path d="M11.9955 10.9177V12.2079H13.5843L13.4346 13.8813L11.9955 14.2697V15.6121L14.6407 14.879L14.6601 14.661L14.9633 11.2642L14.9947 10.9177H14.647H11.9955ZM11.9955 8.30616V9.59635H15.1121L15.138 9.30647L15.1969 8.65228L15.2277 8.30616H11.9955Z" fill="white"/>
</g>
<path d="M20.5593 15V9.90909H21.3274V12.1214H23.8654V9.90909H24.636V15H23.8654V12.7802H21.3274V15H20.5593ZM25.6436 10.5703V9.90909H29.5835V10.5703H27.9951V15H27.2295V10.5703H25.6436ZM30.5942 9.90909H31.5264L33.1471 13.8665H33.2068L34.8275 9.90909H35.7597V15H35.0288V11.3161H34.9816L33.4802 14.9925H32.8737L31.3722 11.3136H31.325V15H30.5942V9.90909ZM37.0164 15V9.90909H37.7845V14.3388H40.0913V15H37.0164Z" fill="black"/>
<defs>
<clipPath id="clip0_19_9">
<rect width="12" height="12" fill="white" transform="translate(6 6)"/>
</clipPath>
</defs>
</svg>
