<svg width="67" height="35" viewBox="0 0 67 35" fill="none" xmlns="http://www.w3.org/2000/svg">
<rect width="66.8028" height="34.1121" rx="8.52802" fill="white"/>
<g clip-path="url(#clip0_19_9)">
<path d="M11.0647 23.702L9.73151 8.74934H24.3805L23.0459 23.6998L17.0471 25.3627L11.0647 23.702Z" fill="#E44D26"/>
<path d="M17.056 24.0917L21.9034 22.7477L23.0439 9.97191H17.056V24.0917Z" fill="#F16529"/>
<path d="M17.056 15.5177H14.6292L14.4616 13.6396H17.056V11.8059H12.4574L12.5014 12.2978L12.952 17.3516H17.056V15.5177ZM17.056 20.2804L17.0479 20.2827L15.0055 19.731L14.8751 18.2686H13.034L13.2909 21.148L17.0476 22.1908L17.056 22.1886V20.2804Z" fill="#EBEBEB"/>
<path d="M17.0497 15.5177V17.3516H19.3078L19.095 19.73L17.0497 20.282V22.19L20.8093 21.148L20.8369 20.8382L21.2678 16.0102L21.3125 15.5177H20.8184H17.0497ZM17.0497 11.8059V13.6396H21.4794L21.5162 13.2276L21.5999 12.2978L21.6437 11.8059H17.0497Z" fill="white"/>
</g>
<path d="M29.2217 21.056V13.8201H30.3134V16.9647H33.9208V13.8201H35.0161V21.056H33.9208V17.9009H30.3134V21.056H29.2217ZM36.4481 14.76V13.8201H42.0482V14.76H39.7905V21.056H38.7023V14.76H36.4481ZM43.4846 13.8201H44.8096L47.1132 19.4449H47.198L49.5016 13.8201H50.8265V21.056H49.7878V15.8199H49.7207L47.5866 21.0454H46.7245L44.5905 15.8164H44.5234V21.056H43.4846V13.8201ZM52.6128 21.056V13.8201H53.7045V20.1162H56.9833V21.056H52.6128Z" fill="black"/>
<defs>
<clipPath id="clip0_19_9">
<rect width="17.056" height="17.056" fill="white" transform="translate(8.52798 8.52802)"/>
</clipPath>
</defs>
</svg>
