<svg width="63" height="24" viewBox="0 0 63 24" fill="none" xmlns="http://www.w3.org/2000/svg">
<rect width="63" height="24" rx="6" fill="white"/>
<g clip-path="url(#clip0_19_25)">
<path d="M6.132 6.132H17.868V17.8681H6.132V6.132Z" fill="#F0DB4F"/>
<path d="M16.9075 15.069C16.8216 14.5336 16.4724 14.0839 15.4383 13.6645C15.079 13.4994 14.6785 13.3812 14.5592 13.109C14.5168 12.9505 14.5112 12.8613 14.538 12.7654C14.615 12.4541 14.9865 12.3571 15.281 12.4463C15.4706 12.5099 15.6502 12.6561 15.7584 12.8892C16.2649 12.5613 16.2638 12.5634 16.6175 12.3381C16.488 12.1373 16.4189 12.0447 16.3342 11.9588C16.0296 11.6186 15.6145 11.4434 14.9508 11.4568L14.605 11.5015C14.2737 11.5853 13.958 11.7592 13.7728 11.9923C13.2173 12.6227 13.3757 13.7259 14.0517 14.18C14.7177 14.6798 15.6961 14.7936 15.8211 15.261C15.9427 15.8333 15.4005 16.0185 14.8616 15.9527C14.4645 15.8701 14.2436 15.6683 14.0048 15.3012C13.5653 15.5556 13.5653 15.5556 13.1135 15.8154C13.2206 16.0497 13.3332 16.1558 13.5128 16.3587C14.363 17.221 16.4903 17.1787 16.8719 15.8735C16.8874 15.8287 16.9901 15.5298 16.9075 15.069ZM12.5121 11.5259H11.4143L11.4098 14.3639C11.4098 14.9675 11.4411 15.5208 11.3429 15.6904C11.1823 16.0239 10.7662 15.9826 10.5765 15.9179C10.3835 15.823 10.2853 15.6881 10.1716 15.4974C10.1404 15.4427 10.1169 15.4003 10.1091 15.397L9.21657 15.9436C9.36497 16.2482 9.5836 16.5126 9.86363 16.6843C10.2819 16.9354 10.8442 17.0123 11.4322 16.8773C11.8148 16.7659 12.145 16.535 12.3179 16.1835C12.5678 15.7227 12.5142 15.165 12.512 14.5481C12.5176 13.5417 12.5121 12.5355 12.5121 11.5259Z" fill="#323330"/>
</g>
<path d="M22.538 9.90909H23.3036V13.5185C23.3036 13.8449 23.239 14.1242 23.1097 14.3562C22.9821 14.5882 22.8023 14.7655 22.5703 14.8881C22.3383 15.0091 22.0665 15.0696 21.755 15.0696C21.4683 15.0696 21.2106 15.0174 20.9819 14.913C20.7549 14.8086 20.575 14.657 20.4425 14.4581C20.3116 14.2576 20.2461 14.014 20.2461 13.7273H21.0092C21.0092 13.8681 21.0415 13.9899 21.1062 14.0927C21.1725 14.1954 21.2628 14.2758 21.3771 14.3338C21.4931 14.3902 21.6257 14.4183 21.7749 14.4183C21.9373 14.4183 22.0748 14.3844 22.1875 14.3164C22.3018 14.2468 22.3888 14.1449 22.4485 14.0107C22.5082 13.8764 22.538 13.7124 22.538 13.5185V9.90909ZM25.6131 15.0845C25.3711 15.0845 25.1524 15.0398 24.9569 14.9503C24.7613 14.8591 24.6064 14.7274 24.492 14.555C24.3793 14.3827 24.323 14.1714 24.323 13.9212C24.323 13.7057 24.3644 13.5284 24.4473 13.3892C24.5301 13.25 24.642 13.1398 24.7828 13.0586C24.9237 12.9774 25.0811 12.9161 25.2551 12.8746C25.4292 12.8332 25.6065 12.8017 25.7871 12.7802C26.0158 12.7537 26.2014 12.7321 26.3439 12.7156C26.4864 12.6973 26.59 12.6683 26.6546 12.6286C26.7193 12.5888 26.7516 12.5241 26.7516 12.4347V12.4173C26.7516 12.2002 26.6903 12.032 26.5676 11.9126C26.4467 11.7933 26.266 11.7337 26.0257 11.7337C25.7755 11.7337 25.5783 11.7892 25.4341 11.9002C25.2916 12.0096 25.193 12.1314 25.1383 12.2656L24.4398 12.1065C24.5227 11.8745 24.6436 11.6873 24.8027 11.5447C24.9635 11.4006 25.1483 11.2962 25.3571 11.2315C25.5659 11.1652 25.7854 11.1321 26.0158 11.1321C26.1683 11.1321 26.3298 11.1503 26.5005 11.1868C26.6729 11.2216 26.8336 11.2862 26.9828 11.3807C27.1336 11.4751 27.257 11.6102 27.3532 11.7859C27.4493 11.9599 27.4973 12.1861 27.4973 12.4645V15H26.7715V14.478H26.7417C26.6936 14.5741 26.6215 14.6686 26.5254 14.7614C26.4293 14.8542 26.3058 14.9312 26.155 14.9925C26.0042 15.0539 25.8236 15.0845 25.6131 15.0845ZM25.7747 14.4879C25.9802 14.4879 26.1558 14.4473 26.3017 14.3661C26.4492 14.2849 26.561 14.1789 26.6372 14.0479C26.7151 13.9154 26.7541 13.7737 26.7541 13.6229V13.1307C26.7276 13.1572 26.6762 13.1821 26.6 13.2053C26.5254 13.2268 26.44 13.2459 26.3439 13.2624C26.2478 13.2773 26.1542 13.2914 26.063 13.3047C25.9719 13.3163 25.8957 13.3262 25.8343 13.3345C25.6902 13.3527 25.5584 13.3834 25.4391 13.4265C25.3214 13.4696 25.227 13.5317 25.1557 13.6129C25.0861 13.6925 25.0513 13.7985 25.0513 13.9311C25.0513 14.1151 25.1193 14.2543 25.2551 14.3487C25.391 14.4415 25.5642 14.4879 25.7747 14.4879ZM31.7569 11.1818L30.3723 15H29.5769L28.1898 11.1818H28.9877L29.9547 14.12H29.9945L30.959 11.1818H31.7569ZM33.5972 15.0845C33.3553 15.0845 33.1365 15.0398 32.941 14.9503C32.7454 14.8591 32.5905 14.7274 32.4761 14.555C32.3634 14.3827 32.3071 14.1714 32.3071 13.9212C32.3071 13.7057 32.3485 13.5284 32.4314 13.3892C32.5142 13.25 32.6261 13.1398 32.7669 13.0586C32.9078 12.9774 33.0652 12.9161 33.2392 12.8746C33.4133 12.8332 33.5906 12.8017 33.7712 12.7802C33.9999 12.7537 34.1855 12.7321 34.328 12.7156C34.4705 12.6973 34.5741 12.6683 34.6388 12.6286C34.7034 12.5888 34.7357 12.5241 34.7357 12.4347V12.4173C34.7357 12.2002 34.6744 12.032 34.5517 11.9126C34.4308 11.7933 34.2501 11.7337 34.0098 11.7337C33.7596 11.7337 33.5624 11.7892 33.4182 11.9002C33.2757 12.0096 33.1771 12.1314 33.1224 12.2656L32.4239 12.1065C32.5068 11.8745 32.6277 11.6873 32.7868 11.5447C32.9476 11.4006 33.1324 11.2962 33.3412 11.2315C33.55 11.1652 33.7696 11.1321 33.9999 11.1321C34.1524 11.1321 34.3139 11.1503 34.4846 11.1868C34.657 11.2216 34.8177 11.2862 34.9669 11.3807C35.1177 11.4751 35.2411 11.6102 35.3373 11.7859C35.4334 11.9599 35.4814 12.1861 35.4814 12.4645V15H34.7556V14.478H34.7258C34.6777 14.5741 34.6056 14.6686 34.5095 14.7614C34.4134 14.8542 34.2899 14.9312 34.1391 14.9925C33.9883 15.0539 33.8077 15.0845 33.5972 15.0845ZM33.7588 14.4879C33.9643 14.4879 34.1399 14.4473 34.2858 14.3661C34.4333 14.2849 34.5451 14.1789 34.6213 14.0479C34.6992 13.9154 34.7382 13.7737 34.7382 13.6229V13.1307C34.7117 13.1572 34.6603 13.1821 34.5841 13.2053C34.5095 13.2268 34.4241 13.2459 34.328 13.2624C34.2319 13.2773 34.1383 13.2914 34.0471 13.3047C33.956 13.3163 33.8798 13.3262 33.8184 13.3345C33.6743 13.3527 33.5425 13.3834 33.4232 13.4265C33.3055 13.4696 33.2111 13.5317 33.1398 13.6129C33.0702 13.6925 33.0354 13.7985 33.0354 13.9311C33.0354 14.1151 33.1034 14.2543 33.2392 14.3487C33.3751 14.4415 33.5483 14.4879 33.7588 14.4879ZM39.4477 11.2464C39.4212 11.0111 39.3118 10.8288 39.1196 10.6996C38.9273 10.5687 38.6854 10.5032 38.3937 10.5032C38.1849 10.5032 38.0043 10.5363 37.8518 10.6026C37.6994 10.6673 37.5809 10.7567 37.4963 10.8711C37.4135 10.9838 37.3721 11.1122 37.3721 11.2564C37.3721 11.3774 37.4002 11.4818 37.4566 11.5696C37.5146 11.6574 37.59 11.7312 37.6828 11.7908C37.7772 11.8488 37.8783 11.8977 37.986 11.9375C38.0938 11.9756 38.1973 12.0071 38.2968 12.032L38.7939 12.1612C38.9563 12.201 39.1229 12.2549 39.2936 12.3228C39.4643 12.3907 39.6225 12.4802 39.7684 12.5913C39.9142 12.7023 40.0319 12.8398 40.1213 13.0039C40.2125 13.168 40.2581 13.3643 40.2581 13.593C40.2581 13.8814 40.1835 14.1374 40.0343 14.3612C39.8869 14.5849 39.6722 14.7614 39.3905 14.8906C39.1105 15.0199 38.7716 15.0845 38.3738 15.0845C37.9927 15.0845 37.6629 15.024 37.3845 14.9031C37.1061 14.7821 36.8882 14.6106 36.7307 14.3885C36.5733 14.1648 36.4863 13.8996 36.4697 13.593H37.2403C37.2552 13.777 37.3149 13.9303 37.4193 14.0529C37.5253 14.1739 37.6604 14.2642 37.8245 14.3239C37.9902 14.3819 38.1717 14.4109 38.3689 14.4109C38.586 14.4109 38.779 14.3769 38.948 14.3089C39.1187 14.2393 39.253 14.1432 39.3507 14.0206C39.4485 13.8963 39.4974 13.7513 39.4974 13.5856C39.4974 13.4348 39.4543 13.3113 39.3681 13.2152C39.2836 13.1191 39.1685 13.0395 39.0226 12.9766C38.8784 12.9136 38.7152 12.8581 38.5329 12.81L37.9314 12.646C37.5237 12.5349 37.2005 12.3717 36.9619 12.1562C36.7249 11.9408 36.6064 11.6558 36.6064 11.3011C36.6064 11.0078 36.686 10.7518 36.8451 10.533C37.0042 10.3143 37.2196 10.1444 37.4914 10.0234C37.7632 9.9008 38.0697 9.83949 38.4111 9.83949C38.7558 9.83949 39.0599 9.89998 39.3234 10.021C39.5886 10.1419 39.7974 10.3085 39.9498 10.5206C40.1023 10.7311 40.1818 10.973 40.1885 11.2464H39.4477ZM42.8646 15.0771C42.495 15.0771 42.1769 14.9934 41.9101 14.826C41.6449 14.657 41.4411 14.4241 41.2985 14.1275C41.156 13.8308 41.0848 13.4911 41.0848 13.1083C41.0848 12.7205 41.1577 12.3783 41.3035 12.0817C41.4493 11.7834 41.6548 11.5505 41.92 11.3832C42.1851 11.2158 42.4975 11.1321 42.8571 11.1321C43.1471 11.1321 43.4057 11.186 43.6327 11.2937C43.8597 11.3997 44.0429 11.5489 44.1821 11.7411C44.3229 11.9334 44.4066 12.1579 44.4331 12.4148H43.7098C43.67 12.2358 43.5788 12.0817 43.4363 11.9524C43.2955 11.8232 43.1065 11.7585 42.8696 11.7585C42.6624 11.7585 42.481 11.8132 42.3252 11.9226C42.1711 12.0303 42.0509 12.1844 41.9647 12.3849C41.8786 12.5838 41.8355 12.8191 41.8355 13.0909C41.8355 13.3693 41.8777 13.6096 41.9623 13.8118C42.0468 14.014 42.1661 14.1706 42.3202 14.2816C42.476 14.3926 42.6591 14.4482 42.8696 14.4482C43.0104 14.4482 43.138 14.4225 43.2524 14.3711C43.3684 14.3181 43.4653 14.2427 43.5432 14.1449C43.6228 14.0471 43.6783 13.9295 43.7098 13.7919H44.4331C44.4066 14.0388 44.3262 14.2592 44.192 14.4531C44.0578 14.647 43.878 14.7995 43.6526 14.9105C43.4289 15.0215 43.1662 15.0771 42.8646 15.0771ZM45.368 15V11.1818H46.0864V11.7884H46.1261C46.1957 11.5829 46.3184 11.4213 46.494 11.3036C46.6714 11.1843 46.8719 11.1246 47.0956 11.1246C47.142 11.1246 47.1967 11.1263 47.2597 11.1296C47.3243 11.1329 47.3748 11.1371 47.4113 11.142V11.853C47.3815 11.8447 47.3284 11.8356 47.2522 11.8256C47.176 11.814 47.0997 11.8082 47.0235 11.8082C46.8478 11.8082 46.6912 11.8455 46.5537 11.9201C46.4178 11.993 46.3101 12.0949 46.2305 12.2259C46.151 12.3551 46.1112 12.5026 46.1112 12.6683V15H45.368ZM48.1945 15V11.1818H48.9377V15H48.1945ZM48.5698 10.5927C48.4406 10.5927 48.3295 10.5496 48.2367 10.4634C48.1456 10.3756 48.1 10.2712 48.1 10.1502C48.1 10.0276 48.1456 9.92318 48.2367 9.837C48.3295 9.74917 48.4406 9.70526 48.5698 9.70526C48.6991 9.70526 48.8093 9.74917 48.9005 9.837C48.9933 9.92318 49.0397 10.0276 49.0397 10.1502C49.0397 10.2712 48.9933 10.3756 48.9005 10.4634C48.8093 10.5496 48.6991 10.5927 48.5698 10.5927ZM50.0777 16.4318V11.1818H50.8035V11.8008H50.8657C50.9087 11.7212 50.9709 11.6293 51.0521 11.5249C51.1333 11.4205 51.246 11.3293 51.3902 11.2514C51.5343 11.1719 51.7249 11.1321 51.9619 11.1321C52.2701 11.1321 52.5452 11.21 52.7872 11.3658C53.0291 11.5215 53.2189 11.7461 53.3564 12.0394C53.4956 12.3327 53.5652 12.6857 53.5652 13.0984C53.5652 13.511 53.4965 13.8648 53.3589 14.1598C53.2214 14.4531 53.0324 14.6793 52.7921 14.8384C52.5518 14.9959 52.2776 15.0746 51.9693 15.0746C51.7373 15.0746 51.5476 15.0356 51.4001 14.9577C51.2543 14.8799 51.1399 14.7887 51.0571 14.6843C50.9742 14.5799 50.9104 14.4871 50.8657 14.4059H50.8209V16.4318H50.0777ZM50.806 13.0909C50.806 13.3594 50.8449 13.5947 50.9228 13.7969C51.0007 13.9991 51.1134 14.1573 51.2609 14.2717C51.4084 14.3844 51.589 14.4407 51.8028 14.4407C52.0249 14.4407 52.2105 14.3819 52.3596 14.2642C52.5088 14.1449 52.6215 13.9833 52.6977 13.7795C52.7756 13.5756 52.8145 13.3461 52.8145 13.0909C52.8145 12.839 52.7764 12.6128 52.7002 12.4123C52.6256 12.2118 52.5129 12.0535 52.3621 11.9375C52.213 11.8215 52.0265 11.7635 51.8028 11.7635C51.5874 11.7635 51.4051 11.819 51.2559 11.93C51.1084 12.0411 50.9966 12.196 50.9203 12.3949C50.8441 12.5937 50.806 12.8258 50.806 13.0909ZM56.3203 11.1818V11.7784H54.2347V11.1818H56.3203ZM54.794 10.267H55.5373V13.8789C55.5373 14.0231 55.5588 14.1316 55.6019 14.2045C55.645 14.2758 55.7005 14.3247 55.7684 14.3512C55.838 14.3761 55.9134 14.3885 55.9946 14.3885C56.0543 14.3885 56.1065 14.3844 56.1512 14.3761C56.196 14.3678 56.2308 14.3612 56.2556 14.3562L56.3899 14.9702C56.3468 14.9867 56.2855 15.0033 56.2059 15.0199C56.1264 15.0381 56.027 15.0481 55.9076 15.0497C55.7121 15.053 55.5298 15.0182 55.3608 14.9453C55.1917 14.8724 55.055 14.7597 54.9506 14.6072C54.8462 14.4548 54.794 14.2634 54.794 14.033V10.267Z" fill="black"/>
<defs>
<clipPath id="clip0_19_25">
<rect width="12" height="12" fill="white" transform="translate(6 6)"/>
</clipPath>
</defs>
</svg>
