<svg width="90" height="35" viewBox="0 0 90 35" fill="none" xmlns="http://www.w3.org/2000/svg">
<rect width="89.5442" height="34.1121" rx="8.52802" fill="white"/>
<g clip-path="url(#clip0_19_25)">
<path d="M8.71561 8.71564H25.3964V25.3966H8.71561V8.71564Z" fill="#F0DB4F"/>
<path d="M24.0313 21.4181C23.9091 20.6571 23.4129 20.0179 21.943 19.4219C21.4324 19.1872 20.8631 19.0192 20.6935 18.6323C20.6333 18.4071 20.6253 18.2802 20.6634 18.1439C20.7728 17.7015 21.3008 17.5636 21.7194 17.6904C21.9889 17.7808 22.2441 17.9885 22.398 18.3199C23.1178 17.8538 23.1164 17.8569 23.619 17.5365C23.435 17.2513 23.3368 17.1196 23.2163 16.9975C22.7834 16.514 22.1935 16.2649 21.2501 16.284L20.7587 16.3475C20.2877 16.4665 19.839 16.7137 19.5758 17.0451C18.7861 17.9411 19.0113 19.5092 19.9722 20.1545C20.9188 20.865 22.3094 21.0266 22.487 21.691C22.6599 22.5044 21.8893 22.7677 21.1234 22.6741C20.5589 22.5567 20.245 22.2699 19.9056 21.7482C19.2809 22.1097 19.2809 22.1097 18.6386 22.4791C18.7909 22.8121 18.951 22.9628 19.2063 23.2512C20.4146 24.4769 23.4383 24.4167 23.9806 22.5615C24.0026 22.4979 24.1487 22.0731 24.0313 21.4181ZM17.7838 16.3822H16.2236L16.2172 20.4159C16.2172 21.2738 16.2616 22.0603 16.1221 22.3013C15.8938 22.7754 15.3023 22.7166 15.0328 22.6247C14.7584 22.4899 14.6189 22.2981 14.4572 22.0271C14.4129 21.9493 14.3796 21.889 14.3684 21.8844L13.0998 22.6612C13.3108 23.0941 13.6215 23.4699 14.0195 23.714C14.6141 24.0709 15.4132 24.1803 16.2489 23.9884C16.7929 23.83 17.2622 23.5018 17.5079 23.0022C17.8631 22.3473 17.7869 21.5546 17.7837 20.6778C17.7917 19.2473 17.7838 17.8172 17.7838 16.3822Z" fill="#323330"/>
</g>
<path d="M32.0341 13.8201H33.1223V18.9503C33.1223 19.4143 33.0304 19.8112 32.8467 20.141C32.6653 20.4707 32.4098 20.7227 32.08 20.897C31.7502 21.069 31.364 21.155 30.9211 21.155C30.5136 21.155 30.1474 21.0808 29.8223 20.9324C29.4996 20.784 29.2441 20.5685 29.0556 20.2858C28.8695 20.0008 28.7765 19.6546 28.7765 19.2471H29.8612C29.8612 19.4473 29.9071 19.6204 29.999 19.7664C30.0932 19.9125 30.2216 20.0267 30.3841 20.1092C30.549 20.1892 30.7374 20.2293 30.9494 20.2293C31.1802 20.2293 31.3757 20.181 31.5359 20.0844C31.6984 19.9855 31.8221 19.8406 31.9069 19.6498C31.9917 19.4591 32.0341 19.2259 32.0341 18.9503V13.8201ZM36.4048 21.1762C36.0609 21.1762 35.75 21.1126 35.4721 20.9854C35.1941 20.8558 34.9739 20.6686 34.8114 20.4236C34.6512 20.1786 34.5711 19.8783 34.5711 19.5227C34.5711 19.2164 34.63 18.9644 34.7478 18.7666C34.8656 18.5687 35.0245 18.4121 35.2248 18.2966C35.425 18.1812 35.6487 18.0941 35.8961 18.0352C36.1434 17.9763 36.3954 17.9316 36.6522 17.9009C36.9772 17.8632 37.241 17.8326 37.4436 17.8091C37.6461 17.7832 37.7934 17.7419 37.8852 17.6854C37.9771 17.6289 38.023 17.537 38.023 17.4098V17.3851C38.023 17.0765 37.9359 16.8375 37.7616 16.6679C37.5896 16.4983 37.3329 16.4135 36.9913 16.4135C36.6357 16.4135 36.3554 16.4924 36.1504 16.6502C35.9479 16.8057 35.8077 16.9788 35.73 17.1696L34.7372 16.9435C34.855 16.6137 35.0269 16.3475 35.253 16.145C35.4815 15.94 35.7441 15.7916 36.0409 15.6998C36.3377 15.6056 36.6498 15.5585 36.9772 15.5585C37.1939 15.5585 37.4236 15.5844 37.6662 15.6362C37.9111 15.6856 38.1396 15.7775 38.3516 15.9118C38.5659 16.046 38.7414 16.238 38.878 16.4877C39.0147 16.735 39.083 17.0565 39.083 17.4522V21.056H38.0513V20.3141H38.0089C37.9406 20.4507 37.8381 20.585 37.7015 20.7169C37.5649 20.8488 37.3894 20.9583 37.1751 21.0454C36.9607 21.1326 36.704 21.1762 36.4048 21.1762ZM36.6345 20.3282C36.9266 20.3282 37.1762 20.2705 37.3835 20.1551C37.5932 20.0397 37.7521 19.8889 37.8605 19.7028C37.9712 19.5144 38.0266 19.313 38.0266 19.0987V18.3991C37.9889 18.4368 37.9158 18.4721 37.8075 18.5051C37.7015 18.5357 37.5802 18.5628 37.4436 18.5864C37.307 18.6076 37.1739 18.6276 37.0443 18.6464C36.9148 18.6629 36.8064 18.6771 36.7193 18.6888C36.5144 18.7147 36.3271 18.7583 36.1575 18.8196C35.9903 18.8808 35.856 18.9691 35.7547 19.0845C35.6558 19.1976 35.6063 19.3484 35.6063 19.5368C35.6063 19.7982 35.7029 19.9961 35.8961 20.1304C36.0892 20.2623 36.3353 20.3282 36.6345 20.3282ZM45.1373 15.6291L43.1693 21.056H42.0387L40.0672 15.6291H41.2013L42.5757 19.8053H42.6323L44.0031 15.6291H45.1373ZM47.7529 21.1762C47.409 21.1762 47.0981 21.1126 46.8202 20.9854C46.5422 20.8558 46.322 20.6686 46.1595 20.4236C45.9993 20.1786 45.9192 19.8783 45.9192 19.5227C45.9192 19.2164 45.9781 18.9644 46.0959 18.7666C46.2137 18.5687 46.3726 18.4121 46.5729 18.2966C46.7731 18.1812 46.9968 18.0941 47.2442 18.0352C47.4915 17.9763 47.7435 17.9316 48.0003 17.9009C48.3253 17.8632 48.5891 17.8326 48.7917 17.8091C48.9942 17.7832 49.1415 17.7419 49.2333 17.6854C49.3252 17.6289 49.3711 17.537 49.3711 17.4098V17.3851C49.3711 17.0765 49.284 16.8375 49.1097 16.6679C48.9377 16.4983 48.681 16.4135 48.3394 16.4135C47.9838 16.4135 47.7035 16.4924 47.4985 16.6502C47.296 16.8057 47.1558 16.9788 47.0781 17.1696L46.0853 16.9435C46.2031 16.6137 46.375 16.3475 46.6011 16.145C46.8296 15.94 47.0922 15.7916 47.389 15.6998C47.6858 15.6056 47.9979 15.5585 48.3253 15.5585C48.542 15.5585 48.7717 15.5844 49.0143 15.6362C49.2592 15.6856 49.4877 15.7775 49.6997 15.9118C49.914 16.046 50.0895 16.238 50.2261 16.4877C50.3628 16.735 50.4311 17.0565 50.4311 17.4522V21.056H49.3994V20.3141H49.357C49.2887 20.4507 49.1862 20.585 49.0496 20.7169C48.913 20.8488 48.7375 20.9583 48.5232 21.0454C48.3088 21.1326 48.0521 21.1762 47.7529 21.1762ZM47.9826 20.3282C48.2747 20.3282 48.5243 20.2705 48.7316 20.1551C48.9412 20.0397 49.1002 19.8889 49.2086 19.7028C49.3193 19.5144 49.3746 19.313 49.3746 19.0987V18.3991C49.337 18.4368 49.2639 18.4721 49.1556 18.5051C49.0496 18.5357 48.9283 18.5628 48.7917 18.5864C48.6551 18.6076 48.522 18.6276 48.3924 18.6464C48.2629 18.6629 48.1545 18.6771 48.0674 18.6888C47.8625 18.7147 47.6752 18.7583 47.5056 18.8196C47.3384 18.8808 47.2041 18.9691 47.1028 19.0845C47.0039 19.1976 46.9544 19.3484 46.9544 19.5368C46.9544 19.7982 47.051 19.9961 47.2442 20.1304C47.4373 20.2623 47.6834 20.3282 47.9826 20.3282ZM56.0685 15.721C56.0308 15.3865 55.8753 15.1274 55.6021 14.9437C55.3288 14.7576 54.985 14.6646 54.5704 14.6646C54.2736 14.6646 54.0169 14.7117 53.8002 14.8059C53.5835 14.8978 53.4151 15.0249 53.2949 15.1875C53.1772 15.3476 53.1183 15.5302 53.1183 15.7351C53.1183 15.9071 53.1583 16.0555 53.2384 16.1803C53.3208 16.3051 53.428 16.4099 53.5599 16.4947C53.6942 16.5772 53.8379 16.6467 53.991 16.7032C54.1441 16.7574 54.2913 16.8021 54.4326 16.8375L55.1392 17.0212C55.3701 17.0777 55.6068 17.1543 55.8494 17.2508C56.092 17.3474 56.317 17.4746 56.5242 17.6324C56.7315 17.7902 56.8987 17.9857 57.0259 18.2189C57.1555 18.4521 57.2203 18.7312 57.2203 19.0563C57.2203 19.4661 57.1143 19.83 56.9023 20.148C56.6926 20.466 56.3876 20.7169 55.9872 20.9006C55.5891 21.0843 55.1074 21.1762 54.5421 21.1762C54.0004 21.1762 53.5317 21.0902 53.1359 20.9182C52.7402 20.7463 52.4305 20.5025 52.2067 20.1869C51.983 19.8689 51.8593 19.492 51.8357 19.0563H52.931C52.9522 19.3177 53.037 19.5356 53.1854 19.7099C53.3361 19.8819 53.5281 20.0102 53.7613 20.095C53.9968 20.1775 54.2548 20.2187 54.5351 20.2187C54.8436 20.2187 55.118 20.1704 55.3583 20.0738C55.6009 19.9749 55.7917 19.8383 55.9307 19.664C56.0696 19.4873 56.1391 19.2812 56.1391 19.0457C56.1391 18.8313 56.0779 18.6559 55.9554 18.5192C55.8353 18.3826 55.6716 18.2696 55.4643 18.1801C55.2594 18.0905 55.0274 18.0116 54.7683 17.9433L53.9132 17.7101C53.3338 17.5523 52.8745 17.3203 52.5353 17.0141C52.1985 16.7079 52.0301 16.3028 52.0301 15.7987C52.0301 15.3818 52.1431 15.0179 52.3692 14.707C52.5954 14.396 52.9016 14.1546 53.2879 13.9827C53.6742 13.8084 54.1099 13.7212 54.5951 13.7212C55.0851 13.7212 55.5173 13.8072 55.8918 13.9791C56.2687 14.1511 56.5655 14.3878 56.7822 14.6893C56.9989 14.9884 57.1119 15.3323 57.1213 15.721H56.0685ZM60.925 21.1656C60.3998 21.1656 59.9475 21.0466 59.5683 20.8087C59.1914 20.5685 58.9017 20.2375 58.6991 19.8159C58.4966 19.3943 58.3953 18.9114 58.3953 18.3673C58.3953 17.8161 58.4989 17.3297 58.7062 16.9081C58.9135 16.4841 59.2056 16.1532 59.5824 15.9153C59.9593 15.6774 60.4033 15.5585 60.9144 15.5585C61.3266 15.5585 61.6941 15.635 62.0168 15.7881C62.3395 15.9389 62.5997 16.1508 62.7976 16.4241C62.9978 16.6973 63.1168 17.0165 63.1544 17.3816H62.1263C62.0698 17.1272 61.9402 16.9081 61.7376 16.7244C61.5374 16.5407 61.2689 16.4488 60.9321 16.4488C60.6377 16.4488 60.3797 16.5265 60.1583 16.682C59.9393 16.8351 59.7685 17.0542 59.646 17.3392C59.5235 17.6218 59.4623 17.9563 59.4623 18.3426C59.4623 18.7383 59.5224 19.0798 59.6425 19.3672C59.7626 19.6546 59.9322 19.8771 60.1513 20.035C60.3727 20.1928 60.6329 20.2717 60.9321 20.2717C61.1323 20.2717 61.3137 20.2352 61.4762 20.1622C61.6411 20.0868 61.7789 19.9796 61.8896 19.8406C62.0026 19.7017 62.0815 19.5344 62.1263 19.3389H63.1544C63.1168 19.6899 63.0025 20.0032 62.8117 20.2787C62.6209 20.5543 62.3654 20.771 62.045 20.9288C61.727 21.0867 61.3537 21.1656 60.925 21.1656ZM64.4832 21.056V15.6291H65.5042V16.4912H65.5608C65.6597 16.1991 65.834 15.9695 66.0837 15.8022C66.3357 15.6327 66.6207 15.5479 66.9387 15.5479C67.0046 15.5479 67.0824 15.5502 67.1719 15.5549C67.2637 15.5596 67.3356 15.5655 67.3874 15.5726V16.5831C67.345 16.5713 67.2696 16.5583 67.1613 16.5442C67.0529 16.5277 66.9446 16.5195 66.8362 16.5195C66.5866 16.5195 66.364 16.5725 66.1685 16.6785C65.9753 16.7821 65.8222 16.927 65.7092 17.113C65.5961 17.2968 65.5396 17.5064 65.5396 17.7419V21.056H64.4832ZM68.5006 21.056V15.6291H69.557V21.056H68.5006ZM69.0341 14.7918C68.8504 14.7918 68.6926 14.7305 68.5607 14.608C68.4311 14.4832 68.3663 14.3348 68.3663 14.1629C68.3663 13.9886 68.4311 13.8402 68.5607 13.7177C68.6926 13.5928 68.8504 13.5304 69.0341 13.5304C69.2178 13.5304 69.3745 13.5928 69.504 13.7177C69.6359 13.8402 69.7019 13.9886 69.7019 14.1629C69.7019 14.3348 69.6359 14.4832 69.504 14.608C69.3745 14.7305 69.2178 14.7918 69.0341 14.7918ZM71.1772 23.0911V15.6291H72.2089V16.5089H72.2972C72.3585 16.3958 72.4468 16.2651 72.5622 16.1167C72.6776 15.9683 72.8378 15.8388 73.0427 15.728C73.2476 15.615 73.5185 15.5585 73.8553 15.5585C74.2934 15.5585 74.6844 15.6692 75.0283 15.8906C75.3722 16.112 75.6419 16.4311 75.8374 16.8481C76.0353 17.265 76.1342 17.7667 76.1342 18.3532C76.1342 18.9397 76.0365 19.4426 75.841 19.8618C75.6455 20.2787 75.3769 20.6003 75.0354 20.8264C74.6939 21.0502 74.304 21.162 73.8659 21.162C73.5362 21.162 73.2665 21.1067 73.0568 20.996C72.8496 20.8853 72.687 20.7557 72.5693 20.6073C72.4515 20.4589 72.3608 20.327 72.2972 20.2116H72.2336V23.0911H71.1772ZM72.2124 18.3426C72.2124 18.7242 72.2678 19.0586 72.3785 19.346C72.4892 19.6334 72.6494 19.8583 72.859 20.0208C73.0686 20.181 73.3254 20.2611 73.6292 20.2611C73.9448 20.2611 74.2086 20.1775 74.4206 20.0102C74.6326 19.8406 74.7928 19.611 74.9011 19.3213C75.0119 19.0315 75.0672 18.7053 75.0672 18.3426C75.0672 17.9846 75.013 17.663 74.9047 17.378C74.7987 17.093 74.6385 16.8681 74.4242 16.7032C74.2122 16.5383 73.9472 16.4559 73.6292 16.4559C73.323 16.4559 73.0639 16.5348 72.8519 16.6926C72.6423 16.8504 72.4833 17.0706 72.3749 17.3533C72.2666 17.6359 72.2124 17.9657 72.2124 18.3426ZM80.0501 15.6291V16.4771H77.0858V15.6291H80.0501ZM77.8807 14.3289H78.9371V19.4626C78.9371 19.6675 78.9678 19.8218 79.029 19.9254C79.0902 20.0267 79.1691 20.0962 79.2657 20.1339C79.3647 20.1692 79.4718 20.1869 79.5872 20.1869C79.672 20.1869 79.7462 20.181 79.8098 20.1692C79.8734 20.1574 79.9229 20.148 79.9582 20.141L80.149 21.0136C80.0878 21.0372 80.0006 21.0608 79.8876 21.0843C79.7745 21.1102 79.6332 21.1243 79.4636 21.1267C79.1856 21.1314 78.9265 21.082 78.6863 20.9783C78.446 20.8747 78.2517 20.7145 78.1033 20.4978C77.9549 20.2811 77.8807 20.0091 77.8807 19.6816V14.3289Z" fill="black"/>
<defs>
<clipPath id="clip0_19_25">
<rect width="17.056" height="17.056" fill="white" transform="translate(8.52802 8.52802)"/>
</clipPath>
</defs>
</svg>
