<svg width="41" height="24" viewBox="0 0 41 24" fill="none" xmlns="http://www.w3.org/2000/svg">
<rect width="41" height="24" rx="6" fill="url(#paint0_linear_19_68)"/>
<g clip-path="url(#clip0_19_68)">
<path d="M17.6371 11.9081C17.6371 11.187 17.0907 10.5802 16.3572 10.407L18 6.01059H9.85876L11.5053 10.4209C10.7949 10.608 10.2712 11.2042 10.2712 11.9118C10.2712 12.4317 10.5579 12.8928 10.9933 13.177C10.8216 13.3989 10.6227 13.6036 10.3974 13.7977C9.97342 14.1584 9.50317 14.4356 8.99523 14.6195C8.53679 14.3386 8.33823 13.8427 8.51767 13.3988C9.21676 13.2048 9.72517 12.6119 9.72517 11.9151C9.72517 11.0588 8.95717 10.3652 8.01704 10.3652C7.07336 10.3652 6.30582 11.0621 6.30582 11.9186C6.30582 12.3417 6.49661 12.7298 6.80242 13.0071C6.77561 13.0558 6.74898 13.1041 6.72217 13.1561C6.46623 13.6348 6.17579 14.1757 6.06479 14.7825C5.84326 15.9957 6.20617 16.9702 7.08104 17.5214C7.57398 17.8301 8.1167 17.9861 8.70123 17.9861C9.70567 17.9861 10.7259 17.5283 11.7114 17.0844C12.4146 16.7692 13.1404 16.4395 13.8549 16.2802C14.1186 16.2213 14.3935 16.1865 14.684 16.1484C15.2721 16.0722 15.8797 15.9924 16.426 15.7046C17.064 15.3684 17.4995 14.8066 17.6258 14.1618C17.7209 13.6658 17.6258 13.1667 17.3811 12.7298C17.5482 12.4885 17.6376 12.2017 17.6371 11.9081ZM16.8923 11.9081C16.8923 12.39 16.4604 12.7819 15.9294 12.7819C15.3984 12.7819 14.9666 12.39 14.9666 11.9081C14.9666 11.752 15.0125 11.6031 15.0926 11.4748C15.1231 11.4261 15.1615 11.3778 15.1995 11.3361C15.2398 11.2932 15.2846 11.2548 15.3333 11.2218L15.3373 11.2181C15.3677 11.1973 15.4021 11.1764 15.4365 11.1559C15.4365 11.1559 15.4403 11.1559 15.4403 11.1522C15.4555 11.1453 15.4709 11.135 15.4864 11.128C15.49 11.128 15.4937 11.1244 15.4976 11.1244C15.5131 11.1178 15.5321 11.1109 15.5511 11.1038C15.5692 11.0975 15.587 11.0906 15.6046 11.083C15.6084 11.083 15.6123 11.0793 15.6159 11.0793C15.6313 11.0761 15.6467 11.0691 15.6618 11.0658C15.6658 11.0658 15.6735 11.0621 15.6772 11.0621C15.6962 11.0588 15.7116 11.0552 15.7306 11.0518H15.7346L15.7918 11.0412C15.7958 11.0412 15.8031 11.0412 15.8071 11.0379C15.8225 11.0379 15.8376 11.0343 15.8529 11.0343H15.872C15.891 11.0343 15.9104 11.031 15.9331 11.031H15.9829C15.9979 11.031 16.0097 11.031 16.0247 11.0343H16.0324C16.0631 11.038 16.0935 11.0412 16.1243 11.0482C16.5597 11.1313 16.8923 11.4851 16.8923 11.9081ZM10.9244 6.70387H16.934L15.5548 10.3964C15.4976 10.407 15.4402 10.4242 15.3831 10.4414L13.9314 7.75453L12.4757 10.4241C12.4182 10.4069 12.3571 10.3963 12.2963 10.386L10.9244 6.70387ZM13.656 11.6062C13.5835 11.2803 13.4001 10.9892 13.1404 10.7742L13.9314 9.32512L14.7297 10.8053C14.4928 11.0203 14.321 11.2942 14.2522 11.6062H13.656ZM11.7422 11.0587C11.7612 11.055 11.7766 11.0518 11.7956 11.0482H11.807C11.8224 11.0449 11.8378 11.0449 11.8528 11.0411H11.8682C11.8836 11.0411 11.8949 11.0378 11.9103 11.0378H12.0594C12.0744 11.0378 12.0861 11.0411 12.0974 11.0411C12.1051 11.0411 12.1088 11.0411 12.1164 11.0449C12.1318 11.0482 12.1432 11.0482 12.1586 11.0518C12.1622 11.0518 12.1662 11.0518 12.1739 11.0551C12.193 11.0587 12.2121 11.062 12.2274 11.0657H12.2311C12.2465 11.069 12.2619 11.0722 12.2769 11.0793C12.2809 11.0793 12.2845 11.0829 12.2922 11.0829C12.3036 11.0862 12.3189 11.0899 12.3303 11.0968C12.3343 11.0968 12.338 11.1001 12.342 11.1001C12.357 11.1071 12.3725 11.1108 12.3879 11.1177H12.3915C12.4105 11.1243 12.4259 11.1312 12.4413 11.1419H12.445C12.4603 11.1488 12.4757 11.1591 12.4911 11.166C12.4948 11.166 12.4948 11.1697 12.4984 11.1697C12.5138 11.1763 12.5252 11.1869 12.5406 11.1938L12.5446 11.1971C12.5904 11.2283 12.6324 11.2631 12.6742 11.2979L12.6782 11.3012C12.7164 11.3392 12.7544 11.381 12.7852 11.4261C12.8844 11.5648 12.9419 11.7278 12.9419 11.9047C12.9419 12.3866 12.5101 12.7781 11.9791 12.7781C11.4481 12.7781 11.0163 12.3866 11.0163 11.9047C11.0124 11.4989 11.3218 11.1558 11.7422 11.0587ZM7.98264 11.0342C8.51373 11.0342 8.94545 11.4261 8.94545 11.9079C8.94545 12.3899 8.51373 12.7817 7.98264 12.7817C7.45164 12.7817 7.01982 12.3899 7.01982 11.9079C7.01982 11.4261 7.45164 11.0342 7.98264 11.0342ZM16.8692 14.0405C16.7853 14.4839 16.4831 14.8725 16.0401 15.1046C15.6236 15.3232 15.1117 15.3924 14.573 15.4617C14.279 15.4998 13.9695 15.5415 13.6714 15.6074C12.8768 15.7843 12.1128 16.1311 11.3716 16.4636C10.4242 16.8903 9.52989 17.2924 8.70123 17.2924C8.26942 17.2924 7.88345 17.1815 7.51689 16.9492C6.67642 16.4223 6.71814 15.4342 6.81779 14.8933C6.90929 14.3869 7.16532 13.9119 7.40992 13.4578C7.42492 13.43 7.43664 13.4058 7.45164 13.3779C7.53592 13.4058 7.62376 13.4267 7.71536 13.4406C7.57032 14.1756 7.98264 14.9347 8.78504 15.3094L8.93035 15.3786L9.08682 15.3265C9.75554 15.1116 10.3744 14.7615 10.9208 14.2934C11.2302 14.0298 11.4939 13.7456 11.7155 13.4369C11.8033 13.4509 11.8913 13.4545 11.9791 13.4545C12.7738 13.4545 13.4422 12.9586 13.6333 12.2929H14.2749C14.4661 12.962 15.1347 13.4544 15.9294 13.4544C16.2466 13.4544 16.5407 13.3747 16.7926 13.2396C16.8923 13.4995 16.9226 13.7698 16.8692 14.0405Z" fill="white"/>
</g>
<path d="M22.538 9.90909H23.3036V13.5185C23.3036 13.8449 23.239 14.1242 23.1097 14.3562C22.9821 14.5882 22.8023 14.7655 22.5703 14.8881C22.3383 15.0091 22.0665 15.0696 21.755 15.0696C21.4683 15.0696 21.2106 15.0174 20.9819 14.913C20.7549 14.8086 20.575 14.657 20.4425 14.4581C20.3116 14.2576 20.2461 14.014 20.2461 13.7273H21.0092C21.0092 13.8681 21.0415 13.9899 21.1062 14.0927C21.1725 14.1954 21.2628 14.2758 21.3771 14.3338C21.4931 14.3902 21.6257 14.4183 21.7749 14.4183C21.9373 14.4183 22.0748 14.3844 22.1875 14.3164C22.3018 14.2468 22.3888 14.1449 22.4485 14.0107C22.5082 13.8764 22.538 13.7124 22.538 13.5185V9.90909ZM26.1475 15.0771C25.7714 15.0771 25.4474 14.9967 25.1756 14.8359C24.9055 14.6735 24.6967 14.4457 24.5492 14.1523C24.4033 13.8574 24.3304 13.5118 24.3304 13.1158C24.3304 12.7247 24.4033 12.38 24.5492 12.0817C24.6967 11.7834 24.9022 11.5505 25.1657 11.3832C25.4308 11.2158 25.7407 11.1321 26.0953 11.1321C26.3108 11.1321 26.5196 11.1677 26.7218 11.239C26.9239 11.3103 27.1054 11.4221 27.2662 11.5746C27.4269 11.727 27.5537 11.9251 27.6465 12.1687C27.7393 12.4106 27.7857 12.7048 27.7857 13.0511V13.3146H24.7505V12.7578H27.0573C27.0573 12.5623 27.0176 12.3891 26.938 12.2383C26.8585 12.0858 26.7466 11.9657 26.6024 11.8778C26.4599 11.79 26.2926 11.7461 26.1003 11.7461C25.8915 11.7461 25.7092 11.7975 25.5534 11.9002C25.3993 12.0013 25.28 12.1339 25.1955 12.2979C25.1126 12.4603 25.0712 12.6368 25.0712 12.8274V13.2624C25.0712 13.5176 25.1159 13.7347 25.2054 13.9137C25.2966 14.0927 25.4234 14.2294 25.5858 14.3239C25.7482 14.4167 25.9379 14.4631 26.155 14.4631C26.2959 14.4631 26.4243 14.4432 26.5403 14.4034C26.6563 14.362 26.7566 14.3007 26.8411 14.2195C26.9256 14.1383 26.9902 14.038 27.035 13.9187L27.7385 14.0455C27.6821 14.2526 27.581 14.4341 27.4352 14.5898C27.291 14.744 27.1095 14.8641 26.8908 14.9503C26.6737 15.0348 26.426 15.0771 26.1475 15.0771ZM31.6115 12.114L30.9378 12.2333C30.9097 12.1471 30.8649 12.0651 30.8036 11.9872C30.744 11.9093 30.6628 11.8455 30.56 11.7958C30.4573 11.7461 30.3288 11.7212 30.1747 11.7212C29.9642 11.7212 29.7886 11.7685 29.6477 11.8629C29.5069 11.9557 29.4364 12.0759 29.4364 12.2234C29.4364 12.351 29.4837 12.4537 29.5781 12.5316C29.6726 12.6095 29.825 12.6733 30.0355 12.723L30.642 12.8622C30.9934 12.9434 31.2552 13.0685 31.4275 13.2376C31.5999 13.4066 31.6861 13.6262 31.6861 13.8963C31.6861 14.125 31.6198 14.3288 31.4872 14.5078C31.3563 14.6851 31.1732 14.8243 30.9378 14.9254C30.7042 15.0265 30.4332 15.0771 30.125 15.0771C29.6974 15.0771 29.3486 14.9859 29.0785 14.8036C28.8083 14.6197 28.6426 14.3587 28.5813 14.0206L29.2997 13.9112C29.3445 14.0985 29.4364 14.2402 29.5756 14.3363C29.7148 14.4308 29.8963 14.478 30.12 14.478C30.3636 14.478 30.5583 14.4274 30.7042 14.3263C30.85 14.2236 30.9229 14.0985 30.9229 13.951C30.9229 13.8317 30.8782 13.7314 30.7887 13.6502C30.7009 13.569 30.5658 13.5077 30.3835 13.4663L29.7372 13.3246C29.3809 13.2434 29.1174 13.1141 28.9467 12.9368C28.7777 12.7595 28.6932 12.5349 28.6932 12.2631C28.6932 12.0378 28.7561 11.8406 28.8821 11.6715C29.008 11.5025 29.182 11.3707 29.4041 11.2763C29.6262 11.1802 29.8806 11.1321 30.1673 11.1321C30.5799 11.1321 30.9047 11.2216 31.1417 11.4006C31.3787 11.5779 31.5353 11.8157 31.6115 12.114ZM34.4256 11.1818V11.7784H32.34V11.1818H34.4256ZM32.8993 10.267H33.6426V13.8789C33.6426 14.0231 33.6641 14.1316 33.7072 14.2045C33.7503 14.2758 33.8058 14.3247 33.8737 14.3512C33.9433 14.3761 34.0188 14.3885 34.1 14.3885C34.1596 14.3885 34.2118 14.3844 34.2566 14.3761C34.3013 14.3678 34.3361 14.3612 34.361 14.3562L34.4952 14.9702C34.4521 14.9867 34.3908 15.0033 34.3112 15.0199C34.2317 15.0381 34.1323 15.0481 34.013 15.0497C33.8174 15.053 33.6351 15.0182 33.4661 14.9453C33.297 14.8724 33.1603 14.7597 33.0559 14.6072C32.9515 14.4548 32.8993 14.2634 32.8993 14.033V10.267Z" fill="white"/>
<defs>
<linearGradient id="paint0_linear_19_68" x1="41.9609" y1="24" x2="-2.25299" y2="13.3783" gradientUnits="userSpaceOnUse">
<stop stop-color="#FF5858"/>
<stop offset="1" stop-color="#6162A7"/>
</linearGradient>
<clipPath id="clip0_19_68">
<rect width="12" height="12" fill="white" transform="translate(6 6)"/>
</clipPath>
</defs>
</svg>
