<svg width="59" height="35" viewBox="0 0 59 35" fill="none" xmlns="http://www.w3.org/2000/svg">
<rect width="58.2748" height="34.1121" rx="8.52802" fill="white"/>
<g clip-path="url(#clip0_19_68)">
<path d="M25.0683 16.9255C25.0683 15.9005 24.2917 15.038 23.2491 14.7919L25.5841 8.54308H14.0126L16.3529 14.8116C15.3431 15.0775 14.5988 15.925 14.5988 16.9307C14.5988 17.6697 15.0063 18.325 15.6252 18.729C15.3811 19.0444 15.0985 19.3353 14.7783 19.6111C14.1756 20.1239 13.5072 20.5179 12.7852 20.7792C12.1336 20.38 11.8514 19.6752 12.1065 19.0443C13.1001 18.7684 13.8227 17.9258 13.8227 16.9353C13.8227 15.7183 12.7311 14.7324 11.3949 14.7324C10.0536 14.7324 8.96269 15.723 8.96269 16.9404C8.96269 17.5417 9.23386 18.0934 9.66852 18.4874C9.63041 18.5567 9.59257 18.6253 9.55446 18.6993C9.19068 19.3797 8.77787 20.1484 8.6201 21.0109C8.30523 22.7353 8.82105 24.1204 10.0645 24.9038C10.7652 25.3426 11.5366 25.5643 12.3674 25.5643C13.795 25.5643 15.2452 24.9137 16.6459 24.2827C17.6453 23.8346 18.6769 23.3661 19.6924 23.1397C20.0672 23.0559 20.4581 23.0065 20.8709 22.9524C21.7068 22.844 22.5703 22.7306 23.3469 22.3216C24.2537 21.8437 24.8726 21.0452 25.0521 20.1287C25.1874 19.4238 25.0521 18.7143 24.7044 18.0934C24.9419 17.7503 25.069 17.3428 25.0683 16.9255ZM24.0096 16.9255C24.0096 17.6104 23.3958 18.1673 22.6411 18.1673C21.8864 18.1673 21.2726 17.6104 21.2726 16.9255C21.2726 16.7036 21.3378 16.4919 21.4517 16.3096C21.495 16.2403 21.5496 16.1717 21.6036 16.1124C21.6608 16.0514 21.7246 15.9969 21.7938 15.9499L21.7995 15.9447C21.8427 15.9152 21.8916 15.8854 21.9405 15.8563C21.9405 15.8563 21.9458 15.8563 21.9458 15.8511C21.9675 15.8412 21.9894 15.8265 22.0114 15.8167C22.0166 15.8167 22.0218 15.8115 22.0274 15.8115C22.0493 15.8022 22.0764 15.7923 22.1033 15.7823C22.129 15.7733 22.1544 15.7635 22.1794 15.7527C22.1847 15.7527 22.1903 15.7474 22.1955 15.7474C22.2174 15.7429 22.2392 15.7329 22.2607 15.7282C22.2664 15.7282 22.2773 15.723 22.2825 15.723C22.3096 15.7183 22.3314 15.7131 22.3585 15.7083H22.3642L22.4455 15.6933C22.4511 15.6933 22.4615 15.6933 22.4672 15.6886C22.4891 15.6886 22.5105 15.6834 22.5324 15.6834H22.5594C22.5865 15.6834 22.6141 15.6788 22.6463 15.6788H22.7171C22.7384 15.6788 22.7552 15.6788 22.7765 15.6834H22.7874C22.8311 15.6888 22.8743 15.6933 22.918 15.7033C23.5369 15.8213 24.0096 16.3242 24.0096 16.9255ZM15.5273 9.52846H24.0689L22.1086 14.7768C22.0274 14.7919 21.9457 14.8162 21.8645 14.8408L19.8013 11.0218L17.7322 14.8161C17.6505 14.7917 17.5636 14.7767 17.4771 14.762L15.5273 9.52846ZM19.4098 16.4964C19.3068 16.0331 19.046 15.6193 18.6769 15.3138L19.8013 13.2541L20.9359 15.358C20.5992 15.6636 20.3549 16.0529 20.2571 16.4964H19.4098ZM16.6896 15.7182C16.7167 15.7129 16.7385 15.7083 16.7656 15.7032H16.7817C16.8035 15.6985 16.8255 15.6985 16.8468 15.6932H16.8687C16.8906 15.6932 16.9067 15.6885 16.9285 15.6885H17.1404C17.1617 15.6885 17.1784 15.6932 17.1945 15.6932C17.2054 15.6932 17.2106 15.6932 17.2215 15.6985C17.2434 15.7032 17.2595 15.7032 17.2815 15.7083C17.2866 15.7083 17.2923 15.7083 17.3032 15.713C17.3304 15.7182 17.3575 15.7229 17.3792 15.7281H17.3845C17.4064 15.7327 17.4282 15.7374 17.4495 15.7474C17.4553 15.7474 17.4605 15.7526 17.4714 15.7526C17.4875 15.7573 17.5094 15.7624 17.5255 15.7723C17.5312 15.7723 17.5364 15.777 17.5421 15.777C17.5635 15.787 17.5855 15.7922 17.6073 15.802H17.6125C17.6396 15.8114 17.6614 15.8212 17.6833 15.8364H17.6886C17.7103 15.8463 17.7322 15.8608 17.754 15.8706C17.7593 15.8706 17.7593 15.876 17.7644 15.876C17.7863 15.8853 17.8025 15.9004 17.8244 15.9102L17.8301 15.9149C17.8951 15.9593 17.955 16.0087 18.0143 16.0581L18.02 16.0628C18.0742 16.1169 18.1283 16.1762 18.172 16.2403C18.3131 16.4375 18.3948 16.6692 18.3948 16.9205C18.3948 17.6056 17.7811 18.162 17.0263 18.162C16.2716 18.162 15.6579 17.6056 15.6579 16.9205C15.6523 16.3438 16.0921 15.8561 16.6896 15.7182ZM11.346 15.6833C12.1009 15.6833 12.7145 16.2403 12.7145 16.9252C12.7145 17.6102 12.1009 18.1671 11.346 18.1671C10.5913 18.1671 9.97753 17.6102 9.97753 16.9252C9.97753 16.2403 10.5913 15.6833 11.346 15.6833ZM23.9768 19.9562C23.8575 20.5865 23.4281 21.1388 22.7983 21.4688C22.2064 21.7795 21.4788 21.8778 20.7131 21.9763C20.2952 22.0304 19.8554 22.0897 19.4316 22.1834C18.3022 22.4348 17.2163 22.9277 16.1629 23.4004C14.8162 24.0068 13.5452 24.5783 12.3674 24.5783C11.7536 24.5783 11.205 24.4207 10.684 24.0906C9.48943 23.3416 9.54873 21.9373 9.69037 21.1684C9.82042 20.4486 10.1843 19.7736 10.532 19.1281C10.5533 19.0885 10.57 19.0541 10.5913 19.0146C10.7111 19.0541 10.8359 19.0838 10.9661 19.1036C10.76 20.1482 11.346 21.2273 12.4865 21.7598L12.693 21.8581L12.9154 21.7842C13.8659 21.4786 14.7455 20.9811 15.5221 20.3157C15.9619 19.941 16.3368 19.5372 16.6516 19.0984C16.7765 19.1182 16.9015 19.1234 17.0263 19.1234C18.1559 19.1234 19.1058 18.4185 19.3775 17.4723H20.2895C20.5612 18.4233 21.5115 19.1233 22.6411 19.1233C23.0919 19.1233 23.5099 19.01 23.8679 18.8179C24.0096 19.1874 24.0528 19.5715 23.9768 19.9562Z" fill="#99425B"/>
</g>
<path d="M32.0341 13.8201H33.1223V18.9503C33.1223 19.4143 33.0304 19.8112 32.8467 20.141C32.6653 20.4707 32.4098 20.7228 32.08 20.8971C31.7502 21.069 31.364 21.155 30.9211 21.155C30.5136 21.155 30.1474 21.0808 29.8223 20.9324C29.4996 20.784 29.2441 20.5685 29.0556 20.2858C28.8695 20.0008 28.7765 19.6546 28.7765 19.2471H29.8612C29.8612 19.4473 29.9071 19.6204 29.999 19.7664C30.0932 19.9125 30.2216 20.0267 30.3841 20.1092C30.549 20.1892 30.7374 20.2293 30.9494 20.2293C31.1802 20.2293 31.3757 20.181 31.5359 20.0844C31.6984 19.9855 31.8221 19.8406 31.9069 19.6499C31.9917 19.4591 32.0341 19.2259 32.0341 18.9503V13.8201ZM37.1645 21.1656C36.6298 21.1656 36.1693 21.0513 35.783 20.8229C35.3991 20.592 35.1023 20.2682 34.8926 19.8512C34.6854 19.432 34.5817 18.9409 34.5817 18.3779C34.5817 17.822 34.6854 17.3321 34.8926 16.9081C35.1023 16.4841 35.3944 16.1532 35.7689 15.9153C36.1457 15.6774 36.5862 15.5585 37.0903 15.5585C37.3965 15.5585 37.6933 15.6091 37.9806 15.7104C38.268 15.8117 38.5259 15.9707 38.7544 16.1874C38.9829 16.4041 39.163 16.6855 39.295 17.0318C39.4269 17.3757 39.4928 17.7938 39.4928 18.2861V18.6606H35.1788V17.8691H38.4576C38.4576 17.5912 38.4011 17.3451 38.288 17.1307C38.1749 16.914 38.016 16.7432 37.811 16.6184C37.6085 16.4936 37.3706 16.4311 37.0973 16.4311C36.8005 16.4311 36.5414 16.5042 36.32 16.6502C36.101 16.7939 35.9314 16.9823 35.8113 17.2155C35.6935 17.4463 35.6346 17.6972 35.6346 17.9681V18.5864C35.6346 18.9491 35.6982 19.2577 35.8254 19.5121C35.9549 19.7664 36.1351 19.9608 36.366 20.095C36.5968 20.2269 36.8665 20.2929 37.1751 20.2929C37.3753 20.2929 37.5578 20.2646 37.7227 20.2081C37.8876 20.1492 38.0301 20.0621 38.1502 19.9466C38.2703 19.8312 38.3622 19.6887 38.4258 19.5191L39.4257 19.6993C39.3456 19.9937 39.2019 20.2517 38.9946 20.4731C38.7897 20.6921 38.5318 20.8629 38.2209 20.9854C37.9123 21.1055 37.5602 21.1656 37.1645 21.1656ZM44.9306 16.9541L43.9731 17.1236C43.9331 17.0012 43.8695 16.8846 43.7823 16.7739C43.6975 16.6632 43.5821 16.5725 43.4361 16.5018C43.29 16.4311 43.1075 16.3958 42.8884 16.3958C42.5893 16.3958 42.3396 16.4629 42.1394 16.5972C41.9392 16.7291 41.8391 16.8999 41.8391 17.1095C41.8391 17.2909 41.9062 17.4369 42.0405 17.5476C42.1747 17.6583 42.3914 17.749 42.6906 17.8197L43.5526 18.0175C44.052 18.133 44.4242 18.3108 44.6691 18.551C44.9141 18.7913 45.0366 19.1034 45.0366 19.4873C45.0366 19.8124 44.9424 20.1021 44.7539 20.3565C44.5678 20.6085 44.3076 20.8064 43.9731 20.9501C43.641 21.0937 43.2559 21.1656 42.8178 21.1656C42.2101 21.1656 41.7142 21.036 41.3303 20.7769C40.9464 20.5155 40.7108 20.1445 40.6237 19.664L41.6447 19.5085C41.7083 19.7747 41.8391 19.9761 42.0369 20.1127C42.2348 20.247 42.4927 20.3141 42.8107 20.3141C43.1569 20.3141 43.4337 20.2422 43.641 20.0986C43.8483 19.9525 43.9519 19.7747 43.9519 19.5651C43.9519 19.3955 43.8883 19.253 43.7611 19.1375C43.6363 19.0221 43.4443 18.935 43.1852 18.8761L42.2666 18.6747C41.7602 18.5593 41.3856 18.3756 41.143 18.1235C40.9028 17.8715 40.7827 17.5523 40.7827 17.166C40.7827 16.8457 40.8722 16.5654 41.0512 16.3252C41.2302 16.0849 41.4775 15.8976 41.7931 15.7634C42.1088 15.6268 42.4703 15.5585 42.8778 15.5585C43.4643 15.5585 43.926 15.6857 44.2628 15.94C44.5996 16.1921 44.8222 16.5301 44.9306 16.9541ZM48.9304 15.6291V16.4771H45.966V15.6291H48.9304ZM46.761 14.3289H47.8174V19.4626C47.8174 19.6675 47.848 19.8218 47.9093 19.9254C47.9705 20.0267 48.0494 20.0962 48.146 20.1339C48.2449 20.1692 48.3521 20.1869 48.4675 20.1869C48.5523 20.1869 48.6265 20.181 48.6901 20.1692C48.7537 20.1574 48.8032 20.148 48.8385 20.141L49.0293 21.0136C48.968 21.0372 48.8809 21.0608 48.7678 21.0843C48.6548 21.1102 48.5134 21.1244 48.3439 21.1267C48.0659 21.1314 47.8068 21.082 47.5666 20.9783C47.3263 20.8747 47.132 20.7145 46.9836 20.4978C46.8352 20.2811 46.761 20.0091 46.761 19.6816V14.3289Z" fill="black"/>
<defs>
<clipPath id="clip0_19_68">
<rect width="17.056" height="17.056" fill="white" transform="translate(8.52802 8.52803)"/>
</clipPath>
</defs>
</svg>
