<svg width="90" height="35" viewBox="0 0 90 35" fill="none" xmlns="http://www.w3.org/2000/svg">
<rect width="89.5442" height="34.1121" rx="8.52802" fill="white"/>
<path d="M14.346 17.9752C13.7965 18.1311 13.4361 18.4045 13.1986 18.6777C13.4261 18.4786 13.7307 18.2959 14.1416 18.1795C14.562 18.0604 14.9206 18.0612 15.2168 18.1183V17.8866C14.964 17.8635 14.6742 17.8819 14.3459 17.9751L14.346 17.9752ZM13.1736 16.0273L11.133 16.565C11.133 16.565 11.1701 16.6175 11.239 16.6876L12.9692 16.2318C12.9692 16.2318 12.9446 16.5477 12.7317 16.8303C13.1344 16.5256 13.1736 16.0273 13.1736 16.0273ZM14.8817 20.8232C12.01 21.5967 10.4907 18.2686 10.0307 16.5413C9.81819 15.7439 9.72544 15.14 9.70066 14.7504C9.69832 14.7152 9.69881 14.6798 9.70212 14.6446C9.55315 14.6537 9.48186 14.7311 9.49639 14.9548C9.52117 15.3443 9.61391 15.9481 9.82645 16.7457C10.2862 18.4728 11.8057 21.8008 14.6774 21.0273C15.3025 20.8589 15.7721 20.5523 16.1245 20.1606C15.7997 20.4541 15.393 20.6853 14.8817 20.8232ZM15.4214 13.9906V14.195H16.5477C16.5247 14.1227 16.5014 14.0575 16.4782 13.9906H15.4214Z" fill="#2D4552"/>
<path d="M16.7994 15.6738C17.306 15.8178 17.5738 16.1729 17.7155 16.4872L18.2803 16.6476C18.2803 16.6476 18.2033 15.5477 17.2083 15.265C16.2776 15.0005 15.7047 15.7822 15.635 15.8833C15.9058 15.6904 16.3012 15.5325 16.7994 15.6738ZM21.2954 16.4923C20.3637 16.2266 19.7911 17.0098 19.7225 17.1096C19.9935 16.9169 20.3886 16.7589 20.8867 16.9009C21.3925 17.045 21.6601 17.3997 21.8021 17.7143L22.3678 17.8753C22.3678 17.8753 22.2894 16.775 21.2954 16.4923ZM20.7343 19.3926L16.0357 18.079C16.0357 18.079 16.0866 18.3369 16.2817 18.6708L20.2376 19.7768C20.5633 19.5883 20.7343 19.3926 20.7343 19.3926ZM17.4768 22.2199C13.7565 21.2225 14.2063 16.4823 14.8082 14.2361C15.0561 13.3104 15.3108 12.6224 15.5222 12.1611C15.3961 12.1351 15.2916 12.2016 15.1885 12.4113C14.9641 12.8664 14.6772 13.6074 14.3995 14.6446C13.7978 16.8908 13.3479 21.6308 17.0681 22.6282C18.8216 23.0979 20.1877 22.3839 21.206 21.2628C20.2394 22.1382 19.0053 22.6291 17.4768 22.2199Z" fill="#2D4552"/>
<path d="M15.4213 19.7124V18.7558L12.7636 19.5094C12.7636 19.5094 12.96 18.3684 14.3461 17.9752C14.7665 17.8561 15.1251 17.8569 15.4213 17.914V13.9906H16.7521C16.6072 13.5429 16.4671 13.1982 16.3493 12.9587C16.1546 12.5623 15.9548 12.8251 15.5017 13.2042C15.1824 13.4708 14.3757 14.0398 13.1617 14.3669C11.9476 14.6943 10.9662 14.6074 10.5566 14.5365C9.97604 14.4363 9.67236 14.309 9.70088 14.7504C9.72566 15.1399 9.8184 15.7438 10.0309 16.5413C10.4907 18.2685 12.0102 21.5964 14.8819 20.8229C15.632 20.6208 16.1615 20.2213 16.5285 19.7121H15.4213V19.7124ZM11.1327 16.565L13.1735 16.0273C13.1735 16.0273 13.1141 16.8125 12.349 17.0141C11.5837 17.2155 11.1327 16.565 11.1327 16.565Z" fill="#E2574C"/>
<path d="M23.1019 14.0361C22.5714 14.1291 21.2987 14.2449 19.7258 13.8234C18.1525 13.4021 17.1088 12.6652 16.6952 12.3187C16.1089 11.8277 15.851 11.4865 15.5972 12.0027C15.3728 12.458 15.0859 13.1988 14.8082 14.2362C14.2065 16.4824 13.7566 21.2224 17.4768 22.2198C21.1961 23.2163 23.1762 18.8862 23.7781 16.6399C24.0558 15.6028 24.1776 14.8176 24.2112 14.3112C24.2494 13.7376 23.8554 13.9041 23.102 14.0362L23.1019 14.0361ZM15.6276 15.8944C15.6276 15.8944 16.2139 14.9825 17.2082 15.2652C18.2032 15.5478 18.2802 16.6478 18.2802 16.6478L15.6276 15.8944ZM18.0547 19.986C16.3058 19.4736 16.036 18.079 16.036 18.079L20.7343 19.3926C20.7343 19.3923 19.7859 20.4919 18.0547 19.986ZM19.7158 17.1197C19.7158 17.1197 20.3013 16.2086 21.2954 16.492C22.2894 16.775 22.3678 17.875 22.3678 17.875L19.7158 17.1197Z" fill="#2EAD33"/>
<path d="M14.4926 19.0192L12.7636 19.5092C12.7636 19.5092 12.9515 18.4393 14.2251 18.0152L13.2461 14.3411L13.1615 14.3668C11.9475 14.6942 10.9661 14.6073 10.5565 14.5364C9.97592 14.4364 9.67224 14.3088 9.70075 14.7504C9.72554 15.1399 9.81828 15.7437 10.0308 16.5413C10.4905 18.2684 12.0101 21.5964 14.8818 20.8229L14.9664 20.7964L14.4926 19.0192ZM11.1328 16.565L13.1737 16.0274C13.1737 16.0274 13.1142 16.8125 12.3491 17.0141C11.5838 17.2156 11.1328 16.565 11.1328 16.565Z" fill="#D65348"/>
<path d="M18.1335 20.0051L18.0543 19.9859C16.3054 19.4737 16.0356 18.079 16.0356 18.079L18.4584 18.7562L19.741 13.8274L19.7256 13.8233C18.1523 13.4019 17.1085 12.665 16.6949 12.3186C16.1086 11.8276 15.8508 11.4863 15.5969 12.0025C15.3728 12.4578 15.0858 13.1987 14.8081 14.2361C14.2063 16.4823 13.7565 21.2222 17.4767 22.2196L17.5529 22.2368L18.1335 20.0051ZM15.6275 15.8944C15.6275 15.8944 16.2138 14.9825 17.2081 15.2652C18.2031 15.5478 18.2801 16.6478 18.2801 16.6478L15.6275 15.8944Z" fill="#1D8D22"/>
<path d="M14.5806 18.994L14.1169 19.1257C14.2265 19.7432 14.4195 20.3359 14.7226 20.8594C14.7753 20.8478 14.8276 20.8377 14.8814 20.823C15.0165 20.7859 15.1491 20.7404 15.2785 20.6867C14.9399 20.1842 14.7159 19.6054 14.5806 18.994ZM14.3996 14.6447C14.1613 15.5341 13.9481 16.8141 14.0067 18.0979C14.1169 18.0493 14.2303 18.0082 14.346 17.9749L14.4318 17.9558C14.3272 16.5843 14.5533 15.1868 14.8082 14.2361C14.8686 14.0106 14.9333 13.7862 15.0021 13.5632C14.8899 13.6349 14.7753 13.7029 14.6586 13.767C14.5647 14.0573 14.4783 14.35 14.3996 14.6447Z" fill="#C04B41"/>
<path d="M29.2217 21.056V13.8201H31.8009C32.3638 13.8201 32.8302 13.9226 33.2 14.1275C33.5698 14.3325 33.8466 14.6128 34.0303 14.9684C34.214 15.3217 34.3059 15.7198 34.3059 16.1626C34.3059 16.6078 34.2129 17.0082 34.0268 17.3639C33.8431 17.7172 33.5651 17.9975 33.193 18.2048C32.8231 18.4097 32.3579 18.5122 31.7974 18.5122H30.0237V17.5865H31.6984C32.0541 17.5865 32.3426 17.5252 32.564 17.4028C32.7855 17.2779 32.948 17.1083 33.0516 16.894C33.1553 16.6796 33.2071 16.4359 33.2071 16.1626C33.2071 15.8894 33.1553 15.6468 33.0516 15.4348C32.948 15.2228 32.7843 15.0568 32.5605 14.9366C32.3391 14.8165 32.047 14.7564 31.6843 14.7564H30.3134V21.056H29.2217ZM36.7564 13.8201V21.056H35.7V13.8201H36.7564ZM39.9559 21.1762C39.612 21.1762 39.3011 21.1126 39.0231 20.9854C38.7452 20.8558 38.525 20.6686 38.3624 20.4236C38.2023 20.1786 38.1222 19.8783 38.1222 19.5227C38.1222 19.2165 38.1811 18.9644 38.2989 18.7666C38.4166 18.5687 38.5756 18.4121 38.7758 18.2967C38.976 18.1812 39.1998 18.0941 39.4471 18.0352C39.6944 17.9763 39.9465 17.9316 40.2032 17.9009C40.5283 17.8633 40.7921 17.8326 40.9946 17.8091C41.1972 17.7832 41.3444 17.7419 41.4363 17.6854C41.5282 17.6289 41.5741 17.537 41.5741 17.4098V17.3851C41.5741 17.0765 41.4869 16.8375 41.3126 16.6679C41.1407 16.4983 40.8839 16.4135 40.5424 16.4135C40.1867 16.4135 39.9064 16.4924 39.7015 16.6502C39.4989 16.8057 39.3588 16.9788 39.2811 17.1696L38.2883 16.9435C38.406 16.6137 38.578 16.3475 38.8041 16.145C39.0326 15.94 39.2952 15.7916 39.592 15.6998C39.8888 15.6056 40.2009 15.5585 40.5283 15.5585C40.745 15.5585 40.9746 15.5844 41.2172 15.6362C41.4622 15.6857 41.6907 15.7775 41.9027 15.9118C42.117 16.046 42.2925 16.238 42.4291 16.4877C42.5657 16.735 42.634 17.0565 42.634 17.4522V21.056H41.6023V20.3141H41.56C41.4916 20.4507 41.3892 20.585 41.2526 20.7169C41.116 20.8488 40.9405 20.9583 40.7261 21.0454C40.5118 21.1326 40.255 21.1762 39.9559 21.1762ZM40.1856 20.3282C40.4776 20.3282 40.7273 20.2705 40.9346 20.1551C41.1442 20.0397 41.3032 19.8889 41.4116 19.7028C41.5223 19.5144 41.5776 19.313 41.5776 19.0987V18.3991C41.5399 18.4368 41.4669 18.4721 41.3586 18.5051C41.2526 18.5357 41.1313 18.5628 40.9946 18.5864C40.858 18.6076 40.7249 18.6276 40.5954 18.6464C40.4659 18.6629 40.3575 18.6771 40.2703 18.6888C40.0654 18.7147 39.8782 18.7583 39.7086 18.8196C39.5413 18.8808 39.4071 18.9691 39.3058 19.0845C39.2069 19.1976 39.1574 19.3484 39.1574 19.5368C39.1574 19.7982 39.254 19.9961 39.4471 20.1304C39.6403 20.2623 39.8864 20.3282 40.1856 20.3282ZM44.7135 23.0911C44.5557 23.0911 44.412 23.0782 44.2825 23.0523C44.1529 23.0287 44.0564 23.0028 43.9928 22.9745L44.2472 22.1089C44.4403 22.1607 44.6123 22.1831 44.763 22.1761C44.9137 22.169 45.0468 22.1125 45.1622 22.0065C45.28 21.9005 45.3837 21.7273 45.4732 21.4871L45.6039 21.1267L43.6183 15.6291H44.7489L46.1233 19.8406H46.1798L47.5542 15.6291H48.6883L46.4518 21.7803C46.3482 22.063 46.2163 22.3021 46.0561 22.4976C45.896 22.6954 45.7052 22.8438 45.4838 22.9427C45.2624 23.0417 45.0056 23.0911 44.7135 23.0911ZM51.0567 21.056L49.4597 15.6291H50.5514L51.6149 19.6145H51.6679L52.7349 15.6291H53.8267L54.8866 19.5969H54.9396L55.996 15.6291H57.0878L55.4943 21.056H54.4167L53.3144 17.1378H53.2331L52.1308 21.056H51.0567ZM58.2893 21.056V15.6291H59.3104V16.4912H59.3669C59.4658 16.1991 59.6401 15.9695 59.8898 15.8022C60.1418 15.6327 60.4268 15.5479 60.7448 15.5479C60.8108 15.5479 60.8885 15.5502 60.978 15.5549C61.0699 15.5596 61.1417 15.5655 61.1935 15.5726V16.5831C61.1511 16.5713 61.0758 16.5583 60.9674 16.5442C60.8591 16.5277 60.7507 16.5195 60.6424 16.5195C60.3927 16.5195 60.1701 16.5725 59.9746 16.6785C59.7815 16.7821 59.6284 16.927 59.5153 17.113C59.4022 17.2968 59.3457 17.5064 59.3457 17.7419V21.056H58.2893ZM62.3067 21.056V15.6291H63.3631V21.056H62.3067ZM62.8402 14.7918C62.6565 14.7918 62.4987 14.7305 62.3668 14.608C62.2372 14.4832 62.1725 14.3348 62.1725 14.1629C62.1725 13.9886 62.2372 13.8402 62.3668 13.7177C62.4987 13.5928 62.6565 13.5304 62.8402 13.5304C63.024 13.5304 63.1806 13.5928 63.3101 13.7177C63.442 13.8402 63.508 13.9886 63.508 14.1629C63.508 14.3348 63.442 14.4832 63.3101 14.608C63.1806 14.7305 63.024 14.7918 62.8402 14.7918ZM67.2587 23.2042C66.8276 23.2042 66.4567 23.1477 66.1457 23.0346C65.8372 22.9216 65.5852 22.772 65.3897 22.5859C65.1941 22.3998 65.0481 22.1961 64.9515 21.9747L65.8596 21.6002C65.9232 21.7038 66.008 21.8133 66.1139 21.9287C66.2223 22.0465 66.3683 22.1466 66.5521 22.2291C66.7381 22.3115 66.9772 22.3527 67.2693 22.3527C67.6697 22.3527 68.0007 22.255 68.2621 22.0595C68.5236 21.8663 68.6543 21.5578 68.6543 21.1338V20.0668H68.5872C68.5236 20.1822 68.4317 20.3106 68.3116 20.4519C68.1938 20.5932 68.0313 20.7157 67.824 20.8193C67.6167 20.923 67.347 20.9748 67.0149 20.9748C66.5862 20.9748 66.1999 20.8747 65.856 20.6745C65.5145 20.4719 65.2436 20.1739 65.0434 19.7806C64.8455 19.3849 64.7466 18.8985 64.7466 18.3214C64.7466 17.7443 64.8444 17.2497 65.0399 16.8375C65.2377 16.4253 65.5086 16.1096 65.8525 15.8906C66.1964 15.6692 66.5862 15.5585 67.022 15.5585C67.3588 15.5585 67.6308 15.615 67.8381 15.7281C68.0454 15.8388 68.2068 15.9683 68.3222 16.1167C68.4399 16.2651 68.5306 16.3958 68.5942 16.5089H68.6719V15.6291H69.7072V21.1762C69.7072 21.6425 69.5988 22.0253 69.3821 22.3244C69.1654 22.6236 68.8722 22.845 68.5024 22.9887C68.1349 23.1324 67.7204 23.2042 67.2587 23.2042ZM67.2481 20.0986C67.5519 20.0986 67.8087 20.0279 68.0183 19.8866C68.2303 19.7429 68.3905 19.538 68.4988 19.2718C68.6095 19.0033 68.6649 18.6818 68.6649 18.3073C68.6649 17.9422 68.6107 17.6206 68.5024 17.3427C68.394 17.0648 68.235 16.8481 68.0254 16.6926C67.8157 16.5348 67.5567 16.4559 67.2481 16.4559C66.9301 16.4559 66.6651 16.5383 66.4531 16.7032C66.2411 16.8657 66.081 17.0871 65.9726 17.3674C65.8666 17.6477 65.8136 17.961 65.8136 18.3073C65.8136 18.6629 65.8678 18.975 65.9762 19.2435C66.0845 19.5121 66.2447 19.7217 66.4567 19.8724C66.671 20.0232 66.9348 20.0986 67.2481 20.0986ZM72.3794 17.8338V21.056H71.3229V13.8201H72.3652V16.5124H72.4324C72.5595 16.2203 72.7539 15.9883 73.0153 15.8164C73.2768 15.6444 73.6183 15.5585 74.0399 15.5585C74.4121 15.5585 74.7371 15.635 75.0151 15.7881C75.2954 15.9412 75.5121 16.1697 75.6652 16.4735C75.8206 16.775 75.8984 17.1519 75.8984 17.6042V21.056H74.842V17.7313C74.842 17.3333 74.7395 17.0247 74.5346 16.8057C74.3297 16.5843 74.0447 16.4735 73.6796 16.4735C73.4299 16.4735 73.2061 16.5265 73.0083 16.6325C72.8128 16.7385 72.6585 16.894 72.5454 17.0989C72.4347 17.3015 72.3794 17.5464 72.3794 17.8338ZM80.0404 15.6291V16.4771H77.076V15.6291H80.0404ZM77.871 14.3289H78.9274V19.4626C78.9274 19.6675 78.958 19.8218 79.0193 19.9254C79.0805 20.0267 79.1594 20.0962 79.256 20.1339C79.3549 20.1692 79.4621 20.1869 79.5775 20.1869C79.6623 20.1869 79.7365 20.181 79.8001 20.1692C79.8637 20.1574 79.9132 20.148 79.9485 20.141L80.1393 21.0136C80.078 21.0372 79.9909 21.0608 79.8778 21.0843C79.7648 21.1102 79.6235 21.1244 79.4539 21.1267C79.1759 21.1314 78.9168 21.082 78.6766 20.9783C78.4363 20.8747 78.242 20.7145 78.0936 20.4978C77.9452 20.2811 77.871 20.0091 77.871 19.6816V14.3289Z" fill="black"/>
</svg>
