<svg width="63" height="24" viewBox="0 0 63 24" fill="none" xmlns="http://www.w3.org/2000/svg">
<rect width="63" height="24" rx="6" fill="url(#paint0_linear_19_72)"/>
<path d="M10.0933 12.6467C9.7067 12.7564 9.45311 12.9487 9.28604 13.1409C9.44608 13.0009 9.66039 12.8723 9.94951 12.7904C10.2453 12.7066 10.4976 12.7072 10.706 12.7474V12.5843C10.5281 12.5681 10.3242 12.5811 10.0932 12.6466L10.0933 12.6467ZM9.26842 11.2762L7.83273 11.6545C7.83273 11.6545 7.85889 11.6915 7.90736 11.7408L9.12461 11.4201C9.12461 11.4201 9.10736 11.6423 8.95754 11.8412C9.24086 11.6268 9.26842 11.2762 9.26842 11.2762ZM10.4702 14.6504C8.44979 15.1946 7.38086 12.8531 7.05723 11.6378C6.9077 11.0768 6.84245 10.652 6.82501 10.3778C6.82336 10.353 6.82371 10.3281 6.82604 10.3034C6.72123 10.3098 6.67107 10.3642 6.68129 10.5217C6.69873 10.7957 6.76398 11.2205 6.91351 11.7817C7.23695 12.9967 8.30608 15.3383 10.3265 14.794C10.7663 14.6755 11.0966 14.4598 11.3446 14.1843C11.116 14.3907 10.8299 14.5534 10.4702 14.6504ZM10.8499 9.84328V9.98709H11.6424C11.6261 9.93618 11.6097 9.89034 11.5934 9.84328H10.8499Z" fill="#2D4552"/>
<path d="M11.8194 11.0275C12.1759 11.1288 12.3643 11.3786 12.464 11.5998L12.8614 11.7127C12.8614 11.7127 12.8072 10.9388 12.1071 10.7399C11.4523 10.5538 11.0493 11.1038 11.0002 11.1749C11.1907 11.0392 11.4689 10.9281 11.8194 11.0275ZM14.9826 11.6033C14.3271 11.4164 13.9243 11.9675 13.876 12.0377C14.0667 11.9021 14.3447 11.7909 14.6951 11.8909C15.051 11.9922 15.2392 12.2418 15.3392 12.4631L15.7371 12.5764C15.7371 12.5764 15.682 11.8023 14.9826 11.6033ZM14.5879 13.6439L11.2821 12.7197C11.2821 12.7197 11.318 12.9011 11.4552 13.1361L14.2385 13.9142C14.4676 13.7816 14.5879 13.6439 14.5879 13.6439ZM12.296 15.6331C9.67855 14.9314 9.99505 11.5963 10.4185 10.016C10.5929 9.36469 10.7721 8.88066 10.9208 8.5561C10.8321 8.53782 10.7586 8.5846 10.6861 8.73216C10.5282 9.05231 10.3264 9.57366 10.131 10.3034C9.70761 11.8838 9.39111 15.2186 12.0085 15.9203C13.2422 16.2508 14.2033 15.7485 14.9197 14.9597C14.2397 15.5756 13.3715 15.921 12.296 15.6331Z" fill="#2D4552"/>
<path d="M10.8499 13.8689V13.1959L8.98002 13.7261C8.98002 13.7261 9.11821 12.9233 10.0934 12.6467C10.3892 12.5629 10.6415 12.5634 10.8499 12.6037V9.84328H11.7861C11.6842 9.52828 11.5856 9.28574 11.5027 9.11728C11.3658 8.83837 11.2252 9.02324 10.9064 9.28996C10.6818 9.47756 10.1142 9.87787 9.26005 10.108C8.4059 10.3384 7.71543 10.2772 7.42724 10.2274C7.01877 10.1569 6.80512 10.0672 6.82518 10.3778C6.84262 10.6519 6.90787 11.0767 7.0574 11.6378C7.38083 12.853 8.44996 15.1944 10.4704 14.6502C10.9981 14.508 11.3706 14.2269 11.6288 13.8687H10.8499V13.8689ZM7.83252 11.6545L9.2684 11.2762C9.2684 11.2762 9.22658 11.8286 8.68827 11.9705C8.14987 12.1122 7.83252 11.6545 7.83252 11.6545Z" fill="#E2574C"/>
<path d="M16.2536 9.87524C15.8804 9.94068 14.985 10.0222 13.8784 9.72562C12.7715 9.42918 12.0371 8.91075 11.7461 8.667C11.3336 8.32153 11.1522 8.08143 10.9736 8.44462C10.8157 8.76496 10.6139 9.28621 10.4185 10.0161C9.99515 11.5964 9.67865 14.9313 12.2961 15.633C14.9128 16.3341 16.3059 13.2876 16.7294 11.7072C16.9248 10.9776 17.0105 10.4251 17.0341 10.0688C17.061 9.66525 16.7838 9.78243 16.2537 9.87534L16.2536 9.87524ZM10.995 11.1827C10.995 11.1827 11.4075 10.5412 12.1071 10.74C12.8071 10.9388 12.8613 11.7127 12.8613 11.7127L10.995 11.1827ZM12.7026 14.0614C11.4722 13.7009 11.2823 12.7197 11.2823 12.7197L14.5879 13.6439C14.5879 13.6437 13.9206 14.4173 12.7026 14.0614ZM13.8713 12.0448C13.8713 12.0448 14.2833 11.4037 14.9826 11.6032C15.682 11.8023 15.7371 12.5762 15.7371 12.5762L13.8713 12.0448Z" fill="#2EAD33"/>
<path d="M10.1964 13.3812L8.98002 13.7259C8.98002 13.7259 9.11221 12.9732 10.0083 12.6748L9.31949 10.0898L9.25996 10.1079C8.40581 10.3383 7.71534 10.2772 7.42715 10.2273C7.01868 10.1569 6.80502 10.0672 6.82509 10.3778C6.84252 10.6519 6.90777 11.0767 7.05731 11.6378C7.38074 12.8529 8.44987 15.1944 10.4703 14.6502L10.5298 14.6316L10.1964 13.3812ZM7.83262 11.6545L9.26849 11.2763C9.26849 11.2763 9.22668 11.8286 8.68837 11.9705C8.14996 12.1122 7.83262 11.6545 7.83262 11.6545Z" fill="#D65348"/>
<path d="M12.7581 14.0749L12.7024 14.0614C11.4719 13.701 11.2821 12.7197 11.2821 12.7197L12.9866 13.1962L13.8891 9.72843L13.8782 9.72553C12.7713 9.42909 12.0369 8.91065 11.7459 8.6669C11.3334 8.32144 11.152 8.08134 10.9734 8.44453C10.8157 8.76487 10.6138 9.28612 10.4184 10.016C9.99506 11.5963 9.67856 14.9312 12.296 15.6329L12.3496 15.645L12.7581 14.0749ZM10.9949 11.1827C10.9949 11.1827 11.4074 10.5412 12.107 10.74C12.807 10.9388 12.8612 11.7127 12.8612 11.7127L10.9949 11.1827Z" fill="#1D8D22"/>
<path d="M10.2584 13.3635L9.93216 13.4561C10.0092 13.8906 10.1451 14.3076 10.3583 14.6759C10.3954 14.6677 10.4321 14.6606 10.47 14.6503C10.565 14.6242 10.6583 14.5922 10.7494 14.5544C10.5112 14.2009 10.3536 13.7936 10.2584 13.3635ZM10.131 10.3035C9.96338 10.9292 9.81338 11.8297 9.85463 12.733C9.93215 12.6988 10.0119 12.6699 10.0933 12.6465L10.1537 12.633C10.0801 11.6681 10.2392 10.6849 10.4185 10.016C10.461 9.85731 10.5065 9.69947 10.5549 9.54253C10.476 9.593 10.3954 9.64084 10.3133 9.68596C10.2472 9.8902 10.1864 10.0961 10.131 10.3035Z" fill="#C04B41"/>
<path d="M20.5593 15V9.90909H22.3739C22.77 9.90909 23.0981 9.98118 23.3583 10.1254C23.6185 10.2695 23.8132 10.4667 23.9425 10.717C24.0717 10.9656 24.1364 11.2456 24.1364 11.5572C24.1364 11.8704 24.0709 12.1521 23.94 12.4023C23.8107 12.6509 23.6152 12.8481 23.3533 12.994C23.0932 13.1381 22.7659 13.2102 22.3714 13.2102H21.1236V12.5589H22.3018C22.5521 12.5589 22.7551 12.5159 22.9109 12.4297C23.0666 12.3419 23.181 12.2225 23.2539 12.0717C23.3268 11.9209 23.3633 11.7494 23.3633 11.5572C23.3633 11.3649 23.3268 11.1942 23.2539 11.0451C23.181 10.896 23.0658 10.7791 22.9084 10.6946C22.7526 10.6101 22.5471 10.5678 22.2919 10.5678H21.3274V15H20.5593ZM25.8604 9.90909V15H25.1172V9.90909H25.8604ZM28.1115 15.0845C27.8695 15.0845 27.6508 15.0398 27.4552 14.9503C27.2597 14.8591 27.1048 14.7274 26.9904 14.555C26.8777 14.3827 26.8214 14.1714 26.8214 13.9212C26.8214 13.7057 26.8628 13.5284 26.9457 13.3892C27.0285 13.25 27.1404 13.1398 27.2812 13.0586C27.4221 12.9774 27.5795 12.9161 27.7535 12.8746C27.9276 12.8332 28.1049 12.8017 28.2855 12.7802C28.5142 12.7537 28.6998 12.7321 28.8423 12.7156C28.9848 12.6973 29.0884 12.6683 29.153 12.6286C29.2177 12.5888 29.25 12.5241 29.25 12.4347V12.4173C29.25 12.2002 29.1887 12.032 29.066 11.9126C28.9451 11.7933 28.7644 11.7337 28.5241 11.7337C28.2739 11.7337 28.0767 11.7892 27.9325 11.9002C27.79 12.0096 27.6914 12.1314 27.6367 12.2656L26.9382 12.1065C27.0211 11.8745 27.142 11.6873 27.3011 11.5447C27.4619 11.4006 27.6467 11.2962 27.8555 11.2315C28.0643 11.1652 28.2838 11.1321 28.5142 11.1321C28.6667 11.1321 28.8282 11.1503 28.9989 11.1868C29.1713 11.2216 29.332 11.2862 29.4812 11.3807C29.632 11.4751 29.7554 11.6102 29.8516 11.7859C29.9477 11.9599 29.9957 12.1861 29.9957 12.4645V15H29.2699V14.478H29.2401C29.192 14.5741 29.1199 14.6686 29.0238 14.7614C28.9277 14.8542 28.8042 14.9312 28.6534 14.9925C28.5026 15.0539 28.322 15.0845 28.1115 15.0845ZM28.2731 14.4879C28.4786 14.4879 28.6542 14.4473 28.8001 14.3661C28.9476 14.2849 29.0594 14.1789 29.1356 14.0479C29.2135 13.9154 29.2525 13.7737 29.2525 13.6229V13.1307C29.226 13.1572 29.1746 13.1821 29.0984 13.2053C29.0238 13.2268 28.9384 13.2459 28.8423 13.2624C28.7462 13.2773 28.6526 13.2914 28.5614 13.3047C28.4703 13.3163 28.3941 13.3262 28.3327 13.3345C28.1886 13.3527 28.0568 13.3834 27.9375 13.4265C27.8198 13.4696 27.7254 13.5317 27.6541 13.6129C27.5845 13.6925 27.5497 13.7985 27.5497 13.9311C27.5497 14.1151 27.6177 14.2543 27.7535 14.3487C27.8894 14.4415 28.0626 14.4879 28.2731 14.4879ZM31.4588 16.4318C31.3478 16.4318 31.2467 16.4227 31.1555 16.4045C31.0644 16.3879 30.9964 16.3697 30.9517 16.3498L31.1307 15.7408C31.2666 15.7772 31.3875 15.793 31.4936 15.788C31.5997 15.783 31.6933 15.7433 31.7745 15.6687C31.8574 15.5941 31.9303 15.4723 31.9932 15.3033L32.0852 15.0497L30.6882 11.1818H31.4837L32.4506 14.1449H32.4904L33.4574 11.1818H34.2553L32.6818 15.5096C32.6089 15.7085 32.5161 15.8767 32.4034 16.0142C32.2907 16.1534 32.1565 16.2578 32.0007 16.3274C31.8449 16.397 31.6643 16.4318 31.4588 16.4318ZM35.9216 15L34.798 11.1818H35.5661L36.3144 13.9858H36.3516L37.1023 11.1818H37.8705L38.6162 13.9734H38.6535L39.3967 11.1818H40.1648L39.0438 15H38.2856L37.51 12.2433H37.4528L36.6773 15H35.9216ZM41.0102 15V11.1818H41.7286V11.7884H41.7684C41.838 11.5829 41.9606 11.4213 42.1363 11.3036C42.3136 11.1843 42.5141 11.1246 42.7378 11.1246C42.7842 11.1246 42.8389 11.1263 42.9019 11.1296C42.9665 11.1329 43.0171 11.1371 43.0535 11.142V11.853C43.0237 11.8447 42.9707 11.8356 42.8944 11.8256C42.8182 11.814 42.742 11.8082 42.6657 11.8082C42.4901 11.8082 42.3335 11.8455 42.1959 11.9201C42.06 11.993 41.9523 12.0949 41.8728 12.2259C41.7932 12.3551 41.7534 12.5026 41.7534 12.6683V15H41.0102ZM43.8367 15V11.1818H44.58V15H43.8367ZM44.2121 10.5927C44.0828 10.5927 43.9718 10.5496 43.879 10.4634C43.7878 10.3756 43.7423 10.2712 43.7423 10.1502C43.7423 10.0276 43.7878 9.92318 43.879 9.837C43.9718 9.74917 44.0828 9.70526 44.2121 9.70526C44.3413 9.70526 44.4515 9.74917 44.5427 9.837C44.6355 9.92318 44.6819 10.0276 44.6819 10.1502C44.6819 10.2712 44.6355 10.3756 44.5427 10.4634C44.4515 10.5496 44.3413 10.5927 44.2121 10.5927ZM47.3207 16.5114C47.0175 16.5114 46.7565 16.4716 46.5377 16.392C46.3206 16.3125 46.1433 16.2073 46.0057 16.0763C45.8682 15.9454 45.7655 15.8021 45.6975 15.6463L46.3364 15.3828C46.3811 15.4557 46.4408 15.5328 46.5153 15.614C46.5916 15.6969 46.6943 15.7673 46.8236 15.8253C46.9545 15.8833 47.1227 15.9123 47.3282 15.9123C47.6099 15.9123 47.8427 15.8435 48.0267 15.706C48.2106 15.5701 48.3026 15.353 48.3026 15.0547V14.304H48.2554C48.2106 14.3852 48.146 14.4755 48.0615 14.5749C47.9786 14.6744 47.8643 14.7605 47.7185 14.8335C47.5726 14.9064 47.3829 14.9428 47.1492 14.9428C46.8476 14.9428 46.5758 14.8724 46.3339 14.7315C46.0936 14.589 45.903 14.3794 45.7621 14.1026C45.6229 13.8242 45.5533 13.482 45.5533 13.076C45.5533 12.67 45.6221 12.322 45.7597 12.032C45.8989 11.742 46.0894 11.5199 46.3314 11.3658C46.5733 11.21 46.8476 11.1321 47.1542 11.1321C47.3912 11.1321 47.5826 11.1719 47.7284 11.2514C47.8742 11.3293 47.9878 11.4205 48.069 11.5249C48.1518 11.6293 48.2156 11.7212 48.2604 11.8008H48.315V11.1818H49.0434V15.0845C49.0434 15.4126 48.9672 15.6819 48.8147 15.8924C48.6622 16.1029 48.4559 16.2586 48.1957 16.3597C47.9372 16.4608 47.6455 16.5114 47.3207 16.5114ZM47.3133 14.3263C47.5271 14.3263 47.7077 14.2766 47.8552 14.1772C48.0043 14.0761 48.117 13.9319 48.1932 13.7447C48.2711 13.5558 48.3101 13.3295 48.3101 13.0661C48.3101 12.8092 48.272 12.583 48.1957 12.3874C48.1195 12.1919 48.0076 12.0394 47.8601 11.93C47.7127 11.819 47.5304 11.7635 47.3133 11.7635C47.0896 11.7635 46.9031 11.8215 46.754 11.9375C46.6048 12.0518 46.4921 12.2076 46.4159 12.4048C46.3413 12.602 46.304 12.8224 46.304 13.0661C46.304 13.3163 46.3422 13.5359 46.4184 13.7248C46.4946 13.9137 46.6073 14.0612 46.7565 14.1673C46.9073 14.2733 47.0929 14.3263 47.3133 14.3263ZM50.9234 12.733V15H50.1802V9.90909H50.9135V11.8033H50.9607C51.0502 11.5978 51.1869 11.4345 51.3709 11.3136C51.5548 11.1926 51.7951 11.1321 52.0918 11.1321C52.3536 11.1321 52.5823 11.186 52.7778 11.2937C52.9751 11.4014 53.1275 11.5621 53.2352 11.7759C53.3446 11.988 53.3993 12.2532 53.3993 12.5714V15H52.656V12.6609C52.656 12.3808 52.584 12.1637 52.4398 12.0096C52.2956 11.8538 52.0951 11.7759 51.8382 11.7759C51.6626 11.7759 51.5051 11.8132 51.3659 11.8878C51.2284 11.9624 51.1198 12.0717 51.0403 12.2159C50.9624 12.3584 50.9234 12.5308 50.9234 12.733ZM56.3134 11.1818V11.7784H54.2279V11.1818H56.3134ZM54.7872 10.267H55.5304V13.8789C55.5304 14.0231 55.552 14.1316 55.595 14.2045C55.6381 14.2758 55.6937 14.3247 55.7616 14.3512C55.8312 14.3761 55.9066 14.3885 55.9878 14.3885C56.0475 14.3885 56.0997 14.3844 56.1444 14.3761C56.1892 14.3678 56.224 14.3612 56.2488 14.3562L56.383 14.9702C56.34 14.9867 56.2786 15.0033 56.1991 15.0199C56.1196 15.0381 56.0201 15.0481 55.9008 15.0497C55.7053 15.053 55.523 15.0182 55.3539 14.9453C55.1849 14.8724 55.0482 14.7597 54.9438 14.6072C54.8394 14.4548 54.7872 14.2634 54.7872 14.033V10.267Z" fill="white"/>
<defs>
<linearGradient id="paint0_linear_19_72" x1="64.4766" y1="24" x2="1.23482" y2="0.654899" gradientUnits="userSpaceOnUse">
<stop stop-color="#6162A7"/>
<stop offset="1" stop-color="#FF5858"/>
</linearGradient>
</defs>
</svg>
