<svg width="46" height="24" viewBox="0 0 46 24" fill="none" xmlns="http://www.w3.org/2000/svg">
<rect width="46" height="24" rx="6" fill="white"/>
<g clip-path="url(#clip0_19_49)">
<path d="M12 13.0687C12.5903 13.0687 13.0688 12.5902 13.0688 12C13.0688 11.4097 12.5903 10.9312 12 10.9312C11.4098 10.9312 10.9313 11.4097 10.9313 12C10.9313 12.5902 11.4098 13.0687 12 13.0687Z" fill="#61DAFB"/>
<path d="M16.0594 10.2375C15.8531 10.1625 15.6375 10.0875 15.4125 10.0219C15.4688 9.79687 15.5156 9.57187 15.5531 9.35624C15.75 8.11874 15.5344 7.24687 14.9344 6.90937C14.7563 6.80624 14.5594 6.75937 14.3344 6.75937C13.6781 6.75937 12.8438 7.24687 12 8.06249C11.1563 7.24687 10.3219 6.75937 9.66563 6.75937C9.44063 6.75937 9.24376 6.80624 9.06563 6.90937C8.46563 7.25624 8.25001 8.12812 8.44688 9.35624C8.48438 9.57187 8.53126 9.79687 8.58751 10.0219C8.36251 10.0875 8.14688 10.1531 7.94063 10.2375C6.76876 10.6875 6.13126 11.3062 6.13126 12C6.13126 12.6937 6.77813 13.3125 7.94063 13.7625C8.14688 13.8375 8.36251 13.9125 8.58751 13.9781C8.53126 14.2031 8.48438 14.4281 8.44688 14.6437C8.25001 15.8812 8.46563 16.7531 9.06563 17.0906C9.24376 17.1937 9.44063 17.2406 9.66563 17.2406C10.3313 17.2406 11.1656 16.7531 12 15.9375C12.8438 16.7531 13.6781 17.2406 14.3344 17.2406C14.5594 17.2406 14.7563 17.1937 14.9344 17.0906C15.5344 16.7437 15.75 15.8719 15.5531 14.6437C15.5156 14.4281 15.4688 14.2031 15.4125 13.9781C15.6375 13.9125 15.8531 13.8469 16.0594 13.7625C17.2313 13.3125 17.8688 12.6937 17.8688 12C17.8688 11.3062 17.2313 10.6875 16.0594 10.2375ZM14.6719 7.37812C15.0563 7.60312 15.1875 8.29687 15.0281 9.28124C15 9.47812 14.9531 9.68437 14.8969 9.9C14.4094 9.7875 13.8938 9.71249 13.35 9.66562C13.0313 9.21562 12.7031 8.81249 12.375 8.44687C13.0688 7.76249 13.7719 7.29374 14.3438 7.29374C14.4656 7.29374 14.5781 7.32187 14.6719 7.37812ZM13.6219 12.9375C13.4531 13.2375 13.2563 13.5375 13.05 13.8375C12.7031 13.8656 12.3563 13.875 12 13.875C11.6344 13.875 11.2875 13.8656 10.95 13.8375C10.7438 13.5375 10.5563 13.2375 10.3875 12.9375C10.2094 12.6281 10.0406 12.3094 9.89063 12C10.0406 11.6906 10.2094 11.3719 10.3875 11.0625C10.5563 10.7625 10.7531 10.4625 10.9594 10.1625C11.3063 10.1344 11.6531 10.125 12.0094 10.125C12.375 10.125 12.7219 10.1344 13.0594 10.1625C13.2656 10.4625 13.4531 10.7625 13.6219 11.0625C13.8 11.3719 13.9688 11.6906 14.1188 12C13.9594 12.3094 13.8 12.6187 13.6219 12.9375ZM14.4 12.6281C14.5406 12.9562 14.6531 13.275 14.7563 13.5937C14.4375 13.6687 14.1 13.725 13.7438 13.7719C13.8563 13.5937 13.9781 13.4062 14.0813 13.2094C14.1938 13.0125 14.2969 12.8156 14.4 12.6281ZM12 15.1687C11.775 14.925 11.5594 14.6625 11.3531 14.3906C11.5688 14.4 11.7844 14.4094 12 14.4094C12.2156 14.4094 12.4313 14.4 12.6469 14.3906C12.4406 14.6625 12.225 14.925 12 15.1687ZM10.2563 13.7625C9.90001 13.7156 9.56251 13.6594 9.24376 13.5844C9.34688 13.275 9.45938 12.9469 9.60001 12.6187C9.70313 12.8062 9.80626 13.0031 9.91875 13.1906C10.0313 13.3969 10.1438 13.575 10.2563 13.7625ZM9.60001 11.3719C9.45938 11.0437 9.34688 10.725 9.24376 10.4062C9.56251 10.3312 9.90001 10.275 10.2563 10.2281C10.1438 10.4062 10.0219 10.5937 9.91875 10.7906C9.80626 10.9875 9.70313 11.1844 9.60001 11.3719ZM12 8.83124C12.225 9.07499 12.4406 9.33749 12.6469 9.60937C12.4313 9.59999 12.2156 9.59062 12 9.59062C11.7844 9.59062 11.5688 9.59999 11.3531 9.60937C11.5594 9.33749 11.775 9.07499 12 8.83124ZM14.0813 10.8L13.7438 10.2375C14.1 10.2844 14.4375 10.3406 14.7563 10.4156C14.6531 10.725 14.5406 11.0531 14.4 11.3812C14.2969 11.1844 14.1938 10.9875 14.0813 10.8ZM8.97188 9.28124C8.81251 8.29687 8.94376 7.60312 9.32813 7.37812C9.42188 7.32187 9.53438 7.29374 9.65626 7.29374C10.2188 7.29374 10.9219 7.75312 11.625 8.44687C11.2969 8.80312 10.9688 9.21562 10.65 9.66562C10.1063 9.71249 9.59063 9.79687 9.10313 9.9C9.04688 9.68437 9.00938 9.47812 8.97188 9.28124ZM6.65626 12C6.65626 11.5594 7.19063 11.0906 8.12813 10.7437C8.31563 10.6687 8.52188 10.6031 8.72813 10.5469C8.87813 11.0156 9.06563 11.5125 9.29063 12.0094C9.06563 12.5062 8.86876 12.9937 8.72813 13.4625C7.43438 13.0875 6.65626 12.525 6.65626 12ZM9.32813 16.6219C8.94376 16.3969 8.81251 15.7031 8.97188 14.7187C9.00001 14.5219 9.04688 14.3156 9.10313 14.1C9.59063 14.2125 10.1063 14.2875 10.65 14.3344C10.9688 14.7844 11.2969 15.1875 11.625 15.5531C10.9313 16.2375 10.2281 16.7062 9.65626 16.7062C9.53438 16.7062 9.42188 16.6781 9.32813 16.6219ZM15.0281 14.7187C15.1875 15.7031 15.0563 16.3969 14.6719 16.6219C14.5781 16.6781 14.4656 16.7062 14.3438 16.7062C13.7813 16.7062 13.0781 16.2469 12.375 15.5531C12.7031 15.1969 13.0313 14.7844 13.35 14.3344C13.8938 14.2875 14.4094 14.2031 14.8969 14.1C14.9531 14.3156 14.9906 14.5219 15.0281 14.7187ZM15.8719 13.2562C15.6844 13.3312 15.4781 13.3969 15.2719 13.4531C15.1219 12.9844 14.9344 12.4875 14.7094 11.9906C14.9344 11.4937 15.1313 11.0062 15.2719 10.5375C16.5656 10.9125 17.3438 11.475 17.3438 12C17.3438 12.4406 16.8 12.9094 15.8719 13.2562Z" fill="#61DAFB"/>
</g>
<path d="M20.5593 15V9.90909H22.3739C22.7683 9.90909 23.0956 9.97704 23.3558 10.1129C23.6177 10.2488 23.8132 10.4369 23.9425 10.6772C24.0717 10.9158 24.1364 11.1918 24.1364 11.505C24.1364 11.8165 24.0709 12.0908 23.94 12.3278C23.8107 12.5631 23.6152 12.7462 23.3533 12.8771C23.0932 13.008 22.7659 13.0735 22.3714 13.0735H20.9968V12.4123H22.3018C22.5504 12.4123 22.7526 12.3767 22.9084 12.3054C23.0658 12.2341 23.181 12.1306 23.2539 11.9947C23.3268 11.8588 23.3633 11.6955 23.3633 11.505C23.3633 11.3127 23.326 11.1462 23.2514 11.0053C23.1785 10.8645 23.0633 10.7567 22.9059 10.6822C22.7501 10.6059 22.5455 10.5678 22.2919 10.5678H21.3274V15H20.5593ZM23.0724 12.7031L24.3303 15H23.4553L22.2223 12.7031H23.0724ZM26.7491 15.0771C26.3729 15.0771 26.0489 14.9967 25.7772 14.8359C25.507 14.6735 25.2982 14.4457 25.1507 14.1523C25.0049 13.8574 24.932 13.5118 24.932 13.1158C24.932 12.7247 25.0049 12.38 25.1507 12.0817C25.2982 11.7834 25.5037 11.5505 25.7672 11.3832C26.0324 11.2158 26.3423 11.1321 26.6969 11.1321C26.9123 11.1321 27.1211 11.1677 27.3233 11.239C27.5255 11.3103 27.707 11.4221 27.8677 11.5746C28.0285 11.727 28.1552 11.9251 28.248 12.1687C28.3408 12.4106 28.3872 12.7048 28.3872 13.0511V13.3146H25.3521V12.7578H27.6589C27.6589 12.5623 27.6191 12.3891 27.5396 12.2383C27.46 12.0858 27.3482 11.9657 27.204 11.8778C27.0615 11.79 26.8941 11.7461 26.7019 11.7461C26.4931 11.7461 26.3108 11.7975 26.155 11.9002C26.0009 12.0013 25.8816 12.1339 25.797 12.2979C25.7142 12.4603 25.6728 12.6368 25.6728 12.8274V13.2624C25.6728 13.5176 25.7175 13.7347 25.807 13.9137C25.8981 14.0927 26.0249 14.2294 26.1873 14.3239C26.3497 14.4167 26.5395 14.4631 26.7566 14.4631C26.8974 14.4631 27.0259 14.4432 27.1419 14.4034C27.2579 14.362 27.3581 14.3007 27.4426 14.2195C27.5272 14.1383 27.5918 14.038 27.6365 13.9187L28.34 14.0455C28.2837 14.2526 28.1826 14.4341 28.0368 14.5898C27.8926 14.744 27.7111 14.8641 27.4924 14.9503C27.2753 15.0348 27.0275 15.0771 26.7491 15.0771ZM30.4631 15.0845C30.2211 15.0845 30.0024 15.0398 29.8068 14.9503C29.6113 14.8591 29.4563 14.7274 29.342 14.555C29.2293 14.3827 29.1729 14.1714 29.1729 13.9212C29.1729 13.7057 29.2144 13.5284 29.2972 13.3892C29.3801 13.25 29.4919 13.1398 29.6328 13.0586C29.7737 12.9774 29.9311 12.9161 30.1051 12.8746C30.2791 12.8332 30.4564 12.8017 30.6371 12.7802C30.8658 12.7537 31.0514 12.7321 31.1939 12.7156C31.3364 12.6973 31.44 12.6683 31.5046 12.6286C31.5692 12.5888 31.6016 12.5241 31.6016 12.4347V12.4173C31.6016 12.2002 31.5402 12.032 31.4176 11.9126C31.2966 11.7933 31.116 11.7337 30.8757 11.7337C30.6255 11.7337 30.4283 11.7892 30.2841 11.9002C30.1416 12.0096 30.043 12.1314 29.9883 12.2656L29.2898 12.1065C29.3726 11.8745 29.4936 11.6873 29.6527 11.5447C29.8134 11.4006 29.9982 11.2962 30.207 11.2315C30.4158 11.1652 30.6354 11.1321 30.8658 11.1321C31.0182 11.1321 31.1798 11.1503 31.3505 11.1868C31.5228 11.2216 31.6836 11.2862 31.8327 11.3807C31.9835 11.4751 32.107 11.6102 32.2031 11.7859C32.2992 11.9599 32.3473 12.1861 32.3473 12.4645V15H31.6214V14.478H31.5916C31.5436 14.5741 31.4715 14.6686 31.3753 14.7614C31.2792 14.8542 31.1558 14.9312 31.005 14.9925C30.8542 15.0539 30.6735 15.0845 30.4631 15.0845ZM30.6246 14.4879C30.8301 14.4879 31.0058 14.4473 31.1516 14.3661C31.2991 14.2849 31.411 14.1789 31.4872 14.0479C31.5651 13.9154 31.604 13.7737 31.604 13.6229V13.1307C31.5775 13.1572 31.5262 13.1821 31.4499 13.2053C31.3753 13.2268 31.29 13.2459 31.1939 13.2624C31.0978 13.2773 31.0041 13.2914 30.913 13.3047C30.8218 13.3163 30.7456 13.3262 30.6843 13.3345C30.5401 13.3527 30.4084 13.3834 30.2891 13.4265C30.1714 13.4696 30.0769 13.5317 30.0057 13.6129C29.9361 13.6925 29.9013 13.7985 29.9013 13.9311C29.9013 14.1151 29.9692 14.2543 30.1051 14.3487C30.241 14.4415 30.4142 14.4879 30.6246 14.4879ZM35.0856 15.0771C34.716 15.0771 34.3978 14.9934 34.131 14.826C33.8659 14.657 33.662 14.4241 33.5195 14.1275C33.377 13.8308 33.3057 13.4911 33.3057 13.1083C33.3057 12.7205 33.3787 12.3783 33.5245 12.0817C33.6703 11.7834 33.8758 11.5505 34.141 11.3832C34.4061 11.2158 34.7185 11.1321 35.0781 11.1321C35.3681 11.1321 35.6266 11.186 35.8537 11.2937C36.0807 11.3997 36.2638 11.5489 36.403 11.7411C36.5439 11.9334 36.6276 12.1579 36.6541 12.4148H35.9307C35.891 12.2358 35.7998 12.0817 35.6573 11.9524C35.5164 11.8232 35.3275 11.7585 35.0905 11.7585C34.8834 11.7585 34.7019 11.8132 34.5462 11.9226C34.392 12.0303 34.2719 12.1844 34.1857 12.3849C34.0995 12.5838 34.0565 12.8191 34.0565 13.0909C34.0565 13.3693 34.0987 13.6096 34.1832 13.8118C34.2677 14.014 34.3871 14.1706 34.5412 14.2816C34.697 14.3926 34.8801 14.4482 35.0905 14.4482C35.2314 14.4482 35.359 14.4225 35.4734 14.3711C35.5894 14.3181 35.6863 14.2427 35.7642 14.1449C35.8437 14.0471 35.8993 13.9295 35.9307 13.7919H36.6541C36.6276 14.0388 36.5472 14.2592 36.413 14.4531C36.2788 14.647 36.0989 14.7995 35.8736 14.9105C35.6498 15.0215 35.3872 15.0771 35.0856 15.0771ZM39.3713 11.1818V11.7784H37.2857V11.1818H39.3713ZM37.845 10.267H38.5882V13.8789C38.5882 14.0231 38.6098 14.1316 38.6529 14.2045C38.6959 14.2758 38.7515 14.3247 38.8194 14.3512C38.889 14.3761 38.9644 14.3885 39.0456 14.3885C39.1053 14.3885 39.1575 14.3844 39.2022 14.3761C39.247 14.3678 39.2818 14.3612 39.3066 14.3562L39.4409 14.9702C39.3978 14.9867 39.3365 15.0033 39.2569 15.0199C39.1774 15.0381 39.0779 15.0481 38.9586 15.0497C38.7631 15.053 38.5808 15.0182 38.4117 14.9453C38.2427 14.8724 38.106 14.7597 38.0016 14.6072C37.8972 14.4548 37.845 14.2634 37.845 14.033V10.267Z" fill="black"/>
<defs>
<clipPath id="clip0_19_49">
<rect width="12" height="12" fill="white" transform="translate(6 6)"/>
</clipPath>
</defs>
</svg>
