<svg width="66" height="35" viewBox="0 0 66 35" fill="none" xmlns="http://www.w3.org/2000/svg">
<rect width="65.3815" height="34.1121" rx="8.52802" fill="white"/>
<g clip-path="url(#clip0_19_49)">
<path d="M17.056 18.5751C17.895 18.5751 18.5751 17.895 18.5751 17.056C18.5751 16.2171 17.895 15.537 17.056 15.537C16.2171 15.537 15.537 16.2171 15.537 17.056C15.537 17.895 16.2171 18.5751 17.056 18.5751Z" fill="#61DAFB"/>
<path d="M22.8258 14.5509C22.5326 14.4443 22.2262 14.3377 21.9063 14.2445C21.9863 13.9247 22.0529 13.6049 22.1062 13.2984C22.3861 11.5395 22.0796 10.3002 21.2268 9.82055C20.9736 9.67397 20.6938 9.60735 20.374 9.60735C19.4412 9.60735 18.2553 10.3002 17.056 11.4595C15.8568 10.3002 14.6709 9.60735 13.7381 9.60735C13.4183 9.60735 13.1385 9.67397 12.8853 9.82055C12.0325 10.3136 11.726 11.5528 12.0059 13.2984C12.0592 13.6049 12.1258 13.9247 12.2057 14.2445C11.8859 14.3377 11.5795 14.431 11.2863 14.5509C9.62067 15.1905 8.71457 16.07 8.71457 17.056C8.71457 18.0421 9.634 18.9215 11.2863 19.5611C11.5795 19.6678 11.8859 19.7743 12.2057 19.8676C12.1258 20.1874 12.0592 20.5072 12.0059 20.8137C11.726 22.5726 12.0325 23.8118 12.8853 24.2915C13.1385 24.4381 13.4183 24.5047 13.7381 24.5047C14.6842 24.5047 15.8701 23.8118 17.056 22.6526C18.2553 23.8118 19.4412 24.5047 20.374 24.5047C20.6938 24.5047 20.9736 24.4381 21.2268 24.2915C22.0796 23.7985 22.3861 22.5593 22.1062 20.8137C22.0529 20.5072 21.9863 20.1874 21.9063 19.8676C22.2262 19.7743 22.5326 19.6811 22.8258 19.5611C24.4914 18.9215 25.3975 18.0421 25.3975 17.056C25.3975 16.07 24.4914 15.1905 22.8258 14.5509ZM20.8537 10.4868C21.4 10.8066 21.5865 11.7927 21.36 13.1918C21.32 13.4716 21.2534 13.7648 21.1735 14.0712C20.4806 13.9113 19.7477 13.8047 18.9748 13.7381C18.5218 13.0985 18.0554 12.5255 17.589 12.0059C18.5751 11.0331 19.5745 10.3669 20.3873 10.3669C20.5605 10.3669 20.7204 10.4068 20.8537 10.4868ZM19.3613 18.3885C19.1214 18.8149 18.8416 19.2413 18.5484 19.6677C18.0554 19.7077 17.5624 19.7211 17.056 19.7211C16.5364 19.7211 16.0433 19.7077 15.5636 19.6677C15.2705 19.2413 15.004 18.8149 14.7641 18.3885C14.511 17.9488 14.2711 17.4958 14.0579 17.056C14.2711 16.6163 14.511 16.1633 14.7641 15.7235C15.004 15.2971 15.2838 14.8707 15.577 14.4443C16.07 14.4044 16.563 14.391 17.0694 14.391C17.589 14.391 18.0821 14.4044 18.5618 14.4443C18.8549 14.8707 19.1214 15.2971 19.3613 15.7235C19.6144 16.1633 19.8543 16.6163 20.0675 17.056C19.841 17.4958 19.6144 17.9355 19.3613 18.3885ZM20.4672 17.9488C20.6671 18.4152 20.827 18.8682 20.9736 19.3213C20.5205 19.4279 20.0408 19.5078 19.5345 19.5745C19.6944 19.3213 19.8676 19.0548 20.0142 18.775C20.1741 18.4951 20.3207 18.2153 20.4672 17.9488ZM17.056 21.5599C16.7362 21.2135 16.4298 20.8404 16.1366 20.4539C16.4431 20.4673 16.7496 20.4806 17.056 20.4806C17.3625 20.4806 17.669 20.4673 17.9755 20.4539C17.6823 20.8404 17.3758 21.2135 17.056 21.5599ZM14.5776 19.5611C14.0712 19.4945 13.5915 19.4146 13.1385 19.308C13.2851 18.8682 13.445 18.4019 13.6448 17.9355C13.7914 18.202 13.938 18.4818 14.0979 18.7483C14.2578 19.0415 14.4177 19.2946 14.5776 19.5611ZM13.6448 16.1633C13.445 15.6969 13.2851 15.2438 13.1385 14.7908C13.5915 14.6842 14.0712 14.6042 14.5776 14.5376C14.4177 14.7908 14.2445 15.0573 14.0979 15.3371C13.938 15.6169 13.7914 15.8968 13.6448 16.1633ZM17.056 12.5522C17.3758 12.8986 17.6823 13.2717 17.9755 13.6582C17.669 13.6448 17.3625 13.6315 17.056 13.6315C16.7496 13.6315 16.4431 13.6448 16.1366 13.6582C16.4298 13.2717 16.7362 12.8986 17.056 12.5522ZM20.0142 15.3504L19.5345 14.5509C20.0408 14.6176 20.5205 14.6975 20.9736 14.8041C20.827 15.2438 20.6671 15.7102 20.4672 16.1766C20.3207 15.8968 20.1741 15.6169 20.0142 15.3504ZM12.7521 13.1918C12.5255 11.7927 12.7121 10.8066 13.2584 10.4868C13.3917 10.4068 13.5516 10.3669 13.7248 10.3669C14.5243 10.3669 15.5237 11.0198 16.523 12.0059C16.0567 12.5122 15.5903 13.0985 15.1372 13.7381C14.3644 13.8047 13.6315 13.9247 12.9386 14.0712C12.8587 13.7648 12.8054 13.4716 12.7521 13.1918ZM9.46077 17.056C9.46077 16.4298 10.2203 15.7635 11.5528 15.2705C11.8193 15.1639 12.1125 15.0706 12.4056 14.9907C12.6188 15.6569 12.8853 16.3631 13.2051 17.0694C12.8853 17.7756 12.6055 18.4685 12.4056 19.1347C10.5667 18.6017 9.46077 17.8022 9.46077 17.056ZM13.2584 23.6253C12.7121 23.3055 12.5255 22.3194 12.7521 20.9203C12.792 20.6405 12.8587 20.3473 12.9386 20.0409C13.6315 20.2008 14.3644 20.3074 15.1372 20.374C15.5903 21.0136 16.0567 21.5866 16.523 22.1062C15.537 23.079 14.5376 23.7452 13.7248 23.7452C13.5516 23.7452 13.3917 23.7052 13.2584 23.6253ZM21.36 20.9203C21.5865 22.3194 21.4 23.3055 20.8537 23.6253C20.7204 23.7052 20.5605 23.7452 20.3873 23.7452C19.5878 23.7452 18.5884 23.0923 17.589 22.1062C18.0554 21.5999 18.5218 21.0136 18.9748 20.374C19.7477 20.3074 20.4806 20.1874 21.1735 20.0409C21.2534 20.3473 21.3067 20.6405 21.36 20.9203ZM22.5593 18.8416C22.2928 18.9482 21.9996 19.0415 21.7065 19.1214C21.4933 18.4552 21.2268 17.7489 20.907 17.0427C21.2268 16.3365 21.5066 15.6436 21.7065 14.9773C23.5453 15.5103 24.6513 16.3098 24.6513 17.056C24.6513 17.6823 23.8785 18.3486 22.5593 18.8416Z" fill="#61DAFB"/>
</g>
<path d="M29.2217 21.056V13.8201H31.8009C32.3615 13.8201 32.8267 13.9167 33.1965 14.1099C33.5686 14.303 33.8466 14.5704 34.0303 14.9119C34.214 15.2511 34.3059 15.6433 34.3059 16.0884C34.3059 16.5313 34.2129 16.9211 34.0268 17.2579C33.8431 17.5924 33.5651 17.8527 33.193 18.0387C32.8231 18.2248 32.3579 18.3179 31.7974 18.3179H29.8435V17.378H31.6984C32.0517 17.378 32.3391 17.3274 32.5605 17.2261C32.7843 17.1248 32.948 16.9776 33.0516 16.7845C33.1553 16.5913 33.2071 16.3593 33.2071 16.0884C33.2071 15.8152 33.1541 15.5785 33.0481 15.3783C32.9445 15.1781 32.7807 15.025 32.557 14.919C32.3356 14.8106 32.0447 14.7564 31.6843 14.7564H30.3134V21.056H29.2217ZM32.7937 17.7914L34.5815 21.056H33.3378L31.5854 17.7914H32.7937ZM38.0195 21.1656C37.4848 21.1656 37.0243 21.0513 36.638 20.8229C36.2541 20.592 35.9573 20.2682 35.7477 19.8512C35.5404 19.432 35.4367 18.9409 35.4367 18.3779C35.4367 17.822 35.5404 17.3321 35.7477 16.9081C35.9573 16.4841 36.2494 16.1532 36.6239 15.9153C37.0008 15.6774 37.4412 15.5585 37.9453 15.5585C38.2515 15.5585 38.5483 15.6091 38.8356 15.7104C39.123 15.8117 39.3809 15.9707 39.6094 16.1874C39.8379 16.4041 40.0181 16.6855 40.15 17.0318C40.2819 17.3757 40.3478 17.7938 40.3478 18.2861V18.6606H36.0339V17.8691H39.3126C39.3126 17.5912 39.2561 17.3451 39.143 17.1307C39.03 16.914 38.871 16.7432 38.6661 16.6184C38.4635 16.4936 38.2256 16.4311 37.9524 16.4311C37.6556 16.4311 37.3965 16.5042 37.1751 16.6502C36.956 16.7939 36.7864 16.9823 36.6663 17.2155C36.5485 17.4463 36.4896 17.6972 36.4896 17.9681V18.5864C36.4896 18.9491 36.5532 19.2577 36.6804 19.5121C36.81 19.7664 36.9902 19.9608 37.221 20.095C37.4518 20.2269 37.7215 20.2929 38.0301 20.2929C38.2303 20.2929 38.4128 20.2646 38.5777 20.2081C38.7426 20.1492 38.8851 20.0621 39.0052 19.9466C39.1254 19.8312 39.2172 19.6887 39.2808 19.5191L40.2807 19.6993C40.2006 19.9937 40.0569 20.2517 39.8497 20.4731C39.6447 20.6921 39.3868 20.8629 39.0759 20.9854C38.7673 21.1055 38.4152 21.1656 38.0195 21.1656ZM43.2983 21.1762C42.9544 21.1762 42.6435 21.1126 42.3655 20.9854C42.0876 20.8558 41.8673 20.6686 41.7048 20.4236C41.5446 20.1786 41.4646 19.8783 41.4646 19.5227C41.4646 19.2165 41.5234 18.9644 41.6412 18.7666C41.759 18.5687 41.918 18.4121 42.1182 18.2967C42.3184 18.1812 42.5422 18.0941 42.7895 18.0352C43.0368 17.9763 43.2888 17.9316 43.5456 17.9009C43.8706 17.8633 44.1344 17.8326 44.337 17.8091C44.5396 17.7832 44.6868 17.7419 44.7787 17.6854C44.8705 17.6289 44.9164 17.537 44.9164 17.4098V17.3851C44.9164 17.0765 44.8293 16.8375 44.655 16.6679C44.483 16.4983 44.2263 16.4135 43.8848 16.4135C43.5291 16.4135 43.2488 16.4924 43.0439 16.6502C42.8413 16.8057 42.7012 16.9788 42.6234 17.1696L41.6306 16.9435C41.7484 16.6137 41.9203 16.3475 42.1465 16.145C42.3749 15.94 42.6376 15.7916 42.9343 15.6998C43.2311 15.6056 43.5432 15.5585 43.8706 15.5585C44.0873 15.5585 44.317 15.5844 44.5596 15.6362C44.8046 15.6857 45.033 15.7775 45.245 15.9118C45.4594 16.046 45.6349 16.238 45.7715 16.4877C45.9081 16.735 45.9764 17.0565 45.9764 17.4522V21.056H44.9447V20.3141H44.9023C44.834 20.4507 44.7315 20.585 44.5949 20.7169C44.4583 20.8488 44.2828 20.9583 44.0685 21.0454C43.8541 21.1326 43.5974 21.1762 43.2983 21.1762ZM43.5279 20.3282C43.82 20.3282 44.0697 20.2705 44.2769 20.1551C44.4866 20.0397 44.6456 19.8889 44.7539 19.7028C44.8646 19.5144 44.92 19.313 44.92 19.0987V18.3991C44.8823 18.4368 44.8093 18.4721 44.7009 18.5051C44.5949 18.5357 44.4736 18.5628 44.337 18.5864C44.2004 18.6076 44.0673 18.6276 43.9378 18.6464C43.8082 18.6629 43.6999 18.6771 43.6127 18.6888C43.4078 18.7147 43.2205 18.7583 43.0509 18.8196C42.8837 18.8808 42.7494 18.9691 42.6482 19.0845C42.5492 19.1976 42.4998 19.3484 42.4998 19.5368C42.4998 19.7982 42.5963 19.9961 42.7895 20.1304C42.9826 20.2623 43.2288 20.3282 43.5279 20.3282ZM49.8684 21.1656C49.3431 21.1656 48.8909 21.0466 48.5117 20.8087C48.1348 20.5685 47.8451 20.2375 47.6425 19.8159C47.44 19.3943 47.3387 18.9114 47.3387 18.3673C47.3387 17.8161 47.4423 17.3297 47.6496 16.9081C47.8569 16.4841 48.1489 16.1532 48.5258 15.9153C48.9027 15.6774 49.3467 15.5585 49.8578 15.5585C50.27 15.5585 50.6375 15.635 50.9601 15.7881C51.2828 15.9389 51.5431 16.1509 51.741 16.4241C51.9412 16.6973 52.0601 17.0165 52.0978 17.3816H51.0697C51.0131 17.1272 50.8836 16.9081 50.681 16.7244C50.4808 16.5407 50.2123 16.4488 49.8755 16.4488C49.581 16.4488 49.3231 16.5265 49.1017 16.682C48.8827 16.8351 48.7119 17.0542 48.5894 17.3392C48.4669 17.6218 48.4057 17.9563 48.4057 18.3426C48.4057 18.7383 48.4657 19.0798 48.5859 19.3672C48.706 19.6546 48.8756 19.8772 49.0946 20.035C49.3161 20.1928 49.5763 20.2717 49.8755 20.2717C50.0757 20.2717 50.2571 20.2352 50.4196 20.1622C50.5845 20.0868 50.7223 19.9796 50.833 19.8406C50.946 19.7017 51.0249 19.5344 51.0697 19.3389H52.0978C52.0601 19.6899 51.9459 20.0032 51.7551 20.2788C51.5643 20.5543 51.3088 20.771 50.9884 20.9289C50.6704 21.0867 50.2971 21.1656 49.8684 21.1656ZM55.9598 15.6291V16.4771H52.9955V15.6291H55.9598ZM53.7905 14.3289H54.8469V19.4626C54.8469 19.6675 54.8775 19.8218 54.9387 19.9254C55 20.0267 55.0789 20.0962 55.1754 20.1339C55.2744 20.1692 55.3816 20.1869 55.497 20.1869C55.5818 20.1869 55.656 20.181 55.7196 20.1692C55.7832 20.1574 55.8326 20.148 55.8679 20.141L56.0587 21.0136C55.9975 21.0372 55.9103 21.0608 55.7973 21.0843C55.6842 21.1102 55.5429 21.1244 55.3733 21.1267C55.0954 21.1314 54.8363 21.082 54.596 20.9783C54.3558 20.8747 54.1614 20.7145 54.013 20.4978C53.8646 20.2811 53.7905 20.0091 53.7905 19.6816V14.3289Z" fill="black"/>
<defs>
<clipPath id="clip0_19_49">
<rect width="17.056" height="17.056" fill="white" transform="translate(8.52802 8.52802)"/>
</clipPath>
</defs>
</svg>
