<svg width="100" height="35" viewBox="0 0 100 35" fill="none" xmlns="http://www.w3.org/2000/svg">
<rect width="99.4936" height="34.1121" rx="8.52802" fill="white"/>
<g clip-path="url(#clip0_19_30)">
<path fill-rule="evenodd" clip-rule="evenodd" d="M8.69046 16.0108C8.69046 16.1045 8.71804 16.1663 8.7335 16.2264C8.83424 16.6172 9.05077 16.9526 9.30768 17.2586C9.67358 17.6946 10.1217 18.0456 10.5807 18.3756C10.9789 18.6618 11.3852 18.9417 11.7849 19.2258C11.8536 19.2745 11.9184 19.3306 11.9929 19.3905C11.9288 19.4251 11.8755 19.4556 11.8201 19.4837C11.2926 19.7513 10.785 20.0512 10.3172 20.4146C10.0352 20.6337 9.76259 20.8665 9.57005 21.1707C9.26024 21.66 9.15057 22.1812 9.3815 22.7378C9.44892 22.9004 9.55179 23.0408 9.6969 23.1446C9.74394 23.1782 9.7967 23.2115 9.85174 23.2246C9.99272 23.2578 10.1364 23.2795 10.2791 23.3057L10.6832 23.3055C11.1301 23.2656 11.537 23.1125 11.9046 22.8588C12.4792 22.4623 12.8663 21.9306 13.0327 21.2482C13.1537 20.7523 13.1586 20.2558 13.016 19.7621C13.0024 19.7164 12.9866 19.6713 12.9689 19.627C12.9515 19.5826 12.9312 19.5394 12.9072 19.4841L13.8234 18.9573L13.8371 18.969C13.8205 19.0235 13.8027 19.0778 13.7877 19.1329C13.6788 19.5305 13.6065 19.935 13.6324 20.3477C13.6602 20.7875 13.7829 21.1991 14.0403 21.5664C14.2485 21.8636 14.7444 21.8746 14.9656 21.5764C15.0441 21.4705 15.1202 21.3598 15.1774 21.2416C15.3267 20.9331 15.465 20.6192 15.6077 20.3073L15.6327 20.2503C15.6224 20.398 15.6104 20.5276 15.605 20.6574C15.5964 20.8601 15.6083 21.0615 15.6776 21.2544C15.7369 21.4193 15.8377 21.5426 16.0267 21.5643C16.1559 21.5791 16.2589 21.5199 16.354 21.4449C16.5011 21.3286 16.6231 21.1836 16.7125 21.0186C16.9658 20.5535 17.2259 20.0911 17.4555 19.6142C17.7039 19.0984 17.9211 18.5675 18.1518 18.0429L18.1899 17.9499C18.2444 18.164 18.2823 18.3738 18.3523 18.5723C18.4336 18.8027 18.5342 19.0276 18.6437 19.2463C18.6956 19.3495 18.6896 19.4166 18.6177 19.5032C18.3171 19.8656 18.0217 20.2325 17.726 20.5989C17.6606 20.6798 17.5954 20.7621 17.5409 20.8505C17.5079 20.9063 17.4861 20.968 17.477 21.0322C17.4678 21.0913 17.4819 21.1517 17.5162 21.2007C17.5506 21.2496 17.6026 21.2834 17.6613 21.2949C17.7797 21.3204 17.9012 21.329 18.0221 21.3206C18.4348 21.2902 18.8095 21.1454 19.1407 20.8999C19.5699 20.582 19.7077 20.1481 19.6038 19.6339C19.5757 19.4944 19.526 19.3587 19.4776 19.2243C19.4559 19.1637 19.4544 19.1212 19.494 19.0647C19.8371 18.5747 20.1303 18.0549 20.4029 17.5231C20.4137 17.5022 20.4247 17.4812 20.4437 17.4589C20.532 17.9186 20.665 18.3616 20.9032 18.7636C20.7817 18.8808 20.6614 18.987 20.5525 19.104C20.3128 19.3617 20.1049 19.6415 19.9965 19.9828C19.9498 20.1299 19.914 20.2794 19.9348 20.4365C19.967 20.6805 20.1669 20.839 20.4069 20.7835C20.9204 20.6646 21.3638 20.4226 21.6877 19.9939C21.9057 19.7053 21.9255 19.3834 21.8343 19.0461C21.8092 18.9545 21.7795 18.8642 21.7475 18.7591C21.8742 18.7198 21.9978 18.6726 22.1256 18.6435C22.789 18.4921 23.4453 18.5185 24.0846 18.758C24.4578 18.898 24.7594 19.1321 24.9382 19.5004C25.1566 19.9506 25.0359 20.3778 24.6115 20.6625C24.5719 20.689 24.5266 20.7099 24.4938 20.7431C24.4833 20.7552 24.4755 20.7695 24.4708 20.7848C24.4661 20.8002 24.4646 20.8164 24.4665 20.8324C24.4693 20.8487 24.5126 20.8693 24.5375 20.869C24.677 20.8679 24.7902 20.7948 24.8988 20.7196C25.1709 20.5313 25.3694 20.278 25.4122 19.9445L25.4206 19.9195L25.4103 19.7023C25.4062 19.6897 25.4134 19.6773 25.4124 19.6679C25.3546 19.1822 25.0952 18.8055 24.7178 18.5102C24.2807 18.1684 23.7647 18.0277 23.2189 18.0055C22.7762 17.9864 22.3341 18.0544 21.9177 18.2057C21.7982 18.249 21.6797 18.3003 21.5595 18.3487C21.5434 18.3195 21.5261 18.2915 21.5118 18.2626C21.3884 18.01 21.2389 17.7685 21.2059 17.4788C21.1824 17.2731 21.1536 17.0676 21.2025 16.8642C21.2496 16.6684 21.3109 16.476 21.3686 16.2829C21.3983 16.1835 21.3774 16.1278 21.2825 16.083C21.2494 16.0666 21.2141 16.055 21.1777 16.0487C20.9446 16.0148 20.7146 16.0341 20.4887 16.0998C20.4088 16.1232 20.3507 16.1679 20.3329 16.2564C20.3228 16.3072 20.3022 16.3558 20.2878 16.4059C20.2287 16.6142 20.1869 16.8265 20.0915 17.0249C19.8524 17.5226 19.5795 18.0015 19.3002 18.4769C19.27 18.5282 19.2382 18.5786 19.2 18.6408C19.102 18.4356 18.9974 18.2514 18.9657 18.0356C18.9298 17.7914 18.9016 17.5477 18.9623 17.3055C19.0075 17.1248 19.0665 16.9474 19.1209 16.7692C19.1466 16.6844 19.1348 16.6399 19.058 16.5953C19.0192 16.5727 18.9754 16.5528 18.9317 16.5462C18.6926 16.5098 18.4483 16.5298 18.2183 16.6046C18.1459 16.628 18.1079 16.6748 18.0858 16.7494C18.0208 16.9696 17.9653 17.195 17.8741 17.4044C17.5044 18.2518 17.1241 19.0949 16.7442 19.9378C16.665 20.1139 16.5721 20.2838 16.4827 20.4551C16.46 20.4986 16.427 20.5368 16.3987 20.5776C16.3761 20.5508 16.3673 20.5324 16.3674 20.514C16.3681 20.4057 16.3552 20.2942 16.3758 20.1894C16.4392 19.8727 16.5093 19.5573 16.5861 19.2435C16.6487 18.9842 16.7216 18.7273 16.791 18.4697C16.8143 18.3835 16.8147 18.3029 16.7528 18.2304C16.6487 18.109 16.4312 18.0823 16.3022 18.1759L16.2452 18.2081L16.2563 18.1162C16.2835 17.9191 16.2889 17.7227 16.2348 17.5285C16.1674 17.2866 15.9947 17.1473 15.7437 17.155C15.6267 17.1586 15.5038 17.1786 15.3955 17.2213C14.9399 17.3998 14.5896 17.716 14.2914 18.0965C14.2637 18.1318 14.2295 18.1614 14.1905 18.1836C13.805 18.3973 13.4183 18.6084 13.0318 18.8203L12.6015 19.056C12.4861 18.9459 12.3812 18.8317 12.2622 18.7349C11.8989 18.4385 11.5296 18.1495 11.1637 17.8565C10.8394 17.5968 10.5252 17.3263 10.2848 16.9824C10.106 16.7265 9.99072 16.4466 9.97966 16.1302C9.96567 15.7271 10.08 15.3588 10.2852 15.016C10.5477 14.5773 10.9057 14.2253 11.2994 13.9064C11.7158 13.5693 12.1662 13.2831 12.6329 13.0218C13.286 12.6562 13.9577 12.3327 14.6779 12.1191C15.4164 11.9001 16.1657 11.7747 16.9385 11.8621C17.2423 11.8965 17.5373 11.966 17.8082 12.1146C18.0157 12.2283 18.1859 12.3771 18.265 12.6097C18.3431 12.8387 18.3407 13.0707 18.2866 13.3032C18.1767 13.7741 17.9188 14.1622 17.5944 14.5091C17.0622 15.0777 16.413 15.4648 15.6821 15.7205C15.2619 15.8677 14.8246 15.961 14.3809 15.998C14.0173 16.0285 13.6612 15.9963 13.3169 15.8698C13.0889 15.786 12.8904 15.6578 12.7307 15.4718C12.7022 15.4385 12.6657 15.4024 12.6125 15.4336C12.5604 15.4642 12.5513 15.5138 12.5687 15.564C12.5979 15.6475 12.6248 15.7343 12.6702 15.809C12.7844 15.9962 12.951 16.132 13.1344 16.2484C13.4865 16.4724 13.8802 16.5477 14.2883 16.5651C14.9077 16.5919 15.5119 16.4995 16.1077 16.3333C16.9582 16.0961 17.6978 15.6772 18.2909 15.0162C18.7847 14.4659 19.1374 13.8448 19.213 13.0949C19.2499 12.7289 19.2106 12.3703 19.0392 12.0364C18.8533 11.6746 18.5578 11.4056 18.2044 11.2202C17.6898 10.9504 17.1344 10.7933 16.5612 10.7933H15.9868C15.2926 10.7933 14.6214 10.9922 13.969 11.2295C13.4752 11.4093 12.991 11.6214 12.5209 11.8562C11.4971 12.3678 10.5437 12.9846 9.76059 13.8327C9.37044 14.2553 9.04011 14.7215 8.85009 15.2705C8.79274 15.4344 8.74334 15.601 8.70205 15.7696M12.4116 20.5684C12.3672 21.1625 12.0979 21.6442 11.6578 22.0344C11.4102 22.2537 11.1263 22.4099 10.7955 22.4648C10.6756 22.4847 10.5529 22.4895 10.4366 22.4398C10.2707 22.3689 10.2335 22.2216 10.2303 22.0648C10.2254 21.8148 10.3129 21.5888 10.433 21.3738C10.5897 21.0934 10.8194 20.8797 11.0647 20.68C11.4511 20.3654 11.8703 20.0992 12.2997 19.8479L12.3321 19.8346C12.3984 20.0798 12.43 20.3219 12.4116 20.5684ZM15.7639 17.9861C15.7326 18.1759 15.6934 18.3658 15.638 18.5496C15.4464 19.1862 15.2003 19.803 14.9342 20.4116C14.885 20.5241 14.8134 20.6269 14.7512 20.7336C14.7406 20.75 14.728 20.765 14.7135 20.7781C14.6365 20.8542 14.5635 20.8502 14.5246 20.7507C14.4793 20.635 14.4514 20.5112 14.4274 20.3888C14.4113 20.3065 14.4152 20.2202 14.4101 20.136C14.4153 19.5372 14.598 18.993 14.9079 18.4864C15.0357 18.2774 15.1748 18.0783 15.3874 17.9462C15.4535 17.905 15.525 17.8734 15.5999 17.8521C15.7132 17.8202 15.7827 17.8726 15.7639 17.9861ZM18.051 20.9L18.873 19.9402C18.9073 20.2967 18.3014 21.0082 18.051 20.9ZM20.6765 20.2542C20.6184 20.2875 20.5551 20.3115 20.4955 20.3423C20.441 20.3705 20.423 20.342 20.4214 20.2951C20.4206 20.2626 20.4248 20.2302 20.4338 20.199C20.5448 19.8075 20.7491 19.4733 21.053 19.2015L21.0743 19.1906C21.2189 19.595 21.0518 20.0391 20.6765 20.2542Z" fill="#CB6699"/>
</g>
<path d="M33.1682 15.721C33.1305 15.3865 32.9751 15.1274 32.7019 14.9437C32.4286 14.7576 32.0847 14.6646 31.6702 14.6646C31.3734 14.6646 31.1166 14.7117 30.8999 14.8059C30.6832 14.8978 30.5148 15.0249 30.3947 15.1875C30.2769 15.3476 30.2181 15.5302 30.2181 15.7351C30.2181 15.9071 30.2581 16.0555 30.3382 16.1803C30.4206 16.3051 30.5278 16.4099 30.6597 16.4947C30.794 16.5772 30.9376 16.6467 31.0907 16.7032C31.2438 16.7574 31.3911 16.8021 31.5324 16.8375L32.239 17.0212C32.4698 17.0777 32.7066 17.1543 32.9492 17.2508C33.1918 17.3474 33.4167 17.4746 33.624 17.6324C33.8313 17.7902 33.9985 17.9857 34.1257 18.2189C34.2553 18.4521 34.32 18.7312 34.32 19.0563C34.32 19.4661 34.214 19.83 34.0021 20.148C33.7924 20.466 33.4874 20.7169 33.087 20.9006C32.6889 21.0843 32.2072 21.1762 31.6419 21.1762C31.1002 21.1762 30.6314 21.0902 30.2357 20.9182C29.84 20.7463 29.5303 20.5025 29.3065 20.1869C29.0827 19.8689 28.9591 19.492 28.9355 19.0563H30.0308C30.052 19.3177 30.1368 19.5356 30.2852 19.7099C30.4359 19.8819 30.6279 20.0102 30.8611 20.095C31.0966 20.1775 31.3545 20.2187 31.6348 20.2187C31.9434 20.2187 32.2178 20.1704 32.4581 20.0738C32.7007 19.9749 32.8915 19.8383 33.0304 19.664C33.1694 19.4873 33.2389 19.2812 33.2389 19.0457C33.2389 18.8313 33.1777 18.6559 33.0552 18.5192C32.935 18.3826 32.7713 18.2696 32.5641 18.1801C32.3591 18.0905 32.1271 18.0116 31.868 17.9433L31.013 17.7101C30.4336 17.5523 29.9743 17.3203 29.6351 17.0141C29.2983 16.7079 29.1298 16.3028 29.1298 15.7987C29.1298 15.3818 29.2429 15.0179 29.469 14.707C29.6951 14.396 30.0014 14.1546 30.3876 13.9827C30.7739 13.8084 31.2097 13.7212 31.6949 13.7212C32.1848 13.7212 32.6171 13.8072 32.9916 13.9791C33.3684 14.1511 33.6652 14.3878 33.8819 14.6893C34.0986 14.9884 34.2117 15.3323 34.2211 15.721H33.1682ZM37.3182 21.1762C36.9743 21.1762 36.6634 21.1126 36.3854 20.9854C36.1075 20.8558 35.8872 20.6686 35.7247 20.4236C35.5645 20.1786 35.4845 19.8783 35.4845 19.5227C35.4845 19.2164 35.5433 18.9644 35.6611 18.7666C35.7789 18.5687 35.9379 18.4121 36.1381 18.2966C36.3383 18.1812 36.5621 18.0941 36.8094 18.0352C37.0567 17.9763 37.3087 17.9316 37.5655 17.9009C37.8905 17.8632 38.1543 17.8326 38.3569 17.8091C38.5595 17.7832 38.7067 17.7419 38.7986 17.6854C38.8904 17.6289 38.9364 17.537 38.9364 17.4098V17.3851C38.9364 17.0765 38.8492 16.8375 38.6749 16.6679C38.503 16.4983 38.2462 16.4135 37.9047 16.4135C37.549 16.4135 37.2687 16.4924 37.0638 16.6502C36.8612 16.8057 36.7211 16.9788 36.6433 17.1696L35.6505 16.9435C35.7683 16.6137 35.9402 16.3475 36.1664 16.145C36.3948 15.94 36.6575 15.7916 36.9543 15.6998C37.251 15.6056 37.5631 15.5585 37.8905 15.5585C38.1072 15.5585 38.3369 15.5844 38.5795 15.6362C38.8245 15.6856 39.0529 15.7775 39.2649 15.9118C39.4793 16.046 39.6548 16.238 39.7914 16.4877C39.928 16.735 39.9963 17.0565 39.9963 17.4522V21.056H38.9646V20.3141H38.9222C38.8539 20.4507 38.7515 20.585 38.6148 20.7169C38.4782 20.8488 38.3027 20.9583 38.0884 21.0454C37.8741 21.1326 37.6173 21.1762 37.3182 21.1762ZM37.5478 20.3282C37.8399 20.3282 38.0896 20.2705 38.2969 20.1551C38.5065 20.0397 38.6655 19.8889 38.7738 19.7028C38.8845 19.5144 38.9399 19.313 38.9399 19.0987V18.3991C38.9022 18.4368 38.8292 18.4721 38.7208 18.5051C38.6148 18.5357 38.4935 18.5628 38.3569 18.5864C38.2203 18.6076 38.0872 18.6276 37.9577 18.6464C37.8281 18.6629 37.7198 18.6771 37.6326 18.6888C37.4277 18.7147 37.2404 18.7583 37.0708 18.8196C36.9036 18.8808 36.7694 18.9691 36.6681 19.0845C36.5691 19.1976 36.5197 19.3484 36.5197 19.5368C36.5197 19.7982 36.6162 19.9961 36.8094 20.1304C37.0025 20.2623 37.2487 20.3282 37.5478 20.3282ZM45.669 16.9541L44.7115 17.1236C44.6715 17.0012 44.6079 16.8846 44.5207 16.7739C44.436 16.6632 44.3205 16.5725 44.1745 16.5018C44.0285 16.4311 43.8459 16.3958 43.6269 16.3958C43.3277 16.3958 43.078 16.4629 42.8778 16.5972C42.6776 16.7291 42.5775 16.8999 42.5775 17.1095C42.5775 17.2909 42.6446 17.4369 42.7789 17.5476C42.9132 17.6583 43.1299 17.749 43.429 17.8197L44.2911 18.0175C44.7904 18.1329 45.1626 18.3108 45.4076 18.551C45.6525 18.7913 45.775 19.1034 45.775 19.4873C45.775 19.8124 45.6808 20.1021 45.4924 20.3565C45.3063 20.6085 45.046 20.8064 44.7115 20.95C44.3794 21.0937 43.9943 21.1656 43.5562 21.1656C42.9485 21.1656 42.4527 21.036 42.0687 20.7769C41.6848 20.5155 41.4493 20.1445 41.3621 19.664L42.3832 19.5085C42.4468 19.7747 42.5775 19.9761 42.7754 20.1127C42.9732 20.2469 43.2311 20.3141 43.5491 20.3141C43.8954 20.3141 44.1721 20.2422 44.3794 20.0986C44.5867 19.9525 44.6903 19.7747 44.6903 19.5651C44.6903 19.3955 44.6267 19.253 44.4995 19.1375C44.3747 19.0221 44.1827 18.935 43.9236 18.8761L43.005 18.6747C42.4986 18.5593 42.1241 18.3756 41.8815 18.1235C41.6412 17.8715 41.5211 17.5523 41.5211 17.166C41.5211 16.8457 41.6106 16.5654 41.7896 16.3251C41.9686 16.0849 42.216 15.8976 42.5316 15.7634C42.8472 15.6268 43.2088 15.5585 43.6163 15.5585C44.2028 15.5585 44.6644 15.6856 45.0013 15.94C45.3381 16.1921 45.5607 16.5301 45.669 16.9541ZM51.2022 16.9541L50.2447 17.1236C50.2047 17.0012 50.1411 16.8846 50.0539 16.7739C49.9691 16.6632 49.8537 16.5725 49.7077 16.5018C49.5616 16.4311 49.3791 16.3958 49.16 16.3958C48.8609 16.3958 48.6112 16.4629 48.411 16.5972C48.2108 16.7291 48.1107 16.8999 48.1107 17.1095C48.1107 17.2909 48.1778 17.4369 48.3121 17.5476C48.4463 17.6583 48.663 17.749 48.9622 17.8197L49.8243 18.0175C50.3236 18.1329 50.6958 18.3108 50.9407 18.551C51.1857 18.7913 51.3082 19.1034 51.3082 19.4873C51.3082 19.8124 51.214 20.1021 51.0255 20.3565C50.8394 20.6085 50.5792 20.8064 50.2447 20.95C49.9126 21.0937 49.5275 21.1656 49.0894 21.1656C48.4817 21.1656 47.9858 21.036 47.6019 20.7769C47.218 20.5155 46.9824 20.1445 46.8953 19.664L47.9164 19.5085C47.98 19.7747 48.1107 19.9761 48.3085 20.1127C48.5064 20.2469 48.7643 20.3141 49.0823 20.3141C49.4285 20.3141 49.7053 20.2422 49.9126 20.0986C50.1199 19.9525 50.2235 19.7747 50.2235 19.5651C50.2235 19.3955 50.1599 19.253 50.0327 19.1375C49.9079 19.0221 49.7159 18.935 49.4568 18.8761L48.5382 18.6747C48.0318 18.5593 47.6573 18.3756 47.4146 18.1235C47.1744 17.8715 47.0543 17.5523 47.0543 17.166C47.0543 16.8457 47.1438 16.5654 47.3228 16.3251C47.5018 16.0849 47.7491 15.8976 48.0647 15.7634C48.3804 15.6268 48.7419 15.5585 49.1494 15.5585C49.7359 15.5585 50.1976 15.6856 50.5344 15.94C50.8712 16.1921 51.0938 16.5301 51.2022 16.9541ZM55.8081 17.4381C55.8081 16.5524 55.9247 15.7375 56.1579 14.9932C56.3911 14.2488 56.7315 13.5622 57.179 12.9333H58.1471C57.9728 13.1665 57.8103 13.4527 57.6595 13.7919C57.5088 14.1311 57.3769 14.5032 57.2638 14.9084C57.1507 15.3111 57.0624 15.7292 56.9988 16.1626C56.9352 16.5937 56.9034 17.0188 56.9034 17.4381C56.9034 17.9987 56.9588 18.5663 57.0695 19.1411C57.1802 19.7158 57.3298 20.2493 57.5182 20.7416C57.7066 21.2339 57.9163 21.6355 58.1471 21.9464H57.179C56.7315 21.3175 56.3911 20.6309 56.1579 19.8866C55.9247 19.1423 55.8081 18.3261 55.8081 17.4381ZM63.4912 15.721C63.4535 15.3865 63.2981 15.1274 63.0249 14.9437C62.7516 14.7576 62.4077 14.6646 61.9932 14.6646C61.6964 14.6646 61.4396 14.7117 61.2229 14.8059C61.0062 14.8978 60.8378 15.0249 60.7177 15.1875C60.5999 15.3476 60.5411 15.5302 60.5411 15.7351C60.5411 15.9071 60.5811 16.0555 60.6612 16.1803C60.7436 16.3051 60.8508 16.4099 60.9827 16.4947C61.117 16.5772 61.2606 16.6467 61.4137 16.7032C61.5668 16.7574 61.7141 16.8021 61.8554 16.8375L62.562 17.0212C62.7928 17.0777 63.0296 17.1543 63.2722 17.2508C63.5148 17.3474 63.7397 17.4746 63.947 17.6324C64.1543 17.7902 64.3215 17.9857 64.4487 18.2189C64.5783 18.4521 64.643 18.7312 64.643 19.0563C64.643 19.4661 64.537 19.83 64.3251 20.148C64.1154 20.466 63.8104 20.7169 63.41 20.9006C63.0119 21.0843 62.5302 21.1762 61.9649 21.1762C61.4232 21.1762 60.9544 21.0902 60.5587 20.9182C60.163 20.7463 59.8533 20.5025 59.6295 20.1869C59.4057 19.8689 59.2821 19.492 59.2585 19.0563H60.3538C60.375 19.3177 60.4598 19.5356 60.6082 19.7099C60.7589 19.8819 60.9509 20.0102 61.1841 20.095C61.4196 20.1775 61.6775 20.2187 61.9578 20.2187C62.2664 20.2187 62.5408 20.1704 62.7811 20.0738C63.0237 19.9749 63.2145 19.8383 63.3534 19.664C63.4924 19.4873 63.5619 19.2812 63.5619 19.0457C63.5619 18.8313 63.5007 18.6559 63.3782 18.5192C63.258 18.3826 63.0943 18.2696 62.8871 18.1801C62.6821 18.0905 62.4501 18.0116 62.191 17.9433L61.336 17.7101C60.7566 17.5523 60.2973 17.3203 59.9581 17.0141C59.6213 16.7079 59.4528 16.3028 59.4528 15.7987C59.4528 15.3818 59.5659 15.0179 59.792 14.707C60.0181 14.396 60.3244 14.1546 60.7106 13.9827C61.0969 13.8084 61.5327 13.7212 62.0179 13.7212C62.5078 13.7212 62.9401 13.8072 63.3146 13.9791C63.6914 14.1511 63.9882 14.3878 64.2049 14.6893C64.4216 14.9884 64.5347 15.3323 64.5441 15.721H63.4912ZM72.1565 16.1732H71.0542C71.0118 15.9377 70.9329 15.7304 70.8175 15.5514C70.7021 15.3724 70.5607 15.2205 70.3935 15.0956C70.2263 14.9708 70.039 14.8766 69.8317 14.813C69.6268 14.7494 69.4089 14.7176 69.1781 14.7176C68.7612 14.7176 68.3878 14.8224 68.0581 15.032C67.7307 15.2417 67.4716 15.549 67.2808 15.9542C67.0924 16.3593 66.9981 16.8539 66.9981 17.4381C66.9981 18.027 67.0924 18.5239 67.2808 18.9291C67.4716 19.3342 67.7319 19.6404 68.0616 19.8477C68.3914 20.055 68.7624 20.1586 69.1746 20.1586C69.403 20.1586 69.6197 20.128 69.8247 20.0668C70.0319 20.0032 70.2192 19.9101 70.3864 19.7876C70.5537 19.6652 70.695 19.5156 70.8104 19.3389C70.9282 19.1599 71.0094 18.955 71.0542 18.7242L72.1565 18.7277C72.0977 19.0834 71.9834 19.4108 71.8138 19.7099C71.6466 20.0067 71.4311 20.2634 71.1673 20.4801C70.9058 20.6945 70.6067 20.8605 70.2698 20.9783C69.933 21.0961 69.5656 21.155 69.1675 21.155C68.5409 21.155 67.9827 21.0066 67.4928 20.7098C67.0028 20.4107 66.6166 19.9831 66.3339 19.4273C66.0536 18.8714 65.9135 18.2083 65.9135 17.4381C65.9135 16.6655 66.0548 16.0025 66.3374 15.4489C66.6201 14.893 67.0064 14.4667 67.4963 14.1699C67.9862 13.8708 68.5433 13.7212 69.1675 13.7212C69.5514 13.7212 69.9095 13.7766 70.2416 13.8873C70.576 13.9956 70.8764 14.1558 71.1425 14.3678C71.4087 14.5774 71.6289 14.8342 71.8032 15.138C71.9775 15.4395 72.0953 15.7846 72.1565 16.1732ZM77.6084 15.721C77.5708 15.3865 77.4153 15.1274 77.1421 14.9437C76.8688 14.7576 76.5249 14.6646 76.1104 14.6646C75.8136 14.6646 75.5569 14.7117 75.3402 14.8059C75.1235 14.8978 74.955 15.0249 74.8349 15.1875C74.7171 15.3476 74.6583 15.5302 74.6583 15.7351C74.6583 15.9071 74.6983 16.0555 74.7784 16.1803C74.8608 16.3051 74.968 16.4099 75.0999 16.4947C75.2342 16.5772 75.3778 16.6467 75.5309 16.7032C75.6841 16.7574 75.8313 16.8021 75.9726 16.8375L76.6792 17.0212C76.9101 17.0777 77.1468 17.1543 77.3894 17.2508C77.632 17.3474 77.8569 17.4746 78.0642 17.6324C78.2715 17.7902 78.4387 17.9857 78.5659 18.2189C78.6955 18.4521 78.7602 18.7312 78.7602 19.0563C78.7602 19.4661 78.6543 19.83 78.4423 20.148C78.2326 20.466 77.9276 20.7169 77.5272 20.9006C77.1291 21.0843 76.6474 21.1762 76.0821 21.1762C75.5404 21.1762 75.0716 21.0902 74.6759 20.9182C74.2802 20.7463 73.9705 20.5025 73.7467 20.1869C73.5229 19.8689 73.3993 19.492 73.3757 19.0563H74.471C74.4922 19.3177 74.577 19.5356 74.7254 19.7099C74.8761 19.8819 75.0681 20.0102 75.3013 20.095C75.5368 20.1775 75.7948 20.2187 76.0751 20.2187C76.3836 20.2187 76.658 20.1704 76.8983 20.0738C77.1409 19.9749 77.3317 19.8383 77.4706 19.664C77.6096 19.4873 77.6791 19.2812 77.6791 19.0457C77.6791 18.8313 77.6179 18.6559 77.4954 18.5192C77.3753 18.3826 77.2116 18.2696 77.0043 18.1801C76.7994 18.0905 76.5673 18.0116 76.3082 17.9433L75.4532 17.7101C74.8738 17.5523 74.4145 17.3203 74.0753 17.0141C73.7385 16.7079 73.57 16.3028 73.57 15.7987C73.57 15.3818 73.6831 15.0179 73.9092 14.707C74.1354 14.396 74.4416 14.1546 74.8279 13.9827C75.2141 13.8084 75.6499 13.7212 76.1351 13.7212C76.625 13.7212 77.0573 13.8072 77.4318 13.9791C77.8087 14.1511 78.1054 14.3878 78.3221 14.6893C78.5388 14.9884 78.6519 15.3323 78.6613 15.721H77.6084ZM84.2104 15.721C84.1727 15.3865 84.0172 15.1274 83.744 14.9437C83.4708 14.7576 83.1269 14.6646 82.7123 14.6646C82.4155 14.6646 82.1588 14.7117 81.9421 14.8059C81.7254 14.8978 81.557 15.0249 81.4369 15.1875C81.3191 15.3476 81.2602 15.5302 81.2602 15.7351C81.2602 15.9071 81.3002 16.0555 81.3803 16.1803C81.4628 16.3051 81.5699 16.4099 81.7018 16.4947C81.8361 16.5772 81.9798 16.6467 82.1329 16.7032C82.286 16.7574 82.4332 16.8021 82.5745 16.8375L83.2812 17.0212C83.512 17.0777 83.7487 17.1543 83.9913 17.2508C84.2339 17.3474 84.4589 17.4746 84.6662 17.6324C84.8734 17.7902 85.0407 17.9857 85.1679 18.2189C85.2974 18.4521 85.3622 18.7312 85.3622 19.0563C85.3622 19.4661 85.2562 19.83 85.0442 20.148C84.8346 20.466 84.5295 20.7169 84.1291 20.9006C83.7311 21.0843 83.2494 21.1762 82.6841 21.1762C82.1423 21.1762 81.6736 21.0902 81.2779 20.9182C80.8822 20.7463 80.5724 20.5025 80.3486 20.1869C80.1249 19.8689 80.0012 19.492 79.9777 19.0563H81.0729C81.0941 19.3177 81.1789 19.5356 81.3273 19.7099C81.4781 19.8819 81.67 20.0102 81.9032 20.095C82.1388 20.1775 82.3967 20.2187 82.677 20.2187C82.9856 20.2187 83.26 20.1704 83.5002 20.0738C83.7428 19.9749 83.9336 19.8383 84.0726 19.664C84.2116 19.4873 84.281 19.2812 84.281 19.0457C84.281 18.8313 84.2198 18.6559 84.0973 18.5192C83.9772 18.3826 83.8135 18.2696 83.6062 18.1801C83.4013 18.0905 83.1693 18.0116 82.9102 17.9433L82.0552 17.7101C81.4757 17.5523 81.0164 17.3203 80.6772 17.0141C80.3404 16.7079 80.172 16.3028 80.172 15.7987C80.172 15.3818 80.285 15.0179 80.5112 14.707C80.7373 14.396 81.0435 14.1546 81.4298 13.9827C81.8161 13.8084 82.2518 13.7212 82.7371 13.7212C83.227 13.7212 83.6592 13.8072 84.0337 13.9791C84.4106 14.1511 84.7074 14.3878 84.9241 14.6893C85.1408 14.9884 85.2538 15.3323 85.2633 15.721H84.2104ZM88.8126 17.4381C88.8126 18.3261 88.696 19.1423 88.4628 19.8866C88.2296 20.6309 87.8892 21.3175 87.4417 21.9464H86.4736C86.6479 21.7132 86.8104 21.427 86.9612 21.0878C87.1119 20.7487 87.2438 20.3777 87.3569 19.9749C87.47 19.5698 87.5583 19.1505 87.6219 18.7171C87.6855 18.2837 87.7173 17.8574 87.7173 17.4381C87.7173 16.8799 87.6619 16.3134 87.5512 15.7386C87.4405 15.1639 87.291 14.6304 87.1025 14.1381C86.9141 13.6458 86.7044 13.2442 86.4736 12.9333H87.4417C87.8892 13.5622 88.2296 14.2488 88.4628 14.9932C88.696 15.7375 88.8126 16.5524 88.8126 17.4381Z" fill="black"/>
<defs>
<clipPath id="clip0_19_30">
<rect width="17.056" height="17.056" fill="white" transform="translate(8.52802 8.52802)"/>
</clipPath>
</defs>
</svg>
