<svg width="70" height="24" viewBox="0 0 70 24" fill="none" xmlns="http://www.w3.org/2000/svg">
<rect width="70" height="24" rx="6" fill="white"/>
<path fill-rule="evenodd" clip-rule="evenodd" d="M6.11429 11.2646C6.11429 11.3305 6.13369 11.374 6.14457 11.4163C6.21544 11.6913 6.36779 11.9272 6.54854 12.1425C6.80598 12.4492 7.12126 12.6962 7.44423 12.9284C7.72435 13.1298 8.01019 13.3267 8.29144 13.5265C8.33973 13.5608 8.38538 13.6003 8.43779 13.6424C8.39269 13.6668 8.35519 13.6882 8.31619 13.708C7.94504 13.8963 7.58794 14.1073 7.25879 14.363C7.06041 14.5171 6.8686 14.6809 6.73313 14.8949C6.51516 15.2392 6.43801 15.6059 6.60048 15.9975C6.64791 16.1119 6.72029 16.2107 6.82238 16.2837C6.85548 16.3073 6.8926 16.3308 6.93132 16.34C7.03051 16.3633 7.13157 16.3786 7.23198 16.3971L7.51632 16.3969C7.83076 16.3688 8.11698 16.2611 8.37563 16.0826C8.77988 15.8036 9.05222 15.4296 9.16932 14.9495C9.25444 14.6005 9.25791 14.2512 9.1576 13.9039C9.148 13.8717 9.13692 13.84 9.12441 13.8088C9.11222 13.7776 9.09788 13.7472 9.08101 13.7083L9.72563 13.3376L9.73529 13.3459C9.72357 13.3842 9.7111 13.4225 9.70051 13.4612C9.62391 13.7409 9.57301 14.0256 9.59129 14.3159C9.61079 14.6253 9.69713 14.9149 9.87826 15.1733C10.0247 15.3824 10.3736 15.3902 10.5293 15.1804C10.5845 15.1058 10.638 15.0279 10.6782 14.9448C10.7833 14.7277 10.8806 14.5069 10.981 14.2875L10.9986 14.2474C10.9913 14.3512 10.9829 14.4425 10.9791 14.5338C10.9731 14.6764 10.9814 14.8181 11.0302 14.9538C11.0719 15.0698 11.1428 15.1566 11.2758 15.1718C11.3667 15.1822 11.4392 15.1406 11.506 15.0878C11.6096 15.006 11.6954 14.904 11.7583 14.7879C11.9365 14.4607 12.1195 14.1353 12.2811 13.7998C12.4558 13.4369 12.6086 13.0634 12.7709 12.6943L12.7977 12.6289C12.8361 12.7795 12.8628 12.9271 12.912 13.0668C12.9692 13.2289 13.04 13.3871 13.117 13.541C13.1535 13.6136 13.1493 13.6608 13.0988 13.7217C12.8873 13.9767 12.6794 14.2348 12.4714 14.4926C12.4253 14.5495 12.3795 14.6075 12.3412 14.6696C12.3179 14.7089 12.3026 14.7523 12.2962 14.7975C12.2897 14.8391 12.2996 14.8816 12.3238 14.916C12.3479 14.9504 12.3845 14.9742 12.4258 14.9823C12.5092 15.0002 12.5946 15.0063 12.6797 15.0004C12.97 14.979 13.2337 14.8771 13.4667 14.7044C13.7687 14.4807 13.8656 14.1755 13.7925 13.8137C13.7727 13.7155 13.7378 13.6201 13.7037 13.5255C13.6884 13.4828 13.6874 13.4529 13.7153 13.4132C13.9567 13.0685 14.1629 12.7027 14.3547 12.3286C14.3623 12.3139 14.3701 12.2992 14.3834 12.2834C14.4456 12.6068 14.5391 12.9186 14.7068 13.2014C14.6213 13.2838 14.5366 13.3585 14.46 13.4408C14.2913 13.6222 14.1451 13.819 14.0688 14.0591C14.036 14.1626 14.0108 14.2678 14.0254 14.3783C14.0481 14.55 14.1887 14.6616 14.3575 14.6225C14.7188 14.5388 15.0308 14.3686 15.2587 14.067C15.412 13.8639 15.426 13.6374 15.3618 13.4002C15.3442 13.3357 15.3233 13.2722 15.3008 13.1982C15.3899 13.1706 15.4768 13.1374 15.5667 13.1168C16.0335 13.0103 16.4952 13.0289 16.945 13.1975C17.2076 13.2959 17.4198 13.4606 17.5456 13.7197C17.6993 14.0365 17.6143 14.3371 17.3157 14.5373C17.2879 14.556 17.256 14.5707 17.2329 14.5941C17.2256 14.6026 17.22 14.6126 17.2167 14.6234C17.2134 14.6343 17.2124 14.6456 17.2137 14.6569C17.2157 14.6684 17.2462 14.6828 17.2637 14.6827C17.3618 14.6819 17.4414 14.6304 17.5178 14.5776C17.7093 14.4451 17.849 14.2669 17.8791 14.0322L17.885 14.0146L17.8778 13.8618C17.8748 13.853 17.8799 13.8442 17.8793 13.8376C17.8386 13.4959 17.656 13.2308 17.3905 13.0231C17.083 12.7826 16.7199 12.6836 16.3359 12.668C16.0245 12.6546 15.7135 12.7024 15.4205 12.8089C15.3364 12.8393 15.253 12.8754 15.1685 12.9095C15.1571 12.8889 15.1449 12.8692 15.1349 12.8489C15.0481 12.6712 14.9429 12.5013 14.9197 12.2975C14.9032 12.1527 14.8829 12.0082 14.9173 11.865C14.9504 11.7273 14.9935 11.5919 15.0341 11.4561C15.055 11.3861 15.0403 11.3469 14.9736 11.3154C14.9503 11.3038 14.9255 11.2957 14.8999 11.2912C14.7358 11.2674 14.574 11.281 14.4151 11.3272C14.3588 11.3437 14.318 11.3752 14.3055 11.4374C14.2984 11.4731 14.2838 11.5073 14.2737 11.5426C14.2322 11.6891 14.2028 11.8385 14.1356 11.9781C13.9674 12.3282 13.7754 12.6652 13.5789 12.9997C13.5577 13.0357 13.5353 13.0712 13.5084 13.115C13.4394 12.9706 13.3658 12.841 13.3435 12.6892C13.3183 12.5174 13.2984 12.3459 13.3412 12.1755C13.373 12.0484 13.4145 11.9236 13.4528 11.7982C13.4708 11.7385 13.4625 11.7072 13.4085 11.6758C13.3812 11.66 13.3504 11.6459 13.3196 11.6413C13.1514 11.6157 12.9795 11.6297 12.8177 11.6824C12.7668 11.6989 12.7401 11.7318 12.7245 11.7843C12.6788 11.9392 12.6398 12.0978 12.5755 12.2451C12.3155 12.8413 12.0479 13.4345 11.7806 14.0275C11.7248 14.1514 11.6595 14.2709 11.5966 14.3915C11.5807 14.422 11.5574 14.4489 11.5375 14.4776C11.5216 14.4588 11.5154 14.4458 11.5155 14.4329C11.516 14.3567 11.5069 14.2782 11.5214 14.2045C11.566 13.9817 11.6154 13.7598 11.6693 13.539C11.7134 13.3566 11.7647 13.1758 11.8135 12.9946C11.8299 12.9339 11.8302 12.8772 11.7866 12.8262C11.7134 12.7408 11.5604 12.7221 11.4697 12.7879L11.4295 12.8106L11.4373 12.7459C11.4564 12.6072 11.4603 12.469 11.4222 12.3324C11.3748 12.1622 11.2533 12.0642 11.0767 12.0697C10.9943 12.0722 10.9079 12.0862 10.8317 12.1162C10.5112 12.2419 10.2647 12.4643 10.0549 12.732C10.0354 12.7569 10.0113 12.7777 9.98391 12.7933C9.71269 12.9437 9.44063 13.0922 9.16866 13.2412L8.86594 13.4071C8.78476 13.3297 8.71098 13.2493 8.62726 13.1812C8.3716 12.9727 8.11182 12.7693 7.85438 12.5632C7.62619 12.3804 7.40513 12.1901 7.23601 11.9482C7.11019 11.7682 7.0291 11.5712 7.02132 11.3486C7.01148 11.065 7.09191 10.8059 7.23629 10.5647C7.42098 10.2561 7.67288 10.0084 7.94982 9.78403C8.24279 9.54684 8.55966 9.34547 8.88807 9.16162C9.34754 8.90447 9.82013 8.67684 10.3268 8.52656C10.8464 8.37244 11.3736 8.28422 11.9173 8.34572C12.1311 8.36991 12.3386 8.41884 12.5292 8.52337C12.6752 8.60334 12.7949 8.70806 12.8506 8.87175C12.9055 9.03281 12.9038 9.19603 12.8658 9.35962C12.7884 9.69094 12.607 9.96403 12.3788 10.2081C12.0043 10.6081 11.5476 10.8804 11.0333 11.0603C10.7377 11.1639 10.4301 11.2295 10.1179 11.2556C9.86204 11.2771 9.61154 11.2544 9.36929 11.1654C9.20888 11.1065 9.06919 11.0163 8.95688 10.8854C8.93682 10.862 8.91113 10.8366 8.87373 10.8585C8.83707 10.8801 8.8306 10.9149 8.84288 10.9503C8.86341 11.009 8.88235 11.0701 8.91432 11.1226C8.99466 11.2543 9.11185 11.3498 9.24085 11.4318C9.48863 11.5894 9.76557 11.6423 10.0527 11.6546C10.4885 11.6735 10.9136 11.6084 11.3328 11.4915C11.9312 11.3246 12.4515 11.0299 12.8688 10.5649C13.2162 10.1777 13.4644 9.74072 13.5175 9.21309C13.5435 8.95556 13.5158 8.70328 13.3953 8.46834C13.2645 8.21381 13.0566 8.02453 12.8079 7.89412C12.4459 7.70428 12.0551 7.59375 11.6518 7.59375H11.2478C10.7593 7.59375 10.2871 7.73372 9.8281 7.90069C9.48066 8.02716 9.13998 8.17641 8.80923 8.34159C8.08894 8.7015 7.41816 9.13547 6.86719 9.73219C6.59269 10.0295 6.36029 10.3575 6.2266 10.7437C6.18625 10.8591 6.15149 10.9763 6.12244 11.0949M8.73235 14.4712C8.70113 14.8892 8.51166 15.2281 8.20201 15.5026C8.02782 15.6569 7.82804 15.7668 7.59535 15.8054C7.51098 15.8194 7.42463 15.8227 7.34279 15.7878C7.22607 15.7379 7.19991 15.6343 7.19766 15.524C7.19419 15.3481 7.25579 15.1891 7.34026 15.0378C7.45051 14.8405 7.61213 14.6902 7.78473 14.5497C8.0566 14.3284 8.35154 14.1411 8.6536 13.9642L8.67638 13.9549C8.72307 14.1274 8.74529 14.2977 8.73235 14.4712ZM11.0909 12.6544C11.0689 12.7879 11.0413 12.9215 11.0023 13.0508C10.8675 13.4987 10.6943 13.9327 10.5071 14.3608C10.4725 14.44 10.4222 14.5123 10.3784 14.5874C10.371 14.5989 10.362 14.6095 10.3519 14.6187C10.2977 14.6722 10.2463 14.6694 10.2189 14.5994C10.1871 14.518 10.1675 14.4309 10.1506 14.3448C10.1393 14.2869 10.142 14.2262 10.1384 14.1669C10.1421 13.7456 10.2706 13.3627 10.4887 13.0063C10.5786 12.8593 10.6764 12.7192 10.826 12.6262C10.8725 12.5973 10.9228 12.575 10.9755 12.5601C11.0552 12.5377 11.1041 12.5745 11.0909 12.6544ZM12.7 14.7045L13.2784 14.0292C13.3025 14.28 12.8762 14.7806 12.7 14.7045ZM14.5472 14.2501C14.5063 14.2735 14.4618 14.2904 14.4199 14.3121C14.3815 14.3319 14.3689 14.3119 14.3678 14.2789C14.3672 14.256 14.3701 14.2332 14.3765 14.2113C14.4546 13.9358 14.5983 13.7007 14.8121 13.5095L14.8271 13.5018C14.9288 13.7863 14.8113 14.0988 14.5472 14.2501Z" fill="#CB6699"/>
<path d="M23.3359 11.2464C23.3094 11.0111 23.2 10.8288 23.0078 10.6996C22.8156 10.5687 22.5736 10.5032 22.282 10.5032C22.0732 10.5032 21.8925 10.5363 21.7401 10.6026C21.5876 10.6673 21.4691 10.7567 21.3846 10.8711C21.3017 10.9838 21.2603 11.1122 21.2603 11.2564C21.2603 11.3774 21.2885 11.4818 21.3448 11.5696C21.4028 11.6574 21.4782 11.7312 21.571 11.7908C21.6655 11.8488 21.7666 11.8977 21.8743 11.9375C21.982 11.9756 22.0856 12.0071 22.185 12.032L22.6822 12.1612C22.8446 12.201 23.0111 12.2549 23.1818 12.3228C23.3525 12.3907 23.5108 12.4802 23.6566 12.5913C23.8024 12.7023 23.9201 12.8398 24.0096 13.0039C24.1007 13.168 24.1463 13.3643 24.1463 13.593C24.1463 13.8814 24.0717 14.1374 23.9226 14.3612C23.7751 14.5849 23.5605 14.7614 23.2788 14.8906C22.9987 15.0199 22.6598 15.0845 22.2621 15.0845C21.8809 15.0845 21.5511 15.024 21.2727 14.9031C20.9943 14.7821 20.7764 14.6106 20.619 14.3885C20.4615 14.1648 20.3745 13.8996 20.358 13.593H21.1286C21.1435 13.777 21.2031 13.9303 21.3075 14.0529C21.4136 14.1739 21.5487 14.2642 21.7127 14.3239C21.8784 14.3819 22.0599 14.4109 22.2571 14.4109C22.4742 14.4109 22.6673 14.3769 22.8363 14.3089C23.007 14.2393 23.1412 14.1432 23.239 14.0206C23.3368 13.8963 23.3857 13.7513 23.3857 13.5856C23.3857 13.4348 23.3426 13.3113 23.2564 13.2152C23.1719 13.1191 23.0567 13.0395 22.9109 12.9766C22.7667 12.9136 22.6035 12.8581 22.4212 12.81L21.8196 12.646C21.4119 12.5349 21.0888 12.3717 20.8501 12.1562C20.6132 11.9408 20.4947 11.6558 20.4947 11.3011C20.4947 11.0078 20.5742 10.7518 20.7333 10.533C20.8924 10.3143 21.1078 10.1444 21.3796 10.0234C21.6514 9.9008 21.958 9.83949 22.2994 9.83949C22.6441 9.83949 22.9482 9.89998 23.2116 10.021C23.4768 10.1419 23.6856 10.3085 23.8381 10.5206C23.9905 10.7311 24.0701 10.973 24.0767 11.2464H23.3359ZM26.2557 15.0845C26.0137 15.0845 25.795 15.0398 25.5994 14.9503C25.4039 14.8591 25.2489 14.7274 25.1346 14.555C25.0219 14.3827 24.9656 14.1714 24.9656 13.9212C24.9656 13.7057 25.007 13.5284 25.0898 13.3892C25.1727 13.25 25.2846 13.1398 25.4254 13.0586C25.5663 12.9774 25.7237 12.9161 25.8977 12.8746C26.0717 12.8332 26.249 12.8017 26.4297 12.7802C26.6584 12.7537 26.844 12.7321 26.9865 12.7156C27.129 12.6973 27.2326 12.6683 27.2972 12.6286C27.3619 12.5888 27.3942 12.5241 27.3942 12.4347V12.4173C27.3942 12.2002 27.3329 12.032 27.2102 11.9126C27.0892 11.7933 26.9086 11.7337 26.6683 11.7337C26.4181 11.7337 26.2209 11.7892 26.0767 11.9002C25.9342 12.0096 25.8356 12.1314 25.7809 12.2656L25.0824 12.1065C25.1652 11.8745 25.2862 11.6873 25.4453 11.5447C25.6061 11.4006 25.7908 11.2962 25.9996 11.2315C26.2084 11.1652 26.428 11.1321 26.6584 11.1321C26.8108 11.1321 26.9724 11.1503 27.1431 11.1868C27.3155 11.2216 27.4762 11.2862 27.6254 11.3807C27.7762 11.4751 27.8996 11.6102 27.9957 11.7859C28.0919 11.9599 28.1399 12.1861 28.1399 12.4645V15H27.4141V14.478H27.3842C27.3362 14.5741 27.2641 14.6686 27.168 14.7614C27.0718 14.8542 26.9484 14.9312 26.7976 14.9925C26.6468 15.0539 26.4661 15.0845 26.2557 15.0845ZM26.4173 14.4879C26.6227 14.4879 26.7984 14.4473 26.9442 14.3661C27.0917 14.2849 27.2036 14.1789 27.2798 14.0479C27.3577 13.9154 27.3967 13.7737 27.3967 13.6229V13.1307C27.3701 13.1572 27.3188 13.1821 27.2425 13.2053C27.168 13.2268 27.0826 13.2459 26.9865 13.2624C26.8904 13.2773 26.7968 13.2914 26.7056 13.3047C26.6145 13.3163 26.5382 13.3262 26.4769 13.3345C26.3327 13.3527 26.201 13.3834 26.0817 13.4265C25.964 13.4696 25.8696 13.5317 25.7983 13.6129C25.7287 13.6925 25.6939 13.7985 25.6939 13.9311C25.6939 14.1151 25.7618 14.2543 25.8977 14.3487C26.0336 14.4415 26.2068 14.4879 26.4173 14.4879ZM32.131 12.114L31.4574 12.2333C31.4292 12.1471 31.3845 12.0651 31.3231 11.9872C31.2635 11.9093 31.1823 11.8455 31.0795 11.7958C30.9768 11.7461 30.8484 11.7212 30.6942 11.7212C30.4838 11.7212 30.3081 11.7685 30.1673 11.8629C30.0264 11.9557 29.956 12.0759 29.956 12.2234C29.956 12.351 30.0032 12.4537 30.0976 12.5316C30.1921 12.6095 30.3446 12.6733 30.555 12.723L31.1616 12.8622C31.5129 12.9434 31.7747 13.0685 31.9471 13.2376C32.1194 13.4066 32.2056 13.6262 32.2056 13.8963C32.2056 14.125 32.1393 14.3288 32.0067 14.5078C31.8758 14.6851 31.6927 14.8243 31.4574 14.9254C31.2237 15.0265 30.9528 15.0771 30.6445 15.0771C30.217 15.0771 29.8681 14.9859 29.598 14.8036C29.3279 14.6197 29.1622 14.3587 29.1008 14.0206L29.8192 13.9112C29.864 14.0985 29.956 14.2402 30.0952 14.3363C30.2344 14.4308 30.4158 14.478 30.6396 14.478C30.8832 14.478 31.0779 14.4274 31.2237 14.3263C31.3695 14.2236 31.4425 14.0985 31.4425 13.951C31.4425 13.8317 31.3977 13.7314 31.3082 13.6502C31.2204 13.569 31.0853 13.5077 30.903 13.4663L30.2567 13.3246C29.9004 13.2434 29.6369 13.1141 29.4663 12.9368C29.2972 12.7595 29.2127 12.5349 29.2127 12.2631C29.2127 12.0378 29.2757 11.8406 29.4016 11.6715C29.5276 11.5025 29.7016 11.3707 29.9236 11.2763C30.1457 11.1802 30.4001 11.1321 30.6868 11.1321C31.0994 11.1321 31.4242 11.2216 31.6612 11.4006C31.8982 11.5779 32.0548 11.8157 32.131 12.114ZM36.024 12.114L35.3503 12.2333C35.3221 12.1471 35.2774 12.0651 35.2161 11.9872C35.1564 11.9093 35.0752 11.8455 34.9725 11.7958C34.8697 11.7461 34.7413 11.7212 34.5872 11.7212C34.3767 11.7212 34.201 11.7685 34.0602 11.8629C33.9193 11.9557 33.8489 12.0759 33.8489 12.2234C33.8489 12.351 33.8961 12.4537 33.9906 12.5316C34.085 12.6095 34.2375 12.6733 34.448 12.723L35.0545 12.8622C35.4058 12.9434 35.6677 13.0685 35.84 13.2376C36.0124 13.4066 36.0985 13.6262 36.0985 13.8963C36.0985 14.125 36.0322 14.3288 35.8997 14.5078C35.7688 14.6851 35.5856 14.8243 35.3503 14.9254C35.1166 15.0265 34.8457 15.0771 34.5375 15.0771C34.1099 15.0771 33.7611 14.9859 33.4909 14.8036C33.2208 14.6197 33.0551 14.3587 32.9938 14.0206L33.7122 13.9112C33.7569 14.0985 33.8489 14.2402 33.9881 14.3363C34.1273 14.4308 34.3088 14.478 34.5325 14.478C34.7761 14.478 34.9708 14.4274 35.1166 14.3263C35.2625 14.2236 35.3354 14.0985 35.3354 13.951C35.3354 13.8317 35.2906 13.7314 35.2012 13.6502C35.1133 13.569 34.9783 13.5077 34.796 13.4663L34.1497 13.3246C33.7934 13.2434 33.5299 13.1141 33.3592 12.9368C33.1902 12.7595 33.1056 12.5349 33.1056 12.2631C33.1056 12.0378 33.1686 11.8406 33.2946 11.6715C33.4205 11.5025 33.5945 11.3707 33.8166 11.2763C34.0386 11.1802 34.293 11.1321 34.5797 11.1321C34.9924 11.1321 35.3172 11.2216 35.5541 11.4006C35.7911 11.5779 35.9477 11.8157 36.024 12.114ZM39.2645 12.4545C39.2645 11.8314 39.3466 11.258 39.5106 10.7344C39.6747 10.2107 39.9142 9.72763 40.229 9.28516H40.9101C40.7875 9.44922 40.6732 9.65057 40.5671 9.8892C40.461 10.1278 40.3682 10.3897 40.2887 10.6747C40.2091 10.9581 40.147 11.2522 40.1023 11.5572C40.0575 11.8604 40.0351 12.1596 40.0351 12.4545C40.0351 12.849 40.0741 13.2483 40.152 13.6527C40.2299 14.0571 40.3351 14.4324 40.4677 14.7788C40.6002 15.1251 40.7477 15.4077 40.9101 15.6264H40.229C39.9142 15.1839 39.6747 14.7009 39.5106 14.1772C39.3466 13.6535 39.2645 13.0793 39.2645 12.4545ZM44.6701 11.2464C44.6436 11.0111 44.5342 10.8288 44.342 10.6996C44.1497 10.5687 43.9078 10.5032 43.6161 10.5032C43.4073 10.5032 43.2267 10.5363 43.0742 10.6026C42.9217 10.6673 42.8032 10.7567 42.7187 10.8711C42.6359 10.9838 42.5944 11.1122 42.5944 11.2564C42.5944 11.3774 42.6226 11.4818 42.679 11.5696C42.737 11.6574 42.8124 11.7312 42.9052 11.7908C42.9996 11.8488 43.1007 11.8977 43.2084 11.9375C43.3161 11.9756 43.4197 12.0071 43.5192 12.032L44.0163 12.1612C44.1787 12.201 44.3453 12.2549 44.516 12.3228C44.6867 12.3907 44.8449 12.4802 44.9907 12.5913C45.1366 12.7023 45.2542 12.8398 45.3437 13.0039C45.4349 13.168 45.4804 13.3643 45.4804 13.593C45.4804 13.8814 45.4059 14.1374 45.2567 14.3612C45.1092 14.5849 44.8946 14.7614 44.6129 14.8906C44.3328 15.0199 43.9939 15.0845 43.5962 15.0845C43.2151 15.0845 42.8853 15.024 42.6069 14.9031C42.3285 14.7821 42.1105 14.6106 41.9531 14.3885C41.7957 14.1648 41.7087 13.8996 41.6921 13.593H42.4627C42.4776 13.777 42.5373 13.9303 42.6417 14.0529C42.7477 14.1739 42.8828 14.2642 43.0469 14.3239C43.2126 14.3819 43.394 14.4109 43.5912 14.4109C43.8083 14.4109 44.0014 14.3769 44.1704 14.3089C44.3411 14.2393 44.4754 14.1432 44.5731 14.0206C44.6709 13.8963 44.7198 13.7513 44.7198 13.5856C44.7198 13.4348 44.6767 13.3113 44.5905 13.2152C44.506 13.1191 44.3908 13.0395 44.245 12.9766C44.1008 12.9136 43.9376 12.8581 43.7553 12.81L43.1537 12.646C42.7461 12.5349 42.4229 12.3717 42.1843 12.1562C41.9473 11.9408 41.8288 11.6558 41.8288 11.3011C41.8288 11.0078 41.9084 10.7518 42.0675 10.533C42.2265 10.3143 42.442 10.1444 42.7138 10.0234C42.9855 9.9008 43.2921 9.83949 43.6335 9.83949C43.9782 9.83949 44.2823 9.89998 44.5458 10.021C44.8109 10.1419 45.0197 10.3085 45.1722 10.5206C45.3247 10.7311 45.4042 10.973 45.4108 11.2464H44.6701ZM50.7667 11.5646H49.9911C49.9613 11.3989 49.9058 11.2531 49.8245 11.1271C49.7433 11.0012 49.6439 10.8943 49.5263 10.8065C49.4086 10.7186 49.2768 10.6523 49.131 10.6076C48.9868 10.5629 48.8335 10.5405 48.6711 10.5405C48.3778 10.5405 48.1151 10.6142 47.8831 10.7617C47.6528 10.9092 47.4705 11.1255 47.3363 11.4105C47.2037 11.6955 47.1374 12.0436 47.1374 12.4545C47.1374 12.8688 47.2037 13.2185 47.3363 13.5036C47.4705 13.7886 47.6536 14.004 47.8856 14.1499C48.1176 14.2957 48.3786 14.3686 48.6687 14.3686C48.8294 14.3686 48.9819 14.3471 49.126 14.304C49.2719 14.2592 49.4036 14.1938 49.5213 14.1076C49.6389 14.0214 49.7384 13.9162 49.8196 13.7919C49.9024 13.666 49.9596 13.5218 49.9911 13.3594L50.7667 13.3619C50.7252 13.6121 50.6449 13.8424 50.5255 14.0529C50.4079 14.2617 50.2562 14.4424 50.0706 14.5948C49.8867 14.7456 49.6762 14.8625 49.4393 14.9453C49.2023 15.0282 48.9437 15.0696 48.6637 15.0696C48.2229 15.0696 47.8301 14.9652 47.4854 14.7564C47.1407 14.5459 46.8689 14.2451 46.6701 13.854C46.4729 13.4629 46.3743 12.9964 46.3743 12.4545C46.3743 11.911 46.4737 11.4445 46.6726 11.055C46.8714 10.6639 47.1432 10.364 47.4879 10.1552C47.8326 9.94472 48.2245 9.83949 48.6637 9.83949C48.9338 9.83949 49.1857 9.87843 49.4194 9.95632C49.6547 10.0326 49.866 10.1452 50.0532 10.2944C50.2405 10.4419 50.3955 10.6225 50.5181 10.8363C50.6407 11.0484 50.7236 11.2912 50.7667 11.5646ZM54.6024 11.2464C54.5759 11.0111 54.4665 10.8288 54.2743 10.6996C54.0821 10.5687 53.8401 10.5032 53.5484 10.5032C53.3396 10.5032 53.159 10.5363 53.0065 10.6026C52.8541 10.6673 52.7356 10.7567 52.6511 10.8711C52.5682 10.9838 52.5268 11.1122 52.5268 11.2564C52.5268 11.3774 52.555 11.4818 52.6113 11.5696C52.6693 11.6574 52.7447 11.7312 52.8375 11.7908C52.932 11.8488 53.0331 11.8977 53.1408 11.9375C53.2485 11.9756 53.3521 12.0071 53.4515 12.032L53.9487 12.1612C54.1111 12.201 54.2776 12.2549 54.4483 12.3228C54.619 12.3907 54.7773 12.4802 54.9231 12.5913C55.0689 12.7023 55.1866 12.8398 55.2761 13.0039C55.3672 13.168 55.4128 13.3643 55.4128 13.593C55.4128 13.8814 55.3382 14.1374 55.1891 14.3612C55.0416 14.5849 54.827 14.7614 54.5452 14.8906C54.2652 15.0199 53.9263 15.0845 53.5286 15.0845C53.1474 15.0845 52.8176 15.024 52.5392 14.9031C52.2608 14.7821 52.0429 14.6106 51.8854 14.3885C51.728 14.1648 51.641 13.8996 51.6244 13.593H52.395C52.41 13.777 52.4696 13.9303 52.574 14.0529C52.6801 14.1739 52.8151 14.2642 52.9792 14.3239C53.1449 14.3819 53.3264 14.4109 53.5236 14.4109C53.7407 14.4109 53.9337 14.3769 54.1028 14.3089C54.2735 14.2393 54.4077 14.1432 54.5055 14.0206C54.6033 13.8963 54.6521 13.7513 54.6521 13.5856C54.6521 13.4348 54.6091 13.3113 54.5229 13.2152C54.4384 13.1191 54.3232 13.0395 54.1774 12.9766C54.0332 12.9136 53.8699 12.8581 53.6877 12.81L53.0861 12.646C52.6784 12.5349 52.3553 12.3717 52.1166 12.1562C51.8796 11.9408 51.7612 11.6558 51.7612 11.3011C51.7612 11.0078 51.8407 10.7518 51.9998 10.533C52.1589 10.3143 52.3743 10.1444 52.6461 10.0234C52.9179 9.9008 53.2245 9.83949 53.5658 9.83949C53.9105 9.83949 54.2146 9.89998 54.4781 10.021C54.7433 10.1419 54.9521 10.3085 55.1046 10.5206C55.257 10.7311 55.3366 10.973 55.3432 11.2464H54.6024ZM59.2473 11.2464C59.2208 11.0111 59.1114 10.8288 58.9192 10.6996C58.7269 10.5687 58.485 10.5032 58.1933 10.5032C57.9845 10.5032 57.8039 10.5363 57.6514 10.6026C57.499 10.6673 57.3805 10.7567 57.296 10.8711C57.2131 10.9838 57.1717 11.1122 57.1717 11.2564C57.1717 11.3774 57.1998 11.4818 57.2562 11.5696C57.3142 11.6574 57.3896 11.7312 57.4824 11.7908C57.5768 11.8488 57.6779 11.8977 57.7857 11.9375C57.8934 11.9756 57.9969 12.0071 58.0964 12.032L58.5935 12.1612C58.7559 12.201 58.9225 12.2549 59.0932 12.3228C59.2639 12.3907 59.4221 12.4802 59.568 12.5913C59.7138 12.7023 59.8315 12.8398 59.921 13.0039C60.0121 13.168 60.0577 13.3643 60.0577 13.593C60.0577 13.8814 59.9831 14.1374 59.834 14.3612C59.6865 14.5849 59.4719 14.7614 59.1901 14.8906C58.9101 15.0199 58.5712 15.0845 58.1734 15.0845C57.7923 15.0845 57.4625 15.024 57.1841 14.9031C56.9057 14.7821 56.6878 14.6106 56.5303 14.3885C56.3729 14.1648 56.2859 13.8996 56.2693 13.593H57.0399C57.0548 13.777 57.1145 13.9303 57.2189 14.0529C57.325 14.1739 57.46 14.2642 57.6241 14.3239C57.7898 14.3819 57.9713 14.4109 58.1685 14.4109C58.3856 14.4109 58.5786 14.3769 58.7477 14.3089C58.9183 14.2393 59.0526 14.1432 59.1504 14.0206C59.2481 13.8963 59.297 13.7513 59.297 13.5856C59.297 13.4348 59.2539 13.3113 59.1678 13.2152C59.0832 13.1191 58.9681 13.0395 58.8222 12.9766C58.6781 12.9136 58.5148 12.8581 58.3325 12.81L57.731 12.646C57.3233 12.5349 57.0001 12.3717 56.7615 12.1562C56.5245 11.9408 56.406 11.6558 56.406 11.3011C56.406 11.0078 56.4856 10.7518 56.6447 10.533C56.8038 10.3143 57.0192 10.1444 57.291 10.0234C57.5628 9.9008 57.8693 9.83949 58.2107 9.83949C58.5554 9.83949 58.8595 9.89998 59.123 10.021C59.3882 10.1419 59.597 10.3085 59.7494 10.5206C59.9019 10.7311 59.9814 10.973 59.9881 11.2464H59.2473ZM62.4852 12.4545C62.4852 13.0793 62.4032 13.6535 62.2391 14.1772C62.0751 14.7009 61.8356 15.1839 61.5207 15.6264H60.8396C60.9623 15.4624 61.0766 15.261 61.1827 15.0224C61.2887 14.7837 61.3815 14.5227 61.4611 14.2393C61.5406 13.9543 61.6028 13.6593 61.6475 13.3544C61.6923 13.0495 61.7146 12.7495 61.7146 12.4545C61.7146 12.0618 61.6757 11.6632 61.5978 11.2589C61.5199 10.8545 61.4147 10.4792 61.2821 10.1328C61.1495 9.78646 61.002 9.50391 60.8396 9.28516H61.5207C61.8356 9.72763 62.0751 10.2107 62.2391 10.7344C62.4032 11.258 62.4852 11.8314 62.4852 12.4545Z" fill="black"/>
</svg>
