<svg width="103" height="35" viewBox="0 0 103 35" fill="none" xmlns="http://www.w3.org/2000/svg">
<rect width="102.336" height="34.1121" rx="8.52802" fill="white"/>
<g clip-path="url(#clip0_19_34)">
<path d="M17.0566 11.9395C14.7824 11.9395 13.3616 13.0761 12.7926 15.3503C13.6451 14.2135 14.6404 13.7873 15.7771 14.0715C16.4262 14.2333 16.89 14.7039 17.4037 15.2254C18.2397 16.0738 19.2074 17.056 21.3206 17.056C23.5946 17.056 25.0156 15.9193 25.5846 13.6446C24.7319 14.782 23.7368 15.2083 22.5999 14.924C21.951 14.7621 21.4877 14.2916 20.9733 13.7701C20.1379 12.9217 19.1705 11.9395 17.0566 11.9395ZM12.7926 17.056C10.5185 17.056 9.09754 18.1928 8.52856 20.4675C9.3811 19.3301 10.3762 18.9038 11.5131 19.188C12.1622 19.3499 12.626 19.8205 13.1397 20.342C13.9757 21.1904 14.9434 22.1726 17.0566 22.1726C19.3306 22.1726 20.7516 21.036 21.3206 18.7618C20.4679 19.8985 19.4728 20.3248 18.3359 20.0406C17.687 19.8788 17.2237 19.4082 16.7093 18.8866C15.8739 18.0382 14.9065 17.056 12.7926 17.056Z" fill="#38BDF8"/>
</g>
<path d="M28.8648 14.76V13.8201H34.4649V14.76H32.2072V21.056H31.119V14.76H28.8648ZM36.6575 21.1762C36.3136 21.1762 36.0027 21.1126 35.7247 20.9854C35.4468 20.8558 35.2265 20.6686 35.064 20.4236C34.9038 20.1786 34.8238 19.8783 34.8238 19.5227C34.8238 19.2164 34.8826 18.9644 35.0004 18.7666C35.1182 18.5687 35.2772 18.4121 35.4774 18.2966C35.6776 18.1812 35.9014 18.0941 36.1487 18.0352C36.396 17.9763 36.648 17.9316 36.9048 17.9009C37.2298 17.8632 37.4936 17.8326 37.6962 17.8091C37.8988 17.7832 38.046 17.7419 38.1379 17.6854C38.2297 17.6289 38.2756 17.537 38.2756 17.4098V17.3851C38.2756 17.0765 38.1885 16.8375 38.0142 16.6679C37.8422 16.4983 37.5855 16.4135 37.244 16.4135C36.8883 16.4135 36.608 16.4924 36.4031 16.6502C36.2005 16.8057 36.0604 16.9788 35.9826 17.1696L34.9898 16.9435C35.1076 16.6137 35.2795 16.3475 35.5057 16.145C35.7341 15.94 35.9968 15.7916 36.2935 15.6998C36.5903 15.6056 36.9024 15.5585 37.2298 15.5585C37.4465 15.5585 37.6762 15.5844 37.9188 15.6362C38.1638 15.6856 38.3922 15.7775 38.6042 15.9118C38.8186 16.046 38.9941 16.238 39.1307 16.4877C39.2673 16.735 39.3356 17.0565 39.3356 17.4522V21.056H38.3039V20.3141H38.2615C38.1932 20.4507 38.0907 20.585 37.9541 20.7169C37.8175 20.8488 37.642 20.9583 37.4277 21.0454C37.2133 21.1326 36.9566 21.1762 36.6575 21.1762ZM36.8871 20.3282C37.1792 20.3282 37.4289 20.2705 37.6361 20.1551C37.8458 20.0397 38.0048 19.8889 38.1131 19.7028C38.2238 19.5144 38.2792 19.313 38.2792 19.0987V18.3991C38.2415 18.4368 38.1685 18.4721 38.0601 18.5051C37.9541 18.5357 37.8328 18.5628 37.6962 18.5864C37.5596 18.6076 37.4265 18.6276 37.297 18.6464C37.1674 18.6629 37.0591 18.6771 36.9719 18.6888C36.767 18.7147 36.5797 18.7583 36.4101 18.8196C36.2429 18.8808 36.1086 18.9691 36.0074 19.0845C35.9084 19.1976 35.859 19.3484 35.859 19.5368C35.859 19.7982 35.9555 19.9961 36.1487 20.1304C36.3418 20.2623 36.588 20.3282 36.8871 20.3282ZM40.9417 21.056V15.6291H41.9981V21.056H40.9417ZM41.4752 14.7918C41.2914 14.7918 41.1336 14.7305 41.0017 14.608C40.8722 14.4832 40.8074 14.3348 40.8074 14.1629C40.8074 13.9886 40.8722 13.8402 41.0017 13.7177C41.1336 13.5928 41.2914 13.5304 41.4752 13.5304C41.6589 13.5304 41.8155 13.5928 41.9451 13.7177C42.077 13.8402 42.1429 13.9886 42.1429 14.1629C42.1429 14.3348 42.077 14.4832 41.9451 14.608C41.8155 14.7305 41.6589 14.7918 41.4752 14.7918ZM44.6747 13.8201V21.056H43.6183V13.8201H44.6747ZM47.4714 21.056L45.8744 15.6291H46.9662L48.0297 19.6145H48.0827L49.1497 15.6291H50.2414L51.3014 19.5968H51.3544L52.4108 15.6291H53.5025L51.9091 21.056H50.8314L49.7291 17.1378H49.6478L48.5455 21.056H47.4714ZM54.704 21.056V15.6291H55.7604V21.056H54.704ZM55.2375 14.7918C55.0538 14.7918 54.896 14.7305 54.7641 14.608C54.6345 14.4832 54.5698 14.3348 54.5698 14.1629C54.5698 13.9886 54.6345 13.8402 54.7641 13.7177C54.896 13.5928 55.0538 13.5304 55.2375 13.5304C55.4213 13.5304 55.5779 13.5928 55.7074 13.7177C55.8393 13.8402 55.9053 13.9886 55.9053 14.1629C55.9053 14.3348 55.8393 14.4832 55.7074 14.608C55.5779 14.7305 55.4213 14.7918 55.2375 14.7918ZM58.4371 17.8338V21.056H57.3806V15.6291H58.3947V16.5124H58.4618C58.5866 16.225 58.7821 15.9942 59.0483 15.8199C59.3168 15.6456 59.6548 15.5585 60.0623 15.5585C60.4321 15.5585 60.756 15.6362 61.0339 15.7916C61.3119 15.9447 61.5274 16.1732 61.6805 16.4771C61.8336 16.7809 61.9101 17.1566 61.9101 17.6042V21.056H60.8537V17.7313C60.8537 17.338 60.7513 17.0306 60.5463 16.8092C60.3414 16.5854 60.0599 16.4735 59.7019 16.4735C59.457 16.4735 59.2391 16.5265 59.0483 16.6325C58.8599 16.7385 58.7103 16.894 58.5996 17.0989C58.4912 17.3015 58.4371 17.5464 58.4371 17.8338ZM65.5575 21.162C65.1194 21.162 64.7284 21.0502 64.3845 20.8264C64.0429 20.6003 63.7744 20.2787 63.5789 19.8618C63.3858 19.4426 63.2892 18.9397 63.2892 18.3532C63.2892 17.7667 63.387 17.265 63.5825 16.8481C63.7803 16.4311 64.0512 16.112 64.3951 15.8906C64.739 15.6692 65.1288 15.5585 65.5646 15.5585C65.9014 15.5585 66.1723 15.615 66.3772 15.728C66.5845 15.8388 66.7446 15.9683 66.8577 16.1167C66.9731 16.2651 67.0626 16.3958 67.1262 16.5089H67.1898V13.8201H68.2462V21.056H67.2145V20.2116H67.1262C67.0626 20.327 66.9707 20.4589 66.8506 20.6073C66.7328 20.7557 66.5703 20.8853 66.363 20.996C66.1558 21.1067 65.8872 21.162 65.5575 21.162ZM65.7907 20.2611C66.0945 20.2611 66.3513 20.181 66.5609 20.0208C66.7729 19.8583 66.9331 19.6334 67.0414 19.346C67.1521 19.0586 67.2075 18.7242 67.2075 18.3426C67.2075 17.9657 67.1533 17.6359 67.0449 17.3533C66.9366 17.0706 66.7776 16.8504 66.568 16.6926C66.3583 16.5348 66.0992 16.4559 65.7907 16.4559C65.4727 16.4559 65.2077 16.5383 64.9957 16.7032C64.7837 16.8681 64.6236 17.093 64.5152 17.378C64.4092 17.663 64.3562 17.9846 64.3562 18.3426C64.3562 18.7053 64.4104 19.0315 64.5187 19.3213C64.6271 19.611 64.7873 19.8406 64.9992 20.0102C65.2136 20.1775 65.4774 20.2611 65.7907 20.2611ZM78.8797 16.1732H77.7774C77.735 15.9377 77.6561 15.7304 77.5407 15.5514C77.4252 15.3724 77.2839 15.2205 77.1167 15.0956C76.9495 14.9708 76.7622 14.8766 76.5549 14.813C76.35 14.7494 76.1321 14.7176 75.9013 14.7176C75.4844 14.7176 75.111 14.8224 74.7813 15.032C74.4539 15.2417 74.1948 15.549 74.004 15.9542C73.8155 16.3593 73.7213 16.8539 73.7213 17.4381C73.7213 18.027 73.8155 18.5239 74.004 18.9291C74.1948 19.3342 74.455 19.6404 74.7848 19.8477C75.1146 20.055 75.4855 20.1586 75.8978 20.1586C76.1262 20.1586 76.3429 20.128 76.5479 20.0668C76.7551 20.0032 76.9424 19.9101 77.1096 19.7876C77.2769 19.6652 77.4182 19.5156 77.5336 19.3389C77.6514 19.1599 77.7326 18.955 77.7774 18.7242L78.8797 18.7277C78.8208 19.0834 78.7066 19.4108 78.537 19.7099C78.3698 20.0067 78.1543 20.2634 77.8904 20.4801C77.629 20.6945 77.3299 20.8605 76.993 20.9783C76.6562 21.0961 76.2888 21.155 75.8907 21.155C75.2641 21.155 74.7059 21.0066 74.216 20.7098C73.726 20.4107 73.3397 19.9831 73.0571 19.4273C72.7768 18.8714 72.6366 18.2083 72.6366 17.4381C72.6366 16.6655 72.778 16.0025 73.0606 15.4489C73.3433 14.893 73.7296 14.4667 74.2195 14.1699C74.7094 13.8708 75.2665 13.7212 75.8907 13.7212C76.2746 13.7212 76.6326 13.7766 76.9648 13.8873C77.2992 13.9956 77.5996 14.1558 77.8657 14.3678C78.1319 14.5774 78.3521 14.8342 78.5264 15.138C78.7007 15.4395 78.8185 15.7846 78.8797 16.1732ZM84.3316 15.721C84.2939 15.3865 84.1385 15.1274 83.8653 14.9437C83.592 14.7576 83.2481 14.6646 82.8336 14.6646C82.5368 14.6646 82.28 14.7117 82.0633 14.8059C81.8466 14.8978 81.6782 15.0249 81.5581 15.1875C81.4403 15.3476 81.3814 15.5302 81.3814 15.7351C81.3814 15.9071 81.4215 16.0555 81.5016 16.1803C81.584 16.3051 81.6912 16.4099 81.8231 16.4947C81.9574 16.5772 82.101 16.6467 82.2541 16.7032C82.4072 16.7574 82.5545 16.8021 82.6958 16.8375L83.4024 17.0212C83.6332 17.0777 83.87 17.1543 84.1126 17.2508C84.3552 17.3474 84.5801 17.4746 84.7874 17.6324C84.9947 17.7902 85.1619 17.9857 85.2891 18.2189C85.4187 18.4521 85.4834 18.7312 85.4834 19.0563C85.4834 19.4661 85.3774 19.83 85.1655 20.148C84.9558 20.466 84.6508 20.7169 84.2504 20.9006C83.8523 21.0843 83.3706 21.1762 82.8053 21.1762C82.2636 21.1762 81.7948 21.0902 81.3991 20.9182C81.0034 20.7463 80.6937 20.5025 80.4699 20.1869C80.2461 19.8689 80.1225 19.492 80.0989 19.0563H81.1942C81.2154 19.3177 81.3002 19.5356 81.4486 19.7099C81.5993 19.8819 81.7913 20.0102 82.0245 20.095C82.26 20.1775 82.5179 20.2187 82.7982 20.2187C83.1068 20.2187 83.3812 20.1704 83.6215 20.0738C83.8641 19.9749 84.0549 19.8383 84.1938 19.664C84.3328 19.4873 84.4023 19.2812 84.4023 19.0457C84.4023 18.8313 84.3411 18.6559 84.2186 18.5192C84.0984 18.3826 83.9347 18.2696 83.7275 18.1801C83.5225 18.0905 83.2905 18.0116 83.0314 17.9433L82.1764 17.7101C81.597 17.5523 81.1377 17.3203 80.7985 17.0141C80.4617 16.7079 80.2932 16.3028 80.2932 15.7987C80.2932 15.3818 80.4063 15.0179 80.6324 14.707C80.8585 14.396 81.1647 14.1546 81.551 13.9827C81.9373 13.8084 82.3731 13.7212 82.8583 13.7212C83.3482 13.7212 83.7805 13.8072 84.155 13.9791C84.5318 14.1511 84.8286 14.3878 85.0453 14.6893C85.262 14.9884 85.3751 15.3323 85.3845 15.721H84.3316ZM90.9336 15.721C90.8959 15.3865 90.7404 15.1274 90.4672 14.9437C90.194 14.7576 89.8501 14.6646 89.4355 14.6646C89.1387 14.6646 88.882 14.7117 88.6653 14.8059C88.4486 14.8978 88.2802 15.0249 88.1601 15.1875C88.0423 15.3476 87.9834 15.5302 87.9834 15.7351C87.9834 15.9071 88.0234 16.0555 88.1035 16.1803C88.186 16.3051 88.2931 16.4099 88.425 16.4947C88.5593 16.5772 88.703 16.6467 88.8561 16.7032C89.0092 16.7574 89.1564 16.8021 89.2977 16.8375L90.0044 17.0212C90.2352 17.0777 90.4719 17.1543 90.7145 17.2508C90.9571 17.3474 91.1821 17.4746 91.3894 17.6324C91.5966 17.7902 91.7639 17.9857 91.8911 18.2189C92.0206 18.4521 92.0854 18.7312 92.0854 19.0563C92.0854 19.4661 91.9794 19.83 91.7674 20.148C91.5578 20.466 91.2527 20.7169 90.8523 20.9006C90.4542 21.0843 89.9726 21.1762 89.4073 21.1762C88.8655 21.1762 88.3968 21.0902 88.0011 20.9182C87.6053 20.7463 87.2956 20.5025 87.0718 20.1869C86.8481 19.8689 86.7244 19.492 86.7009 19.0563H87.7961C87.8173 19.3177 87.9021 19.5356 88.0505 19.7099C88.2013 19.8819 88.3932 20.0102 88.6264 20.095C88.862 20.1775 89.1199 20.2187 89.4002 20.2187C89.7088 20.2187 89.9832 20.1704 90.2234 20.0738C90.466 19.9749 90.6568 19.8383 90.7958 19.664C90.9348 19.4873 91.0042 19.2812 91.0042 19.0457C91.0042 18.8313 90.943 18.6559 90.8205 18.5192C90.7004 18.3826 90.5367 18.2696 90.3294 18.1801C90.1245 18.0905 89.8925 18.0116 89.6334 17.9433L88.7784 17.7101C88.1989 17.5523 87.7396 17.3203 87.4004 17.0141C87.0636 16.7079 86.8952 16.3028 86.8952 15.7987C86.8952 15.3818 87.0082 15.0179 87.2344 14.707C87.4605 14.396 87.7667 14.1546 88.153 13.9827C88.5393 13.8084 88.975 13.7212 89.4603 13.7212C89.9502 13.7212 90.3824 13.8072 90.7569 13.9791C91.1338 14.1511 91.4306 14.3878 91.6473 14.6893C91.864 14.9884 91.977 15.3323 91.9865 15.721H90.9336Z" fill="black"/>
<defs>
<clipPath id="clip0_19_34">
<rect width="17.056" height="17.056" fill="white" transform="translate(8.52802 8.52802)"/>
</clipPath>
</defs>
</svg>
