<svg width="72" height="24" viewBox="0 0 72 24" fill="none" xmlns="http://www.w3.org/2000/svg">
<rect width="72" height="24" rx="6" fill="white"/>
<g clip-path="url(#clip0_19_34)">
<path d="M12.0004 8.40018C10.4003 8.40018 9.40069 9.19987 9.00037 10.7999C9.60019 10.0001 10.3004 9.70022 11.1002 9.90018C11.5568 10.014 11.8832 10.3451 12.2446 10.7121C12.8328 11.309 13.5136 12 15.0004 12C16.6003 12 17.6001 11.2002 18.0004 9.59981C17.4005 10.4001 16.7003 10.7 15.9005 10.5C15.4439 10.3861 15.1179 10.0551 14.7561 9.68812C14.1682 9.09122 13.4876 8.40018 12.0004 8.40018ZM9.00037 12C7.40044 12 6.40069 12.7998 6.00037 14.4002C6.60019 13.5999 7.30031 13.3 8.10019 13.5C8.55684 13.6139 8.88319 13.9449 9.24459 14.3119C9.83278 14.9088 10.5136 15.5998 12.0004 15.5998C13.6003 15.5998 14.6001 14.8001 15.0004 13.2001C14.4005 13.9999 13.7003 14.2998 12.9005 14.0998C12.4439 13.986 12.1179 13.6549 11.7561 13.2879C11.1682 12.691 10.4876 12 9.00037 12Z" fill="#38BDF8"/>
</g>
<path d="M20.3082 10.5703V9.90909H24.2482V10.5703H22.6598V15H21.8942V10.5703H20.3082ZM25.7908 15.0845C25.5489 15.0845 25.3301 15.0398 25.1346 14.9503C24.939 14.8591 24.7841 14.7274 24.6697 14.555C24.5571 14.3827 24.5007 14.1714 24.5007 13.9212C24.5007 13.7057 24.5421 13.5284 24.625 13.3892C24.7079 13.25 24.8197 13.1398 24.9606 13.0586C25.1014 12.9774 25.2589 12.9161 25.4329 12.8746C25.6069 12.8332 25.7842 12.8017 25.9648 12.7802C26.1935 12.7537 26.3791 12.7321 26.5217 12.7156C26.6642 12.6973 26.7678 12.6683 26.8324 12.6286C26.897 12.5888 26.9293 12.5241 26.9293 12.4347V12.4173C26.9293 12.2002 26.868 12.032 26.7454 11.9126C26.6244 11.7933 26.4438 11.7337 26.2035 11.7337C25.9532 11.7337 25.756 11.7892 25.6119 11.9002C25.4693 12.0096 25.3707 12.1314 25.316 12.2656L24.6175 12.1065C24.7004 11.8745 24.8214 11.6873 24.9805 11.5447C25.1412 11.4006 25.326 11.2962 25.5348 11.2315C25.7436 11.1652 25.9632 11.1321 26.1935 11.1321C26.346 11.1321 26.5076 11.1503 26.6783 11.1868C26.8506 11.2216 27.0114 11.2862 27.1605 11.3807C27.3113 11.4751 27.4348 11.6102 27.5309 11.7859C27.627 11.9599 27.6751 12.1861 27.6751 12.4645V15H26.9492V14.478H26.9194C26.8713 14.5741 26.7992 14.6686 26.7031 14.7614C26.607 14.8542 26.4835 14.9312 26.3327 14.9925C26.1819 15.0539 26.0013 15.0845 25.7908 15.0845ZM25.9524 14.4879C26.1579 14.4879 26.3336 14.4473 26.4794 14.3661C26.6269 14.2849 26.7388 14.1789 26.815 14.0479C26.8929 13.9154 26.9318 13.7737 26.9318 13.6229V13.1307C26.9053 13.1572 26.8539 13.1821 26.7777 13.2053C26.7031 13.2268 26.6178 13.2459 26.5217 13.2624C26.4255 13.2773 26.3319 13.2914 26.2408 13.3047C26.1496 13.3163 26.0734 13.3262 26.0121 13.3345C25.8679 13.3527 25.7361 13.3834 25.6168 13.4265C25.4992 13.4696 25.4047 13.5317 25.3334 13.6129C25.2638 13.6925 25.229 13.7985 25.229 13.9311C25.229 14.1151 25.297 14.2543 25.4329 14.3487C25.5688 14.4415 25.7419 14.4879 25.9524 14.4879ZM28.805 15V11.1818H29.5483V15H28.805ZM29.1804 10.5927C29.0511 10.5927 28.9401 10.5496 28.8473 10.4634C28.7561 10.3756 28.7106 10.2712 28.7106 10.1502C28.7106 10.0276 28.7561 9.92318 28.8473 9.837C28.9401 9.74917 29.0511 9.70526 29.1804 9.70526C29.3097 9.70526 29.4199 9.74917 29.511 9.837C29.6038 9.92318 29.6502 10.0276 29.6502 10.1502C29.6502 10.2712 29.6038 10.3756 29.511 10.4634C29.4199 10.5496 29.3097 10.5927 29.1804 10.5927ZM31.4315 9.90909V15H30.6882V9.90909H31.4315ZM33.3991 15L32.2756 11.1818H33.0437L33.7919 13.9858H33.8292L34.5799 11.1818H35.348L36.0937 13.9734H36.131L36.8743 11.1818H37.6424L36.5213 15H35.7631L34.9876 12.2433H34.9304L34.1548 15H33.3991ZM38.4877 15V11.1818H39.231V15H38.4877ZM38.8631 10.5927C38.7338 10.5927 38.6228 10.5496 38.53 10.4634C38.4388 10.3756 38.3933 10.2712 38.3933 10.1502C38.3933 10.0276 38.4388 9.92318 38.53 9.837C38.6228 9.74917 38.7338 9.70526 38.8631 9.70526C38.9923 9.70526 39.1026 9.74917 39.1937 9.837C39.2865 9.92318 39.3329 10.0276 39.3329 10.1502C39.3329 10.2712 39.2865 10.3756 39.1937 10.4634C39.1026 10.5496 38.9923 10.5927 38.8631 10.5927ZM41.1141 12.733V15H40.3709V11.1818H41.0843V11.8033H41.1315C41.2194 11.6011 41.3569 11.4387 41.5442 11.3161C41.7331 11.1934 41.9709 11.1321 42.2576 11.1321C42.5178 11.1321 42.7457 11.1868 42.9412 11.2962C43.1368 11.4039 43.2884 11.5646 43.3961 11.7784C43.5038 11.9922 43.5577 12.2565 43.5577 12.5714V15H42.8144V12.6609C42.8144 12.3841 42.7423 12.1679 42.5982 12.0121C42.454 11.8546 42.256 11.7759 42.0041 11.7759C41.8317 11.7759 41.6784 11.8132 41.5442 11.8878C41.4116 11.9624 41.3064 12.0717 41.2285 12.2159C41.1523 12.3584 41.1141 12.5308 41.1141 12.733ZM46.1238 15.0746C45.8156 15.0746 45.5405 14.9959 45.2985 14.8384C45.0582 14.6793 44.8693 14.4531 44.7318 14.1598C44.5959 13.8648 44.5279 13.511 44.5279 13.0984C44.5279 12.6857 44.5967 12.3327 44.7343 12.0394C44.8735 11.7461 45.064 11.5215 45.306 11.3658C45.5479 11.21 45.8222 11.1321 46.1288 11.1321C46.3658 11.1321 46.5563 11.1719 46.7005 11.2514C46.8464 11.3293 46.959 11.4205 47.0386 11.5249C47.1198 11.6293 47.1828 11.7212 47.2275 11.8008H47.2723V9.90909H48.0155V15H47.2897V14.4059H47.2275C47.1828 14.4871 47.1181 14.5799 47.0336 14.6843C46.9508 14.7887 46.8364 14.8799 46.6906 14.9577C46.5447 15.0356 46.3558 15.0746 46.1238 15.0746ZM46.2879 14.4407C46.5017 14.4407 46.6823 14.3844 46.8298 14.2717C46.9789 14.1573 47.0916 13.9991 47.1679 13.7969C47.2457 13.5947 47.2847 13.3594 47.2847 13.0909C47.2847 12.8258 47.2466 12.5937 47.1703 12.3949C47.0941 12.196 46.9822 12.0411 46.8348 11.93C46.6873 11.819 46.505 11.7635 46.2879 11.7635C46.0642 11.7635 45.8777 11.8215 45.7286 11.9375C45.5794 12.0535 45.4667 12.2118 45.3905 12.4123C45.3159 12.6128 45.2787 12.839 45.2787 13.0909C45.2787 13.3461 45.3168 13.5756 45.393 13.7795C45.4692 13.9833 45.5819 14.1449 45.7311 14.2642C45.8819 14.3819 46.0675 14.4407 46.2879 14.4407ZM55.4969 11.5646H54.7213C54.6915 11.3989 54.6359 11.2531 54.5547 11.1271C54.4735 11.0012 54.3741 10.8943 54.2564 10.8065C54.1388 10.7186 54.007 10.6523 53.8612 10.6076C53.717 10.5629 53.5637 10.5405 53.4013 10.5405C53.108 10.5405 52.8453 10.6142 52.6133 10.7617C52.383 10.9092 52.2007 11.1255 52.0665 11.4105C51.9339 11.6955 51.8676 12.0436 51.8676 12.4545C51.8676 12.8688 51.9339 13.2185 52.0665 13.5036C52.2007 13.7886 52.3838 14.004 52.6158 14.1499C52.8478 14.2957 53.1088 14.3686 53.3988 14.3686C53.5596 14.3686 53.7121 14.3471 53.8562 14.304C54.0021 14.2592 54.1338 14.1938 54.2515 14.1076C54.3691 14.0214 54.4686 13.9162 54.5498 13.7919C54.6326 13.666 54.6898 13.5218 54.7213 13.3594L55.4969 13.3619C55.4554 13.6121 55.3751 13.8424 55.2557 14.0529C55.1381 14.2617 54.9864 14.4424 54.8008 14.5948C54.6169 14.7456 54.4064 14.8625 54.1694 14.9453C53.9325 15.0282 53.6739 15.0696 53.3939 15.0696C52.9531 15.0696 52.5603 14.9652 52.2156 14.7564C51.8709 14.5459 51.5991 14.2451 51.4003 13.854C51.2031 13.4629 51.1045 12.9964 51.1045 12.4545C51.1045 11.911 51.2039 11.4445 51.4028 11.055C51.6016 10.6639 51.8734 10.364 52.2181 10.1552C52.5628 9.94472 52.9547 9.83949 53.3939 9.83949C53.664 9.83949 53.9159 9.87843 54.1496 9.95632C54.3849 10.0326 54.5962 10.1452 54.7834 10.2944C54.9707 10.4419 55.1256 10.6225 55.2483 10.8363C55.3709 11.0484 55.4538 11.2912 55.4969 11.5646ZM59.3326 11.2464C59.3061 11.0111 59.1967 10.8288 59.0045 10.6996C58.8123 10.5687 58.5703 10.5032 58.2786 10.5032C58.0698 10.5032 57.8892 10.5363 57.7367 10.6026C57.5843 10.6673 57.4658 10.7567 57.3813 10.8711C57.2984 10.9838 57.257 11.1122 57.257 11.2564C57.257 11.3774 57.2852 11.4818 57.3415 11.5696C57.3995 11.6574 57.4749 11.7312 57.5677 11.7908C57.6622 11.8488 57.7633 11.8977 57.871 11.9375C57.9787 11.9756 58.0823 12.0071 58.1817 12.032L58.6789 12.1612C58.8413 12.201 59.0078 12.2549 59.1785 12.3228C59.3492 12.3907 59.5075 12.4802 59.6533 12.5913C59.7991 12.7023 59.9168 12.8398 60.0063 13.0039C60.0974 13.168 60.143 13.3643 60.143 13.593C60.143 13.8814 60.0684 14.1374 59.9193 14.3612C59.7718 14.5849 59.5572 14.7614 59.2754 14.8906C58.9954 15.0199 58.6565 15.0845 58.2588 15.0845C57.8776 15.0845 57.5478 15.024 57.2694 14.9031C56.991 14.7821 56.7731 14.6106 56.6156 14.3885C56.4582 14.1648 56.3712 13.8996 56.3546 13.593H57.1252C57.1401 13.777 57.1998 13.9303 57.3042 14.0529C57.4103 14.1739 57.5453 14.2642 57.7094 14.3239C57.8751 14.3819 58.0566 14.4109 58.2538 14.4109C58.4709 14.4109 58.6639 14.3769 58.833 14.3089C59.0037 14.2393 59.1379 14.1432 59.2357 14.0206C59.3334 13.8963 59.3823 13.7513 59.3823 13.5856C59.3823 13.4348 59.3392 13.3113 59.2531 13.2152C59.1686 13.1191 59.0534 13.0395 58.9075 12.9766C58.7634 12.9136 58.6001 12.8581 58.4178 12.81L57.8163 12.646C57.4086 12.5349 57.0855 12.3717 56.8468 12.1562C56.6098 11.9408 56.4914 11.6558 56.4914 11.3011C56.4914 11.0078 56.5709 10.7518 56.73 10.533C56.8891 10.3143 57.1045 10.1444 57.3763 10.0234C57.6481 9.9008 57.9547 9.83949 58.296 9.83949C58.6407 9.83949 58.9448 9.89998 59.2083 10.021C59.4735 10.1419 59.6823 10.3085 59.8347 10.5206C59.9872 10.7311 60.0668 10.973 60.0734 11.2464H59.3326ZM63.9775 11.2464C63.951 11.0111 63.8416 10.8288 63.6494 10.6996C63.4571 10.5687 63.2152 10.5032 62.9235 10.5032C62.7147 10.5032 62.5341 10.5363 62.3816 10.6026C62.2292 10.6673 62.1107 10.7567 62.0262 10.8711C61.9433 10.9838 61.9019 11.1122 61.9019 11.2564C61.9019 11.3774 61.93 11.4818 61.9864 11.5696C62.0444 11.6574 62.1198 11.7312 62.2126 11.7908C62.307 11.8488 62.4081 11.8977 62.5159 11.9375C62.6236 11.9756 62.7271 12.0071 62.8266 12.032L63.3237 12.1612C63.4861 12.201 63.6527 12.2549 63.8234 12.3228C63.9941 12.3907 64.1523 12.4802 64.2982 12.5913C64.444 12.7023 64.5617 12.8398 64.6512 13.0039C64.7423 13.168 64.7879 13.3643 64.7879 13.593C64.7879 13.8814 64.7133 14.1374 64.5641 14.3612C64.4167 14.5849 64.2021 14.7614 63.9203 14.8906C63.6403 15.0199 63.3014 15.0845 62.9036 15.0845C62.5225 15.0845 62.1927 15.024 61.9143 14.9031C61.6359 14.7821 61.418 14.6106 61.2605 14.3885C61.1031 14.1648 61.0161 13.8996 60.9995 13.593H61.7701C61.785 13.777 61.8447 13.9303 61.9491 14.0529C62.0552 14.1739 62.1902 14.2642 62.3543 14.3239C62.52 14.3819 62.7015 14.4109 62.8987 14.4109C63.1158 14.4109 63.3088 14.3769 63.4779 14.3089C63.6485 14.2393 63.7828 14.1432 63.8806 14.0206C63.9783 13.8963 64.0272 13.7513 64.0272 13.5856C64.0272 13.4348 63.9841 13.3113 63.898 13.2152C63.8134 13.1191 63.6983 13.0395 63.5524 12.9766C63.4083 12.9136 63.245 12.8581 63.0627 12.81L62.4612 12.646C62.0535 12.5349 61.7303 12.3717 61.4917 12.1562C61.2547 11.9408 61.1362 11.6558 61.1362 11.3011C61.1362 11.0078 61.2158 10.7518 61.3749 10.533C61.534 10.3143 61.7494 10.1444 62.0212 10.0234C62.293 9.9008 62.5995 9.83949 62.9409 9.83949C63.2856 9.83949 63.5897 9.89998 63.8532 10.021C64.1184 10.1419 64.3272 10.3085 64.4796 10.5206C64.6321 10.7311 64.7116 10.973 64.7183 11.2464H63.9775Z" fill="black"/>
<defs>
<clipPath id="clip0_19_34">
<rect width="12" height="12" fill="white" transform="translate(6 6)"/>
</clipPath>
</defs>
</svg>
