<svg width="91" height="35" viewBox="0 0 91 35" fill="none" xmlns="http://www.w3.org/2000/svg">
<rect width="90.9656" height="34.1121" rx="8.52802" fill="url(#paint0_linear_19_38)"/>
<g clip-path="url(#clip0_19_38)">
<path d="M11.5488 14.7908H24.8299V24.6073H11.5488V14.7908Z" fill="white"/>
<path d="M8.72791 17.044V25.3722H25.3842V8.7159H8.72791V17.044ZM22.1502 16.3778C22.5491 16.4704 22.9117 16.679 23.1922 16.9774C23.3466 17.1382 23.4809 17.3172 23.592 17.5104C23.592 17.5317 22.8724 18.0181 22.434 18.2899C22.418 18.3006 22.3541 18.2313 22.2835 18.126C22.2034 17.9879 22.0897 17.8724 21.9529 17.7901C21.8162 17.7079 21.6608 17.6616 21.5013 17.6557C20.9963 17.621 20.6711 17.8862 20.6738 18.3219C20.6696 18.4304 20.6945 18.538 20.7458 18.6337C20.8564 18.8642 21.0629 19.0015 21.7105 19.2813C22.9031 19.7943 23.4134 20.1328 23.7306 20.6138C24.085 21.1468 24.1636 22.0076 23.9238 22.6446C23.6573 23.3375 23.0043 23.8078 22.0809 23.9637C21.6592 24.012 21.233 24.0076 20.8124 23.9504C20.1677 23.8441 19.5738 23.5346 19.1174 23.067C18.9642 22.8977 18.6657 22.4567 18.6844 22.4247C18.733 22.3886 18.7842 22.3561 18.8376 22.3274L19.4546 21.9863L19.9329 21.7091L20.0329 21.857C20.2015 22.0983 20.4162 22.3039 20.6645 22.462C21.1975 22.7418 21.925 22.7032 22.2848 22.3794C22.4056 22.2607 22.4809 22.1035 22.4977 21.935C22.5145 21.7665 22.4717 21.5975 22.3767 21.4573C22.2435 21.2721 21.977 21.1162 21.2321 20.791C20.3727 20.4206 20.0022 20.1914 19.6638 19.8263C19.4525 19.5854 19.2965 19.3011 19.2067 18.9935C19.1398 18.642 19.1299 18.2821 19.1774 17.9275C19.3546 17.0973 19.9769 16.5177 20.8857 16.3458C21.3065 16.2937 21.7328 16.3054 22.1502 16.3805V16.3778ZM18.2406 17.076V17.7583H16.078V23.9184H14.5443V17.7569H12.3763V17.0907C12.3695 16.8609 12.3749 16.631 12.3923 16.4018C12.4029 16.3898 13.7248 16.3898 15.3238 16.3898H18.2327L18.2406 17.076Z" fill="#007ACC"/>
</g>
<path d="M28.8648 14.76V13.8201H34.4649V14.76H32.2072V21.056H31.119V14.76H28.8648ZM35.8625 23.0911C35.7047 23.0911 35.561 23.0782 35.4314 23.0523C35.3019 23.0287 35.2053 23.0028 35.1417 22.9745L35.3961 22.1089C35.5893 22.1607 35.7612 22.1831 35.912 22.1761C36.0627 22.169 36.1958 22.1125 36.3112 22.0065C36.429 21.9005 36.5326 21.7273 36.6221 21.4871L36.7528 21.1267L34.7672 15.6291H35.8978L37.2722 19.8406H37.3288L38.7031 15.6291H39.8373L37.6008 21.7803C37.4972 22.063 37.3653 22.3021 37.2051 22.4976C37.0449 22.6954 36.8541 22.8438 36.6327 22.9427C36.4113 23.0417 36.1546 23.0911 35.8625 23.0911ZM41.0291 23.0911V15.6291H42.0608V16.5089H42.1491C42.2103 16.3958 42.2987 16.2651 42.4141 16.1167C42.5295 15.9683 42.6897 15.8388 42.8946 15.7281C43.0995 15.615 43.3704 15.5585 43.7072 15.5585C44.1453 15.5585 44.5363 15.6692 44.8802 15.8906C45.2241 16.112 45.4938 16.4311 45.6893 16.8481C45.8872 17.265 45.9861 17.7667 45.9861 18.3532C45.9861 18.9397 45.8884 19.4426 45.6929 19.8618C45.4974 20.2788 45.2288 20.6003 44.8873 20.8264C44.5458 21.0502 44.1559 21.162 43.7178 21.162C43.3881 21.162 43.1184 21.1067 42.9087 20.996C42.7015 20.8853 42.5389 20.7557 42.4212 20.6073C42.3034 20.4589 42.2127 20.327 42.1491 20.2116H42.0855V23.0911H41.0291ZM42.0643 18.3426C42.0643 18.7242 42.1197 19.0586 42.2304 19.346C42.3411 19.6334 42.5012 19.8583 42.7109 20.0208C42.9205 20.181 43.1773 20.2611 43.4811 20.2611C43.7967 20.2611 44.0605 20.1775 44.2725 20.0102C44.4845 19.8406 44.6447 19.611 44.753 19.3213C44.8637 19.0315 44.9191 18.7053 44.9191 18.3426C44.9191 17.9846 44.8649 17.663 44.7566 17.378C44.6506 17.093 44.4904 16.8681 44.2761 16.7032C44.0641 16.5383 43.7991 16.4559 43.4811 16.4559C43.1749 16.4559 42.9158 16.5348 42.7038 16.6926C42.4942 16.8504 42.3352 17.0706 42.2268 17.3533C42.1185 17.636 42.0643 17.9657 42.0643 18.3426ZM49.7076 21.1656C49.173 21.1656 48.7125 21.0513 48.3262 20.8229C47.9422 20.592 47.6455 20.2682 47.4358 19.8512C47.2286 19.432 47.1249 18.9409 47.1249 18.3779C47.1249 17.822 47.2286 17.3321 47.4358 16.9081C47.6455 16.4841 47.9375 16.1532 48.3121 15.9153C48.6889 15.6774 49.1294 15.5585 49.6335 15.5585C49.9397 15.5585 50.2364 15.6091 50.5238 15.7104C50.8112 15.8117 51.0691 15.9707 51.2976 16.1874C51.526 16.4041 51.7062 16.6855 51.8381 17.0318C51.97 17.3757 52.036 17.7938 52.036 18.2861V18.6606H47.722V17.8691H51.0008C51.0008 17.5912 50.9443 17.3451 50.8312 17.1307C50.7181 16.914 50.5591 16.7432 50.3542 16.6184C50.1516 16.4936 49.9137 16.4311 49.6405 16.4311C49.3437 16.4311 49.0846 16.5042 48.8632 16.6502C48.6442 16.7939 48.4746 16.9823 48.3545 17.2155C48.2367 17.4463 48.1778 17.6972 48.1778 17.9681V18.5864C48.1778 18.9491 48.2414 19.2577 48.3686 19.5121C48.4981 19.7664 48.6783 19.9608 48.9092 20.095C49.14 20.2269 49.4097 20.2929 49.7182 20.2929C49.9185 20.2929 50.101 20.2646 50.2659 20.2081C50.4308 20.1492 50.5733 20.0621 50.6934 19.9466C50.8135 19.8312 50.9054 19.6887 50.969 19.5191L51.9689 19.6993C51.8888 19.9937 51.7451 20.2517 51.5378 20.4731C51.3329 20.6921 51.075 20.8629 50.7641 20.9854C50.4555 21.1055 50.1034 21.1656 49.7076 21.1656ZM57.4384 15.721C57.4007 15.3865 57.2453 15.1274 56.9721 14.9437C56.6988 14.7576 56.3549 14.6646 55.9404 14.6646C55.6436 14.6646 55.3868 14.7117 55.1701 14.8059C54.9534 14.8978 54.785 15.025 54.6649 15.1875C54.5471 15.3476 54.4882 15.5302 54.4882 15.7351C54.4882 15.9071 54.5283 16.0555 54.6084 16.1803C54.6908 16.3051 54.798 16.4099 54.9299 16.4947C55.0642 16.5772 55.2078 16.6467 55.3609 16.7032C55.514 16.7574 55.6613 16.8021 55.8026 16.8375L56.5092 17.0212C56.74 17.0777 56.9768 17.1543 57.2194 17.2508C57.462 17.3474 57.6869 17.4746 57.8942 17.6324C58.1015 17.7902 58.2687 17.9857 58.3959 18.2189C58.5255 18.4521 58.5902 18.7312 58.5902 19.0563C58.5902 19.4661 58.4842 19.83 58.2723 20.148C58.0626 20.466 57.7576 20.7169 57.3572 20.9006C56.9591 21.0843 56.4774 21.1762 55.9121 21.1762C55.3704 21.1762 54.9016 21.0902 54.5059 20.9183C54.1102 20.7463 53.8005 20.5025 53.5767 20.1869C53.3529 19.8689 53.2293 19.492 53.2057 19.0563H54.301C54.3222 19.3177 54.407 19.5356 54.5554 19.7099C54.7061 19.8819 54.8981 20.0102 55.1313 20.095C55.3668 20.1775 55.6247 20.2187 55.905 20.2187C56.2136 20.2187 56.488 20.1704 56.7283 20.0738C56.9709 19.9749 57.1617 19.8383 57.3006 19.664C57.4396 19.4873 57.5091 19.2812 57.5091 19.0457C57.5091 18.8313 57.4479 18.6559 57.3254 18.5192C57.2052 18.3826 57.0415 18.2696 56.8343 18.1801C56.6293 18.0906 56.3973 18.0116 56.1382 17.9433L55.2832 17.7101C54.7038 17.5523 54.2445 17.3203 53.9053 17.0141C53.5685 16.7079 53.4 16.3028 53.4 15.7987C53.4 15.3818 53.5131 15.0179 53.7392 14.707C53.9653 14.3961 54.2715 14.1546 54.6578 13.9827C55.0441 13.8084 55.4799 13.7212 55.9651 13.7212C56.455 13.7212 56.8873 13.8072 57.2618 13.9791C57.6386 14.1511 57.9354 14.3878 58.1521 14.6893C58.3688 14.9884 58.4819 15.3323 58.4913 15.721H57.4384ZM62.295 21.1656C61.7697 21.1656 61.3175 21.0466 60.9383 20.8087C60.5614 20.5685 60.2717 20.2375 60.0691 19.8159C59.8665 19.3943 59.7653 18.9114 59.7653 18.3673C59.7653 17.8161 59.8689 17.3297 60.0762 16.9081C60.2835 16.4841 60.5755 16.1532 60.9524 15.9153C61.3293 15.6774 61.7733 15.5585 62.2844 15.5585C62.6966 15.5585 63.064 15.635 63.3867 15.7881C63.7094 15.9389 63.9697 16.1509 64.1676 16.4241C64.3678 16.6973 64.4867 17.0165 64.5244 17.3816H63.4963C63.4397 17.1272 63.3102 16.9081 63.1076 16.7244C62.9074 16.5407 62.6389 16.4488 62.3021 16.4488C62.0076 16.4488 61.7497 16.5265 61.5283 16.682C61.3092 16.8351 61.1385 17.0542 61.016 17.3392C60.8935 17.6218 60.8323 17.9563 60.8323 18.3426C60.8323 18.7383 60.8923 19.0798 61.0125 19.3672C61.1326 19.6546 61.3022 19.8772 61.5212 20.035C61.7426 20.1928 62.0029 20.2717 62.3021 20.2717C62.5023 20.2717 62.6836 20.2352 62.8462 20.1622C63.0111 20.0868 63.1488 19.9796 63.2595 19.8406C63.3726 19.7017 63.4515 19.5344 63.4963 19.3389H64.5244C64.4867 19.6899 64.3725 20.0032 64.1817 20.2788C63.9909 20.5543 63.7353 20.771 63.415 20.9289C63.097 21.0867 62.7237 21.1656 62.295 21.1656ZM65.8531 21.056V15.6291H66.8742V16.4912H66.9307C67.0297 16.1991 67.204 15.9695 67.4536 15.8022C67.7057 15.6327 67.9907 15.5479 68.3087 15.5479C68.3746 15.5479 68.4524 15.5502 68.5419 15.5549C68.6337 15.5596 68.7056 15.5655 68.7574 15.5726V16.5831C68.715 16.5713 68.6396 16.5583 68.5313 16.5442C68.4229 16.5277 68.3146 16.5195 68.2062 16.5195C67.9565 16.5195 67.7339 16.5725 67.5384 16.6785C67.3453 16.7821 67.1922 16.927 67.0791 17.113C66.9661 17.2968 66.9095 17.5064 66.9095 17.7419V21.056H65.8531ZM69.8706 21.056V15.6291H70.927V21.056H69.8706ZM70.4041 14.7918C70.2204 14.7918 70.0625 14.7305 69.9306 14.608C69.8011 14.4832 69.7363 14.3348 69.7363 14.1629C69.7363 13.9886 69.8011 13.8402 69.9306 13.7177C70.0625 13.5928 70.2204 13.5304 70.4041 13.5304C70.5878 13.5304 70.7444 13.5928 70.874 13.7177C71.0059 13.8402 71.0718 13.9886 71.0718 14.1629C71.0718 14.3348 71.0059 14.4832 70.874 14.608C70.7444 14.7305 70.5878 14.7918 70.4041 14.7918ZM72.5472 23.0911V15.6291H73.5789V16.5089H73.6672C73.7284 16.3958 73.8168 16.2651 73.9322 16.1167C74.0476 15.9683 74.2078 15.8388 74.4127 15.7281C74.6176 15.615 74.8885 15.5585 75.2253 15.5585C75.6634 15.5585 76.0544 15.6692 76.3983 15.8906C76.7422 16.112 77.0119 16.4311 77.2074 16.8481C77.4053 17.265 77.5042 17.7667 77.5042 18.3532C77.5042 18.9397 77.4064 19.4426 77.2109 19.8618C77.0154 20.2788 76.7469 20.6003 76.4054 20.8264C76.0638 21.0502 75.674 21.162 75.2359 21.162C74.9062 21.162 74.6365 21.1067 74.4268 20.996C74.2195 20.8853 74.057 20.7557 73.9392 20.6073C73.8215 20.4589 73.7308 20.327 73.6672 20.2116H73.6036V23.0911H72.5472ZM73.5824 18.3426C73.5824 18.7242 73.6378 19.0586 73.7485 19.346C73.8592 19.6334 74.0193 19.8583 74.229 20.0208C74.4386 20.181 74.6953 20.2611 74.9992 20.2611C75.3148 20.2611 75.5786 20.1775 75.7906 20.0102C76.0026 19.8406 76.1628 19.611 76.2711 19.3213C76.3818 19.0315 76.4372 18.7053 76.4372 18.3426C76.4372 17.9846 76.383 17.663 76.2747 17.378C76.1687 17.093 76.0085 16.8681 75.7942 16.7032C75.5822 16.5383 75.3172 16.4559 74.9992 16.4559C74.693 16.4559 74.4339 16.5348 74.2219 16.6926C74.0123 16.8504 73.8533 17.0706 73.7449 17.3533C73.6366 17.636 73.5824 17.9657 73.5824 18.3426ZM81.4201 15.6291V16.4771H78.4557V15.6291H81.4201ZM79.2507 14.3289H80.3071V19.4626C80.3071 19.6675 80.3377 19.8218 80.399 19.9254C80.4602 20.0267 80.5391 20.0962 80.6357 20.1339C80.7346 20.1692 80.8418 20.1869 80.9572 20.1869C81.042 20.1869 81.1162 20.181 81.1798 20.1692C81.2434 20.1574 81.2929 20.148 81.3282 20.141L81.519 21.0136C81.4577 21.0372 81.3706 21.0608 81.2575 21.0843C81.1445 21.1102 81.0031 21.1244 80.8336 21.1267C80.5556 21.1314 80.2965 21.082 80.0563 20.9783C79.816 20.8747 79.6217 20.7145 79.4733 20.4978C79.3249 20.2811 79.2507 20.0091 79.2507 19.6816V14.3289Z" fill="white"/>
<defs>
<linearGradient id="paint0_linear_19_38" x1="93.0976" y1="34.1121" x2="2.13201" y2="-6.42249e-06" gradientUnits="userSpaceOnUse">
<stop stop-color="#FF5858"/>
<stop offset="1" stop-color="#6162A7"/>
</linearGradient>
<clipPath id="clip0_19_38">
<rect width="17.056" height="17.056" fill="white" transform="translate(8.52802 8.52802)"/>
</clipPath>
</defs>
</svg>
