<svg width="64" height="24" viewBox="0 0 64 24" fill="none" xmlns="http://www.w3.org/2000/svg">
<rect width="64" height="24" rx="6" fill="url(#paint0_linear_19_38)"/>
<g clip-path="url(#clip0_19_38)">
<path d="M8.12531 10.4062H17.4694V17.3128H8.12531V10.4062Z" fill="white"/>
<path d="M6.14062 11.9916V17.8509H17.8594V6.13219H6.14062V11.9916ZM15.5841 11.5228C15.8647 11.5879 16.1198 11.7347 16.3172 11.9447C16.4258 12.0578 16.5203 12.1837 16.5984 12.3197C16.5984 12.3347 16.0922 12.6769 15.7838 12.8681C15.7725 12.8756 15.7275 12.8269 15.6778 12.7528C15.6215 12.6557 15.5415 12.5743 15.4453 12.5165C15.349 12.4586 15.2397 12.4261 15.1275 12.4219C14.7722 12.3975 14.5434 12.5841 14.5453 12.8906C14.5424 12.967 14.5599 13.0427 14.5959 13.11C14.6738 13.2722 14.8191 13.3687 15.2747 13.5656C16.1138 13.9266 16.4728 14.1647 16.6959 14.5031C16.9453 14.8781 17.0006 15.4837 16.8319 15.9319C16.6444 16.4194 16.185 16.7503 15.5353 16.86C15.2386 16.894 14.9388 16.8908 14.6428 16.8506C14.1892 16.7759 13.7714 16.5581 13.4503 16.2291C13.3425 16.11 13.1325 15.7997 13.1456 15.7772C13.1798 15.7518 13.2159 15.7289 13.2534 15.7087L13.6875 15.4687L14.0241 15.2737L14.0944 15.3778C14.213 15.5476 14.3641 15.6922 14.5388 15.8034C14.9138 16.0003 15.4256 15.9731 15.6787 15.7453C15.7637 15.6618 15.8168 15.5512 15.8286 15.4327C15.8404 15.3141 15.8103 15.1952 15.7434 15.0966C15.6497 14.9662 15.4622 14.8566 14.9381 14.6278C14.3334 14.3672 14.0728 14.2059 13.8347 13.9491C13.686 13.7796 13.5763 13.5796 13.5131 13.3631C13.466 13.1159 13.4591 12.8626 13.4925 12.6131C13.6172 12.0291 14.055 11.6212 14.6944 11.5003C14.9905 11.4637 15.2904 11.4719 15.5841 11.5247V11.5228ZM12.8334 12.0141V12.4941H11.3119V16.8281H10.2328V12.4931H8.7075V12.0244C8.70275 11.8627 8.7065 11.7009 8.71875 11.5397C8.72625 11.5312 9.65625 11.5312 10.7812 11.5312H12.8278L12.8334 12.0141Z" fill="#007ACC"/>
</g>
<path d="M20.3082 10.5703V9.90909H24.2482V10.5703H22.6598V15H21.8942V10.5703H20.3082ZM25.2315 16.4318C25.1205 16.4318 25.0194 16.4227 24.9283 16.4045C24.8371 16.3879 24.7692 16.3697 24.7244 16.3498L24.9034 15.7408C25.0393 15.7772 25.1603 15.793 25.2663 15.788C25.3724 15.783 25.466 15.7433 25.5472 15.6687C25.6301 15.5941 25.703 15.4723 25.766 15.3033L25.858 15.0497L24.4609 11.1818H25.2564L26.2234 14.1449H26.2631L27.2301 11.1818H28.0281L26.4545 15.5096C26.3816 15.7085 26.2888 15.8767 26.1761 16.0142C26.0634 16.1534 25.9292 16.2578 25.7734 16.3274C25.6177 16.397 25.437 16.4318 25.2315 16.4318ZM28.8666 16.4318V11.1818H29.5924V11.8008H29.6546C29.6976 11.7212 29.7598 11.6293 29.841 11.5249C29.9222 11.4205 30.0349 11.3293 30.1791 11.2514C30.3232 11.1719 30.5138 11.1321 30.7508 11.1321C31.059 11.1321 31.3341 11.21 31.5761 11.3658C31.818 11.5215 32.0078 11.7461 32.1453 12.0394C32.2845 12.3327 32.3541 12.6857 32.3541 13.0984C32.3541 13.511 32.2854 13.8648 32.1478 14.1598C32.0103 14.4531 31.8213 14.6793 31.581 14.8384C31.3408 14.9959 31.0665 15.0746 30.7582 15.0746C30.5262 15.0746 30.3365 15.0356 30.189 14.9577C30.0432 14.8799 29.9288 14.7887 29.846 14.6843C29.7631 14.5799 29.6993 14.4871 29.6546 14.4059H29.6098V16.4318H28.8666ZM29.5949 13.0909C29.5949 13.3594 29.6338 13.5947 29.7117 13.7969C29.7896 13.9991 29.9023 14.1573 30.0498 14.2717C30.1973 14.3844 30.3779 14.4407 30.5917 14.4407C30.8138 14.4407 30.9994 14.3819 31.1485 14.2642C31.2977 14.1449 31.4104 13.9833 31.4866 13.7795C31.5645 13.5756 31.6034 13.3461 31.6034 13.0909C31.6034 12.839 31.5653 12.6128 31.4891 12.4123C31.4145 12.2118 31.3018 12.0535 31.151 11.9375C31.0019 11.8215 30.8154 11.7635 30.5917 11.7635C30.3763 11.7635 30.194 11.819 30.0448 11.93C29.8973 12.0411 29.7855 12.196 29.7092 12.3949C29.633 12.5937 29.5949 12.8258 29.5949 13.0909ZM34.9725 15.0771C34.5963 15.0771 34.2723 14.9967 34.0005 14.8359C33.7304 14.6735 33.5216 14.4457 33.3741 14.1523C33.2283 13.8574 33.1554 13.5118 33.1554 13.1158C33.1554 12.7247 33.2283 12.38 33.3741 12.0817C33.5216 11.7834 33.7271 11.5505 33.9906 11.3832C34.2557 11.2158 34.5656 11.1321 34.9203 11.1321C35.1357 11.1321 35.3445 11.1677 35.5467 11.239C35.7489 11.3103 35.9303 11.4221 36.0911 11.5746C36.2518 11.727 36.3786 11.9251 36.4714 12.1687C36.5642 12.4106 36.6106 12.7048 36.6106 13.0511V13.3146H33.5755V12.7578H35.8823C35.8823 12.5623 35.8425 12.3891 35.763 12.2383C35.6834 12.0858 35.5715 11.9657 35.4274 11.8778C35.2848 11.79 35.1175 11.7461 34.9252 11.7461C34.7164 11.7461 34.5341 11.7975 34.3784 11.9002C34.2242 12.0013 34.1049 12.1339 34.0204 12.2979C33.9375 12.4603 33.8961 12.6368 33.8961 12.8274V13.2624C33.8961 13.5176 33.9409 13.7347 34.0304 13.9137C34.1215 14.0927 34.2483 14.2294 34.4107 14.3239C34.5731 14.4167 34.7628 14.4631 34.9799 14.4631C35.1208 14.4631 35.2492 14.4432 35.3652 14.4034C35.4812 14.362 35.5815 14.3007 35.666 14.2195C35.7505 14.1383 35.8152 14.038 35.8599 13.9187L36.5634 14.0455C36.507 14.2526 36.4059 14.4341 36.2601 14.5898C36.1159 14.744 35.9345 14.8641 35.7157 14.9503C35.4986 15.0348 35.2509 15.0771 34.9725 15.0771ZM40.4116 11.2464C40.385 11.0111 40.2757 10.8288 40.0834 10.6996C39.8912 10.5687 39.6493 10.5032 39.3576 10.5032C39.1488 10.5032 38.9681 10.5363 38.8157 10.6026C38.6632 10.6673 38.5447 10.7567 38.4602 10.8711C38.3774 10.9838 38.3359 11.1122 38.3359 11.2564C38.3359 11.3774 38.3641 11.4818 38.4204 11.5696C38.4784 11.6574 38.5538 11.7312 38.6466 11.7908C38.7411 11.8488 38.8422 11.8977 38.9499 11.9375C39.0576 11.9756 39.1612 12.0071 39.2606 12.032L39.7578 12.1612C39.9202 12.201 40.0868 12.2549 40.2574 12.3228C40.4281 12.3907 40.5864 12.4802 40.7322 12.5913C40.8781 12.7023 40.9957 12.8398 41.0852 13.0039C41.1764 13.168 41.2219 13.3643 41.2219 13.593C41.2219 13.8814 41.1474 14.1374 40.9982 14.3612C40.8507 14.5849 40.6361 14.7614 40.3544 14.8906C40.0743 15.0199 39.7354 15.0845 39.3377 15.0845C38.9565 15.0845 38.6268 15.024 38.3484 14.9031C38.0699 14.7821 37.852 14.6106 37.6946 14.3885C37.5372 14.1648 37.4502 13.8996 37.4336 13.593H38.2042C38.2191 13.777 38.2787 13.9303 38.3832 14.0529C38.4892 14.1739 38.6243 14.2642 38.7883 14.3239C38.9541 14.3819 39.1355 14.4109 39.3327 14.4109C39.5498 14.4109 39.7429 14.3769 39.9119 14.3089C40.0826 14.2393 40.2168 14.1432 40.3146 14.0206C40.4124 13.8963 40.4613 13.7513 40.4613 13.5856C40.4613 13.4348 40.4182 13.3113 40.332 13.2152C40.2475 13.1191 40.1323 13.0395 39.9865 12.9766C39.8423 12.9136 39.6791 12.8581 39.4968 12.81L38.8952 12.646C38.4876 12.5349 38.1644 12.3717 37.9258 12.1562C37.6888 11.9408 37.5703 11.6558 37.5703 11.3011C37.5703 11.0078 37.6498 10.7518 37.8089 10.533C37.968 10.3143 38.1835 10.1444 38.4552 10.0234C38.727 9.9008 39.0336 9.83949 39.375 9.83949C39.7197 9.83949 40.0238 9.89998 40.2873 10.021C40.5524 10.1419 40.7612 10.3085 40.9137 10.5206C41.0662 10.7311 41.1457 10.973 41.1523 11.2464H40.4116ZM43.8285 15.0771C43.4589 15.0771 43.1407 14.9934 42.8739 14.826C42.6088 14.657 42.4049 14.4241 42.2624 14.1275C42.1199 13.8308 42.0486 13.4911 42.0486 13.1083C42.0486 12.7205 42.1216 12.3783 42.2674 12.0817C42.4132 11.7834 42.6187 11.5505 42.8839 11.3832C43.149 11.2158 43.4614 11.1321 43.821 11.1321C44.111 11.1321 44.3695 11.186 44.5966 11.2937C44.8236 11.3997 45.0067 11.5489 45.1459 11.7411C45.2868 11.9334 45.3705 12.1579 45.397 12.4148H44.6736C44.6339 12.2358 44.5427 12.0817 44.4002 11.9524C44.2593 11.8232 44.0704 11.7585 43.8334 11.7585C43.6263 11.7585 43.4448 11.8132 43.289 11.9226C43.1349 12.0303 43.0148 12.1844 42.9286 12.3849C42.8424 12.5838 42.7993 12.8191 42.7993 13.0909C42.7993 13.3693 42.8416 13.6096 42.9261 13.8118C43.0106 14.014 43.13 14.1706 43.2841 14.2816C43.4399 14.3926 43.623 14.4482 43.8334 14.4482C43.9743 14.4482 44.1019 14.4225 44.2162 14.3711C44.3323 14.3181 44.4292 14.2427 44.5071 14.1449C44.5866 14.0471 44.6421 13.9295 44.6736 13.7919H45.397C45.3705 14.0388 45.2901 14.2592 45.1559 14.4531C45.0216 14.647 44.8418 14.7995 44.6165 14.9105C44.3927 15.0215 44.1301 15.0771 43.8285 15.0771ZM46.3318 15V11.1818H47.0502V11.7884H47.09C47.1596 11.5829 47.2822 11.4213 47.4579 11.3036C47.6352 11.1843 47.8357 11.1246 48.0595 11.1246C48.1059 11.1246 48.1605 11.1263 48.2235 11.1296C48.2882 11.1329 48.3387 11.1371 48.3752 11.142V11.853C48.3453 11.8447 48.2923 11.8356 48.2161 11.8256C48.1398 11.814 48.0636 11.8082 47.9874 11.8082C47.8117 11.8082 47.6551 11.8455 47.5176 11.9201C47.3817 11.993 47.2739 12.0949 47.1944 12.2259C47.1149 12.3551 47.0751 12.5026 47.0751 12.6683V15H46.3318ZM49.1584 15V11.1818H49.9016V15H49.1584ZM49.5337 10.5927C49.4044 10.5927 49.2934 10.5496 49.2006 10.4634C49.1095 10.3756 49.0639 10.2712 49.0639 10.1502C49.0639 10.0276 49.1095 9.92318 49.2006 9.837C49.2934 9.74917 49.4044 9.70526 49.5337 9.70526C49.663 9.70526 49.7732 9.74917 49.8643 9.837C49.9571 9.92318 50.0035 10.0276 50.0035 10.1502C50.0035 10.2712 49.9571 10.3756 49.8643 10.4634C49.7732 10.5496 49.663 10.5927 49.5337 10.5927ZM51.0415 16.4318V11.1818H51.7674V11.8008H51.8295C51.8726 11.7212 51.9347 11.6293 52.016 11.5249C52.0972 11.4205 52.2098 11.3293 52.354 11.2514C52.4982 11.1719 52.6888 11.1321 52.9258 11.1321C53.234 11.1321 53.5091 11.21 53.751 11.3658C53.993 11.5215 54.1827 11.7461 54.3203 12.0394C54.4595 12.3327 54.5291 12.6857 54.5291 13.0984C54.5291 13.511 54.4603 13.8648 54.3228 14.1598C54.1852 14.4531 53.9963 14.6793 53.756 14.8384C53.5157 14.9959 53.2414 15.0746 52.9332 15.0746C52.7012 15.0746 52.5115 15.0356 52.364 14.9577C52.2181 14.8799 52.1038 14.7887 52.0209 14.6843C51.9381 14.5799 51.8743 14.4871 51.8295 14.4059H51.7848V16.4318H51.0415ZM51.7699 13.0909C51.7699 13.3594 51.8088 13.5947 51.8867 13.7969C51.9646 13.9991 52.0773 14.1573 52.2248 14.2717C52.3722 14.3844 52.5529 14.4407 52.7667 14.4407C52.9887 14.4407 53.1743 14.3819 53.3235 14.2642C53.4726 14.1449 53.5853 13.9833 53.6615 13.7795C53.7394 13.5756 53.7784 13.3461 53.7784 13.0909C53.7784 12.839 53.7403 12.6128 53.664 12.4123C53.5895 12.2118 53.4768 12.0535 53.326 11.9375C53.1768 11.8215 52.9904 11.7635 52.7667 11.7635C52.5512 11.7635 52.3689 11.819 52.2198 11.93C52.0723 12.0411 51.9604 12.196 51.8842 12.3949C51.808 12.5937 51.7699 12.8258 51.7699 13.0909ZM57.2841 11.1818V11.7784H55.1986V11.1818H57.2841ZM55.7579 10.267H56.5011V13.8789C56.5011 14.0231 56.5227 14.1316 56.5658 14.2045C56.6088 14.2758 56.6644 14.3247 56.7323 14.3512C56.8019 14.3761 56.8773 14.3885 56.9585 14.3885C57.0182 14.3885 57.0704 14.3844 57.1151 14.3761C57.1599 14.3678 57.1947 14.3612 57.2195 14.3562L57.3537 14.9702C57.3107 14.9867 57.2493 15.0033 57.1698 15.0199C57.0903 15.0381 56.9908 15.0481 56.8715 15.0497C56.676 15.053 56.4937 15.0182 56.3246 14.9453C56.1556 14.8724 56.0189 14.7597 55.9145 14.6072C55.8101 14.4548 55.7579 14.2634 55.7579 14.033V10.267Z" fill="white"/>
<defs>
<linearGradient id="paint0_linear_19_38" x1="65.5" y1="24" x2="1.5" y2="-2.16564e-06" gradientUnits="userSpaceOnUse">
<stop stop-color="#FF5858"/>
<stop offset="1" stop-color="#6162A7"/>
</linearGradient>
<clipPath id="clip0_19_38">
<rect width="12" height="12" fill="white" transform="translate(6 6)"/>
</clipPath>
</defs>
</svg>
