<svg width="69" height="35" viewBox="0 0 69 35" fill="none" xmlns="http://www.w3.org/2000/svg">
<rect width="68.2242" height="34.1121" rx="8.52802" fill="white"/>
<g clip-path="url(#clip0_19_64)">
<path d="M17.0539 10.8178L25.5793 25.5841H8.52802L17.0539 10.8178Z" fill="black"/>
</g>
<path d="M29.8541 13.8201L31.868 19.7134H31.9493L33.9632 13.8201H35.1433L32.5393 21.056H31.278L28.6741 13.8201H29.8541ZM38.0972 21.1656C37.5625 21.1656 37.102 21.0513 36.7158 20.8229C36.3318 20.592 36.035 20.2682 35.8254 19.8512C35.6181 19.432 35.5145 18.9409 35.5145 18.3779C35.5145 17.822 35.6181 17.3321 35.8254 16.9081C36.035 16.4841 36.3271 16.1532 36.7016 15.9153C37.0785 15.6774 37.519 15.5585 38.023 15.5585C38.3292 15.5585 38.626 15.6091 38.9134 15.7104C39.2007 15.8117 39.4587 15.9707 39.6871 16.1874C39.9156 16.4041 40.0958 16.6855 40.2277 17.0318C40.3596 17.3757 40.4256 17.7938 40.4256 18.2861V18.6606H36.1116V17.8691H39.3904C39.3904 17.5912 39.3338 17.3451 39.2208 17.1307C39.1077 16.914 38.9487 16.7432 38.7438 16.6184C38.5412 16.4936 38.3033 16.4311 38.0301 16.4311C37.7333 16.4311 37.4742 16.5042 37.2528 16.6502C37.0337 16.7939 36.8642 16.9823 36.744 17.2155C36.6263 17.4463 36.5674 17.6972 36.5674 17.9681V18.5864C36.5674 18.9491 36.631 19.2577 36.7582 19.5121C36.8877 19.7664 37.0679 19.9608 37.2987 20.095C37.5296 20.2269 37.7993 20.2929 38.1078 20.2929C38.308 20.2929 38.4906 20.2646 38.6555 20.2081C38.8203 20.1492 38.9628 20.0621 39.083 19.9466C39.2031 19.8312 39.295 19.6887 39.3586 19.5191L40.3584 19.6993C40.2784 19.9937 40.1347 20.2517 39.9274 20.4731C39.7225 20.6921 39.4646 20.8629 39.1536 20.9854C38.8451 21.1055 38.4929 21.1656 38.0972 21.1656ZM41.7967 21.056V15.6291H42.8178V16.4912H42.8743C42.9732 16.1991 43.1475 15.9695 43.3972 15.8022C43.6492 15.6327 43.9342 15.5479 44.2522 15.5479C44.3182 15.5479 44.3959 15.5502 44.4854 15.5549C44.5773 15.5596 44.6491 15.5655 44.7009 15.5726V16.5831C44.6585 16.5713 44.5832 16.5583 44.4748 16.5442C44.3665 16.5277 44.2581 16.5195 44.1498 16.5195C43.9001 16.5195 43.6775 16.5725 43.482 16.6785C43.2888 16.7821 43.1357 16.927 43.0227 17.113C42.9096 17.2968 42.8531 17.5064 42.8531 17.7419V21.056H41.7967ZM47.9057 21.1656C47.3805 21.1656 46.9282 21.0466 46.549 20.8087C46.1721 20.5685 45.8824 20.2375 45.6799 19.8159C45.4773 19.3943 45.376 18.9114 45.376 18.3673C45.376 17.8161 45.4796 17.3297 45.6869 16.9081C45.8942 16.4841 46.1863 16.1532 46.5631 15.9153C46.94 15.6774 47.384 15.5585 47.8951 15.5585C48.3073 15.5585 48.6748 15.635 48.9975 15.7881C49.3202 15.9389 49.5805 16.1509 49.7783 16.4241C49.9785 16.6973 50.0975 17.0165 50.1352 17.3816H49.107C49.0505 17.1272 48.9209 16.9081 48.7184 16.7244C48.5182 16.5407 48.2496 16.4488 47.9128 16.4488C47.6184 16.4488 47.3605 16.5265 47.1391 16.682C46.92 16.8351 46.7492 17.0542 46.6267 17.3392C46.5043 17.6218 46.443 17.9563 46.443 18.3426C46.443 18.7383 46.5031 19.0798 46.6232 19.3672C46.7433 19.6546 46.9129 19.8772 47.132 20.035C47.3534 20.1928 47.6137 20.2717 47.9128 20.2717C48.113 20.2717 48.2944 20.2352 48.4569 20.1622C48.6218 20.0868 48.7596 19.9796 48.8703 19.8406C48.9834 19.7017 49.0623 19.5344 49.107 19.3389H50.1352C50.0975 19.6899 49.9832 20.0032 49.7925 20.2788C49.6017 20.5543 49.3461 20.771 49.0258 20.9289C48.7078 21.0867 48.3344 21.1656 47.9057 21.1656ZM53.8028 21.1656C53.2681 21.1656 52.8077 21.0513 52.4214 20.8229C52.0374 20.592 51.7406 20.2682 51.531 19.8512C51.3237 19.432 51.2201 18.9409 51.2201 18.3779C51.2201 17.822 51.3237 17.3321 51.531 16.9081C51.7406 16.4841 52.0327 16.1532 52.4072 15.9153C52.7841 15.6774 53.2246 15.5585 53.7286 15.5585C54.0348 15.5585 54.3316 15.6091 54.619 15.7104C54.9063 15.8117 55.1643 15.9707 55.3927 16.1874C55.6212 16.4041 55.8014 16.6855 55.9333 17.0318C56.0652 17.3757 56.1312 17.7938 56.1312 18.2861V18.6606H51.8172V17.8691H55.096C55.096 17.5912 55.0394 17.3451 54.9264 17.1307C54.8133 16.914 54.6543 16.7432 54.4494 16.6184C54.2468 16.4936 54.0089 16.4311 53.7357 16.4311C53.4389 16.4311 53.1798 16.5042 52.9584 16.6502C52.7393 16.7939 52.5698 16.9823 52.4496 17.2155C52.3319 17.4463 52.273 17.6972 52.273 17.9681V18.5864C52.273 18.9491 52.3366 19.2577 52.4638 19.5121C52.5933 19.7664 52.7735 19.9608 53.0043 20.095C53.2352 20.2269 53.5049 20.2929 53.8134 20.2929C54.0136 20.2929 54.1962 20.2646 54.3611 20.2081C54.5259 20.1492 54.6684 20.0621 54.7886 19.9466C54.9087 19.8312 55.0006 19.6887 55.0642 19.5191L56.064 19.6993C55.984 19.9937 55.8403 20.2517 55.633 20.4731C55.4281 20.6921 55.1702 20.8629 54.8592 20.9854C54.5507 21.1055 54.1985 21.1656 53.8028 21.1656ZM58.5587 13.8201V21.056H57.5023V13.8201H58.5587Z" fill="black"/>
<defs>
<clipPath id="clip0_19_64">
<rect width="17.056" height="17.056" fill="white" transform="translate(8.52802 8.52802)"/>
</clipPath>
</defs>
</svg>
