<svg width="48" height="24" viewBox="0 0 48 24" fill="none" xmlns="http://www.w3.org/2000/svg">
<rect width="48" height="24" rx="6" fill="white"/>
<path d="M11.9985 7.61099L17.9966 18H6L11.9985 7.61099Z" fill="black"/>
<path d="M21.0043 9.90909L22.4212 14.0554H22.4783L23.8952 9.90909H24.7255L22.8935 15H22.006L20.174 9.90909H21.0043ZM26.8038 15.0771C26.4276 15.0771 26.1036 14.9967 25.8319 14.8359C25.5617 14.6735 25.3529 14.4457 25.2054 14.1523C25.0596 13.8574 24.9867 13.5118 24.9867 13.1158C24.9867 12.7247 25.0596 12.38 25.2054 12.0817C25.3529 11.7834 25.5584 11.5505 25.8219 11.3832C26.0871 11.2158 26.397 11.1321 26.7516 11.1321C26.967 11.1321 27.1758 11.1677 27.378 11.239C27.5802 11.3103 27.7617 11.4221 27.9224 11.5746C28.0832 11.727 28.2099 11.9251 28.3027 12.1687C28.3955 12.4106 28.4419 12.7048 28.4419 13.0511V13.3146H25.4068V12.7578H27.7136C27.7136 12.5623 27.6738 12.3891 27.5943 12.2383C27.5147 12.0858 27.4029 11.9657 27.2587 11.8778C27.1162 11.79 26.9488 11.7461 26.7566 11.7461C26.5478 11.7461 26.3655 11.7975 26.2097 11.9002C26.0556 12.0013 25.9363 12.1339 25.8517 12.2979C25.7689 12.4603 25.7274 12.6368 25.7274 12.8274V13.2624C25.7274 13.5176 25.7722 13.7347 25.8617 13.9137C25.9528 14.0927 26.0796 14.2294 26.242 14.3239C26.4044 14.4167 26.5942 14.4631 26.8113 14.4631C26.9521 14.4631 27.0805 14.4432 27.1966 14.4034C27.3126 14.362 27.4128 14.3007 27.4973 14.2195C27.5819 14.1383 27.6465 14.038 27.6912 13.9187L28.3947 14.0455C28.3384 14.2526 28.2373 14.4341 28.0914 14.5898C27.9473 14.744 27.7658 14.8641 27.547 14.9503C27.33 15.0348 27.0822 15.0771 26.8038 15.0771ZM29.4066 15V11.1818H30.125V11.7884H30.1648C30.2344 11.5829 30.357 11.4213 30.5327 11.3036C30.71 11.1843 30.9105 11.1246 31.1342 11.1246C31.1806 11.1246 31.2353 11.1263 31.2983 11.1296C31.3629 11.1329 31.4135 11.1371 31.4499 11.142V11.853C31.4201 11.8447 31.3671 11.8356 31.2908 11.8256C31.2146 11.814 31.1384 11.8082 31.0621 11.8082C30.8865 11.8082 30.7299 11.8455 30.5923 11.9201C30.4564 11.993 30.3487 12.0949 30.2692 12.2259C30.1896 12.3551 30.1499 12.5026 30.1499 12.6683V15H29.4066ZM33.7047 15.0771C33.3352 15.0771 33.017 14.9934 32.7502 14.826C32.485 14.657 32.2812 14.4241 32.1387 14.1275C31.9961 13.8308 31.9249 13.4911 31.9249 13.1083C31.9249 12.7205 31.9978 12.3783 32.1436 12.0817C32.2895 11.7834 32.495 11.5505 32.7601 11.3832C33.0253 11.2158 33.3376 11.1321 33.6973 11.1321C33.9873 11.1321 34.2458 11.186 34.4728 11.2937C34.6999 11.3997 34.883 11.5489 35.0222 11.7411C35.163 11.9334 35.2467 12.1579 35.2732 12.4148H34.5499C34.5101 12.2358 34.419 12.0817 34.2764 11.9524C34.1356 11.8232 33.9467 11.7585 33.7097 11.7585C33.5025 11.7585 33.3211 11.8132 33.1653 11.9226C33.0112 12.0303 32.891 12.1844 32.8049 12.3849C32.7187 12.5838 32.6756 12.8191 32.6756 13.0909C32.6756 13.3693 32.7179 13.6096 32.8024 13.8118C32.8869 14.014 33.0062 14.1706 33.1603 14.2816C33.3161 14.3926 33.4992 14.4482 33.7097 14.4482C33.8505 14.4482 33.9781 14.4225 34.0925 14.3711C34.2085 14.3181 34.3054 14.2427 34.3833 14.1449C34.4629 14.0471 34.5184 13.9295 34.5499 13.7919H35.2732C35.2467 14.0388 35.1664 14.2592 35.0321 14.4531C34.8979 14.647 34.7181 14.7995 34.4927 14.9105C34.269 15.0215 34.0063 15.0771 33.7047 15.0771ZM37.8537 15.0771C37.4775 15.0771 37.1535 14.9967 36.8817 14.8359C36.6116 14.6735 36.4028 14.4457 36.2553 14.1523C36.1095 13.8574 36.0366 13.5118 36.0366 13.1158C36.0366 12.7247 36.1095 12.38 36.2553 12.0817C36.4028 11.7834 36.6083 11.5505 36.8718 11.3832C37.1369 11.2158 37.4468 11.1321 37.8015 11.1321C38.0169 11.1321 38.2257 11.1677 38.4279 11.239C38.6301 11.3103 38.8115 11.4221 38.9723 11.5746C39.133 11.727 39.2598 11.9251 39.3526 12.1687C39.4454 12.4106 39.4918 12.7048 39.4918 13.0511V13.3146H36.4567V12.7578H38.7635C38.7635 12.5623 38.7237 12.3891 38.6442 12.2383C38.5646 12.0858 38.4528 11.9657 38.3086 11.8778C38.1661 11.79 37.9987 11.7461 37.8064 11.7461C37.5976 11.7461 37.4154 11.7975 37.2596 11.9002C37.1055 12.0013 36.9861 12.1339 36.9016 12.2979C36.8188 12.4603 36.7773 12.6368 36.7773 12.8274V13.2624C36.7773 13.5176 36.8221 13.7347 36.9116 13.9137C37.0027 14.0927 37.1295 14.2294 37.2919 14.3239C37.4543 14.4167 37.644 14.4631 37.8611 14.4631C38.002 14.4631 38.1304 14.4432 38.2464 14.4034C38.3624 14.362 38.4627 14.3007 38.5472 14.2195C38.6317 14.1383 38.6964 14.038 38.7411 13.9187L39.4446 14.0455C39.3882 14.2526 39.2872 14.4341 39.1413 14.5898C38.9971 14.744 38.8157 14.8641 38.5969 14.9503C38.3798 15.0348 38.1321 15.0771 37.8537 15.0771ZM41.1997 9.90909V15H40.4565V9.90909H41.1997Z" fill="black"/>
</svg>
