<svg width="57" height="35" viewBox="0 0 57 35" fill="none" xmlns="http://www.w3.org/2000/svg">
<rect width="56.8535" height="34.1121" rx="8.52802" fill="white"/>
<g clip-path="url(#clip0_19_55)">
<path d="M25.1531 11.1291L17.499 24.8163C17.3408 25.0989 16.9348 25.1005 16.7745 24.8195L8.96842 11.1307C8.79346 10.8239 9.05529 10.4528 9.40294 10.5148L17.0654 11.8842C17.1143 11.8931 17.1644 11.8931 17.2133 11.8842L24.7153 10.5169C25.0615 10.4539 25.3249 10.8219 25.1531 11.1291Z" fill="url(#paint0_linear_19_55)"/>
<path d="M20.7151 8.71856L15.0511 9.82827C15.0059 9.8371 14.9649 9.8607 14.9346 9.89536C14.9043 9.93002 14.8863 9.97377 14.8835 10.0198L14.5348 15.9051C14.5329 15.9374 14.5386 15.9697 14.5514 15.9994C14.5641 16.0291 14.5836 16.0554 14.6083 16.0763C14.633 16.0972 14.6622 16.112 14.6936 16.1196C14.725 16.1272 14.7578 16.1274 14.7893 16.1202L16.3665 15.7558C16.4004 15.748 16.4358 15.7488 16.4694 15.7582C16.5029 15.7677 16.5336 15.7854 16.5585 15.8097C16.5834 15.8341 16.6019 15.8643 16.6121 15.8976C16.6223 15.9309 16.624 15.9663 16.617 16.0004L16.1483 18.2949C16.1412 18.3302 16.1433 18.3667 16.1545 18.401C16.1657 18.4352 16.1856 18.466 16.2123 18.4902C16.2389 18.5145 16.2714 18.5314 16.3066 18.5393C16.3418 18.5472 16.3784 18.5459 16.4128 18.5354L17.3866 18.2392C17.5376 18.1933 17.6828 18.326 17.6511 18.4806L16.9063 22.0846C16.8599 22.3101 17.1597 22.4329 17.2847 22.2397L17.368 22.1107L21.9838 12.8992C22.0613 12.7446 21.9277 12.5687 21.7586 12.6015L20.1349 12.9149C20.1 12.9217 20.0639 12.9194 20.0301 12.9082C19.9963 12.897 19.966 12.8773 19.942 12.851C19.918 12.8247 19.9011 12.7927 19.8931 12.758C19.885 12.7234 19.886 12.6872 19.896 12.653L20.9553 8.9804C20.9653 8.94611 20.9663 8.90983 20.9581 8.87506C20.95 8.84029 20.933 8.8082 20.9089 8.78189C20.8847 8.75558 20.8542 8.73593 20.8203 8.72484C20.7863 8.71374 20.7501 8.71158 20.7151 8.71856Z" fill="url(#paint1_linear_19_55)"/>
</g>
<path d="M29.8541 13.8201L31.868 19.7134H31.9493L33.9632 13.8201H35.1433L32.5393 21.056H31.278L28.6741 13.8201H29.8541ZM36.3024 21.056V15.6291H37.3588V21.056H36.3024ZM36.8359 14.7918C36.6522 14.7918 36.4944 14.7305 36.3625 14.608C36.2329 14.4832 36.1681 14.3348 36.1681 14.1629C36.1681 13.9886 36.2329 13.8402 36.3625 13.7177C36.4944 13.5928 36.6522 13.5304 36.8359 13.5304C37.0196 13.5304 37.1763 13.5928 37.3058 13.7177C37.4377 13.8402 37.5037 13.9886 37.5037 14.1629C37.5037 14.3348 37.4377 14.4832 37.3058 14.608C37.1763 14.7305 37.0196 14.7918 36.8359 14.7918ZM41.5123 15.6291V16.4771H38.548V15.6291H41.5123ZM39.3429 14.3289H40.3993V19.4626C40.3993 19.6675 40.4299 19.8218 40.4912 19.9254C40.5524 20.0267 40.6313 20.0962 40.7279 20.1339C40.8268 20.1692 40.934 20.1869 41.0494 20.1869C41.1342 20.1869 41.2084 20.181 41.272 20.1692C41.3356 20.1574 41.3851 20.148 41.4204 20.141L41.6112 21.0136C41.55 21.0372 41.4628 21.0608 41.3497 21.0843C41.2367 21.1102 41.0954 21.1244 40.9258 21.1267C40.6478 21.1314 40.3887 21.082 40.1485 20.9783C39.9082 20.8747 39.7139 20.7145 39.5655 20.4978C39.4171 20.2811 39.3429 20.0091 39.3429 19.6816V14.3289ZM45.1605 21.1656C44.6258 21.1656 44.1653 21.0513 43.779 20.8229C43.3951 20.592 43.0983 20.2682 42.8887 19.8512C42.6814 19.432 42.5778 18.9409 42.5778 18.3779C42.5778 17.822 42.6814 17.3321 42.8887 16.9081C43.0983 16.4841 43.3904 16.1532 43.7649 15.9153C44.1418 15.6774 44.5822 15.5585 45.0863 15.5585C45.3925 15.5585 45.6893 15.6091 45.9767 15.7104C46.264 15.8117 46.5219 15.9707 46.7504 16.1874C46.9789 16.4041 47.1591 16.6855 47.291 17.0318C47.4229 17.3757 47.4888 17.7938 47.4888 18.2861V18.6606H43.1749V17.8691H46.4536C46.4536 17.5912 46.3971 17.3451 46.284 17.1307C46.171 16.914 46.012 16.7432 45.8071 16.6184C45.6045 16.4936 45.3666 16.4311 45.0934 16.4311C44.7966 16.4311 44.5375 16.5042 44.3161 16.6502C44.097 16.7939 43.9274 16.9823 43.8073 17.2155C43.6895 17.4463 43.6306 17.6972 43.6306 17.9681V18.5864C43.6306 18.9491 43.6942 19.2577 43.8214 19.5121C43.951 19.7664 44.1312 19.9608 44.362 20.095C44.5928 20.2269 44.8625 20.2929 45.1711 20.2929C45.3713 20.2929 45.5539 20.2646 45.7187 20.2081C45.8836 20.1492 46.0261 20.0621 46.1462 19.9466C46.2664 19.8312 46.3582 19.6887 46.4218 19.5191L47.4217 19.6993C47.3416 19.9937 47.1979 20.2517 46.9907 20.4731C46.7857 20.6921 46.5278 20.8629 46.2169 20.9854C45.9083 21.1055 45.5562 21.1656 45.1605 21.1656Z" fill="black"/>
<defs>
<linearGradient id="paint0_linear_19_55" x1="8.77763" y1="10.0257" x2="18.3042" y2="22.9635" gradientUnits="userSpaceOnUse">
<stop stop-color="#41D1FF"/>
<stop offset="1" stop-color="#BD34FE"/>
</linearGradient>
<linearGradient id="paint1_linear_19_55" x1="16.6256" y1="9.01971" x2="18.3489" y2="20.8414" gradientUnits="userSpaceOnUse">
<stop stop-color="#FFEA83"/>
<stop offset="0.083" stop-color="#FFDD35"/>
<stop offset="1" stop-color="#FFA800"/>
</linearGradient>
<clipPath id="clip0_19_55">
<rect width="17.056" height="17.056" fill="white" transform="translate(8.52802 8.52802)"/>
</clipPath>
</defs>
</svg>
