<svg width="40" height="24" viewBox="0 0 40 24" fill="none" xmlns="http://www.w3.org/2000/svg">
<rect width="40" height="24" rx="6" fill="white"/>
<g clip-path="url(#clip0_19_55)">
<path d="M17.6968 7.83001L12.3116 17.4598C12.2003 17.6587 11.9147 17.6598 11.8019 17.4621L6.30985 7.83113C6.18676 7.61532 6.37097 7.35423 6.61557 7.39782L12.0066 8.36129C12.041 8.36757 12.0762 8.36757 12.1106 8.36129L17.3888 7.39932C17.6323 7.35498 17.8177 7.61391 17.6968 7.83001Z" fill="url(#paint0_linear_19_55)"/>
<path d="M14.5744 6.13406L10.5894 6.91481C10.5576 6.92103 10.5288 6.93763 10.5074 6.96201C10.4861 6.9864 10.4735 7.01718 10.4715 7.04953L10.2262 11.1903C10.2248 11.213 10.2288 11.2357 10.2378 11.2566C10.2468 11.2775 10.2605 11.296 10.2779 11.3107C10.2952 11.3254 10.3158 11.3358 10.3379 11.3412C10.36 11.3465 10.383 11.3467 10.4052 11.3416L11.5148 11.0852C11.5387 11.0797 11.5636 11.0803 11.5872 11.0869C11.6108 11.0936 11.6324 11.106 11.6499 11.1231C11.6675 11.1403 11.6805 11.1615 11.6876 11.185C11.6948 11.2084 11.696 11.2333 11.6911 11.2573L11.3614 12.8716C11.3563 12.8964 11.3578 12.9222 11.3657 12.9463C11.3736 12.9703 11.3876 12.992 11.4064 13.009C11.4251 13.0261 11.448 13.038 11.4727 13.0436C11.4975 13.0491 11.5232 13.0482 11.5475 13.0408L12.2326 12.8324C12.3388 12.8002 12.441 12.8935 12.4187 13.0023L11.8946 15.5379C11.862 15.6966 12.0729 15.783 12.1609 15.6471L12.2195 15.5563L15.467 9.07537C15.5215 8.96662 15.4275 8.84287 15.3085 8.86593L14.1662 9.08643C14.1416 9.09121 14.1162 9.08959 14.0924 9.08172C14.0687 9.07385 14.0473 9.06 14.0304 9.0415C14.0136 9.02301 14.0017 9.00048 13.996 8.97609C13.9904 8.9517 13.9911 8.92626 13.9981 8.90222L14.7434 6.31828C14.7504 6.29415 14.7511 6.26863 14.7454 6.24416C14.7396 6.2197 14.7277 6.19713 14.7107 6.17861C14.6937 6.1601 14.6723 6.14628 14.6484 6.13847C14.6245 6.13067 14.599 6.12915 14.5744 6.13406Z" fill="url(#paint1_linear_19_55)"/>
</g>
<path d="M21.0043 9.90909L22.4212 14.0554H22.4783L23.8952 9.90909H24.7255L22.8935 15H22.006L20.174 9.90909H21.0043ZM25.541 15V11.1818H26.2843V15H25.541ZM25.9164 10.5927C25.7871 10.5927 25.6761 10.5496 25.5833 10.4634C25.4921 10.3756 25.4466 10.2712 25.4466 10.1502C25.4466 10.0276 25.4921 9.92318 25.5833 9.837C25.6761 9.74917 25.7871 9.70526 25.9164 9.70526C26.0456 9.70526 26.1558 9.74917 26.247 9.837C26.3398 9.92318 26.3862 10.0276 26.3862 10.1502C26.3862 10.2712 26.3398 10.3756 26.247 10.4634C26.1558 10.5496 26.0456 10.5927 25.9164 10.5927ZM29.2065 11.1818V11.7784H27.1209V11.1818H29.2065ZM27.6802 10.267H28.4235V13.8789C28.4235 14.0231 28.445 14.1316 28.4881 14.2045C28.5312 14.2758 28.5867 14.3247 28.6546 14.3512C28.7242 14.3761 28.7996 14.3885 28.8809 14.3885C28.9405 14.3885 28.9927 14.3844 29.0375 14.3761C29.0822 14.3678 29.117 14.3612 29.1419 14.3562L29.2761 14.9702C29.233 14.9867 29.1717 15.0033 29.0921 15.0199C29.0126 15.0381 28.9132 15.0481 28.7938 15.0497C28.5983 15.053 28.416 15.0182 28.247 14.9453C28.0779 14.8724 27.9412 14.7597 27.8368 14.6072C27.7324 14.4548 27.6802 14.2634 27.6802 14.033V10.267ZM31.7732 15.0771C31.3971 15.0771 31.0731 14.9967 30.8013 14.8359C30.5312 14.6735 30.3224 14.4457 30.1749 14.1523C30.029 13.8574 29.9561 13.5118 29.9561 13.1158C29.9561 12.7247 30.029 12.38 30.1749 12.0817C30.3224 11.7834 30.5279 11.5505 30.7914 11.3832C31.0565 11.2158 31.3664 11.1321 31.721 11.1321C31.9365 11.1321 32.1453 11.1677 32.3475 11.239C32.5496 11.3103 32.7311 11.4221 32.8919 11.5746C33.0526 11.727 33.1794 11.9251 33.2722 12.1687C33.365 12.4106 33.4114 12.7048 33.4114 13.0511V13.3146H30.3762V12.7578H32.6831C32.6831 12.5623 32.6433 12.3891 32.5637 12.2383C32.4842 12.0858 32.3723 11.9657 32.2282 11.8778C32.0856 11.79 31.9183 11.7461 31.726 11.7461C31.5172 11.7461 31.3349 11.7975 31.1791 11.9002C31.025 12.0013 30.9057 12.1339 30.8212 12.2979C30.7383 12.4603 30.6969 12.6368 30.6969 12.8274V13.2624C30.6969 13.5176 30.7416 13.7347 30.8311 13.9137C30.9223 14.0927 31.0491 14.2294 31.2115 14.3239C31.3739 14.4167 31.5636 14.4631 31.7807 14.4631C31.9216 14.4631 32.05 14.4432 32.166 14.4034C32.282 14.362 32.3823 14.3007 32.4668 14.2195C32.5513 14.1383 32.6159 14.038 32.6607 13.9187L33.3642 14.0455C33.3078 14.2526 33.2067 14.4341 33.0609 14.5898C32.9167 14.744 32.7353 14.8641 32.5165 14.9503C32.2994 15.0348 32.0517 15.0771 31.7732 15.0771Z" fill="black"/>
<defs>
<linearGradient id="paint0_linear_19_55" x1="6.17562" y1="7.05372" x2="12.8782" y2="16.1563" gradientUnits="userSpaceOnUse">
<stop stop-color="#41D1FF"/>
<stop offset="1" stop-color="#BD34FE"/>
</linearGradient>
<linearGradient id="paint1_linear_19_55" x1="11.6972" y1="6.34593" x2="12.9096" y2="14.6633" gradientUnits="userSpaceOnUse">
<stop stop-color="#FFEA83"/>
<stop offset="0.083" stop-color="#FFDD35"/>
<stop offset="1" stop-color="#FFA800"/>
</linearGradient>
<clipPath id="clip0_19_55">
<rect width="12" height="12" fill="white" transform="translate(6 6)"/>
</clipPath>
</defs>
</svg>
