<svg width="40" height="24" viewBox="0 0 40 24" fill="none" xmlns="http://www.w3.org/2000/svg">
<rect width="40" height="24" rx="6" fill="url(#paint0_linear_19_43)"/>
<g clip-path="url(#clip0_19_43)">
<path d="M8.43723 6.8806L10.5937 6.88144L12.0033 9.22126L13.4079 6.88163L15.5625 6.88107L12.0141 13.0362L8.43723 6.8806Z" fill="#35495E"/>
<path d="M6.08533 6.89709L8.43536 6.88097L12.0119 13.0365L15.5606 6.88134L17.9147 6.88378L12.0116 17.0144L6.08533 6.89709Z" fill="#41B883"/>
</g>
<path d="M21.0043 9.90909L22.4212 14.0554H22.4783L23.8952 9.90909H24.7255L22.8935 15H22.006L20.174 9.90909H21.0043ZM27.9597 13.4165V11.1818H28.7054V15H27.9746V14.3388H27.9348C27.847 14.5426 27.7061 14.7125 27.5122 14.8484C27.32 14.9826 27.0805 15.0497 26.7939 15.0497C26.5486 15.0497 26.3315 14.9959 26.1426 14.8881C25.9553 14.7788 25.8078 14.6172 25.7001 14.4034C25.594 14.1896 25.541 13.9253 25.541 13.6104V11.1818H26.2843V13.521C26.2843 13.7811 26.3564 13.9883 26.5005 14.1424C26.6447 14.2965 26.832 14.3736 27.0623 14.3736C27.2015 14.3736 27.3399 14.3388 27.4774 14.2692C27.6167 14.1996 27.7318 14.0943 27.823 13.9535C27.9158 13.8126 27.9613 13.6336 27.9597 13.4165ZM31.4897 15.0771C31.1135 15.0771 30.7895 14.9967 30.5177 14.8359C30.2476 14.6735 30.0388 14.4457 29.8913 14.1523C29.7455 13.8574 29.6726 13.5118 29.6726 13.1158C29.6726 12.7247 29.7455 12.38 29.8913 12.0817C30.0388 11.7834 30.2443 11.5505 30.5078 11.3832C30.773 11.2158 31.0829 11.1321 31.4375 11.1321C31.6529 11.1321 31.8617 11.1677 32.0639 11.239C32.2661 11.3103 32.4476 11.4221 32.6083 11.5746C32.7691 11.727 32.8958 11.9251 32.9886 12.1687C33.0814 12.4106 33.1278 12.7048 33.1278 13.0511V13.3146H30.0927V12.7578H32.3995C32.3995 12.5623 32.3597 12.3891 32.2802 12.2383C32.2006 12.0858 32.0888 11.9657 31.9446 11.8778C31.8021 11.79 31.6347 11.7461 31.4425 11.7461C31.2337 11.7461 31.0514 11.7975 30.8956 11.9002C30.7415 12.0013 30.6222 12.1339 30.5376 12.2979C30.4548 12.4603 30.4133 12.6368 30.4133 12.8274V13.2624C30.4133 13.5176 30.4581 13.7347 30.5476 13.9137C30.6387 14.0927 30.7655 14.2294 30.9279 14.3239C31.0903 14.4167 31.2801 14.4631 31.4972 14.4631C31.638 14.4631 31.7664 14.4432 31.8825 14.4034C31.9985 14.362 32.0987 14.3007 32.1832 14.2195C32.2677 14.1383 32.3324 14.038 32.3771 13.9187L33.0806 14.0455C33.0243 14.2526 32.9232 14.4341 32.7773 14.5898C32.6332 14.744 32.4517 14.8641 32.2329 14.9503C32.0159 15.0348 31.7681 15.0771 31.4897 15.0771Z" fill="white"/>
<defs>
<linearGradient id="paint0_linear_19_43" x1="40.9375" y1="24" x2="-2.31175" y2="13.8635" gradientUnits="userSpaceOnUse">
<stop stop-color="#6162A7"/>
<stop offset="1" stop-color="#FF5858"/>
</linearGradient>
<clipPath id="clip0_19_43">
<rect width="12" height="12" fill="white" transform="translate(6 6)"/>
</clipPath>
</defs>
</svg>
