<svg width="57" height="35" viewBox="0 0 57 35" fill="none" xmlns="http://www.w3.org/2000/svg">
<rect width="56.8535" height="34.1121" rx="8.52802" fill="white"/>
<g clip-path="url(#clip0_19_43)">
<path d="M11.9921 9.77963L15.0572 9.78083L17.0607 13.1065L19.0572 9.7811L22.1196 9.7803L17.076 18.5288L11.9921 9.77963Z" fill="#35495E"/>
<path d="M8.64929 9.80309L11.9895 9.78017L17.073 18.5293L22.1169 9.7807L25.4628 9.78416L17.0726 24.1832L8.64929 9.80309Z" fill="#41B883"/>
</g>
<path d="M29.8541 13.8201L31.868 19.7134H31.9493L33.9632 13.8201H35.1433L32.5393 21.056H31.278L28.674 13.8201H29.8541ZM39.7401 18.8054V15.6291H40.8001V21.056H39.7613V20.1162H39.7048C39.58 20.4059 39.3797 20.6474 39.1042 20.8405C38.8309 21.0313 38.4906 21.1267 38.0831 21.1267C37.7345 21.1267 37.4259 21.0502 37.1574 20.8971C36.8912 20.7416 36.6816 20.5119 36.5285 20.2081C36.3777 19.9042 36.3024 19.5285 36.3024 19.081V15.6291H37.3588V18.9538C37.3588 19.3236 37.4612 19.6181 37.6662 19.8371C37.8711 20.0562 38.1373 20.1657 38.4647 20.1657C38.6625 20.1657 38.8592 20.1162 39.0547 20.0173C39.2526 19.9184 39.4163 19.7688 39.5458 19.5686C39.6777 19.3684 39.7425 19.114 39.7401 18.8054ZM44.7575 21.1656C44.2228 21.1656 43.7623 21.0513 43.376 20.8229C42.9921 20.592 42.6953 20.2682 42.4856 19.8512C42.2784 19.432 42.1747 18.9409 42.1747 18.3779C42.1747 17.822 42.2784 17.3321 42.4856 16.9081C42.6953 16.4841 42.9873 16.1532 43.3619 15.9153C43.7387 15.6774 44.1792 15.5585 44.6833 15.5585C44.9895 15.5585 45.2862 15.6091 45.5736 15.7104C45.861 15.8117 46.1189 15.9707 46.3474 16.1874C46.5758 16.4041 46.756 16.6855 46.8879 17.0318C47.0198 17.3757 47.0858 17.7938 47.0858 18.2861V18.6606H42.7718V17.8691H46.0506C46.0506 17.5912 45.9941 17.3451 45.881 17.1307C45.7679 16.914 45.6089 16.7432 45.404 16.6184C45.2015 16.4936 44.9636 16.4311 44.6903 16.4311C44.3935 16.4311 44.1344 16.5042 43.913 16.6502C43.694 16.7939 43.5244 16.9823 43.4043 17.2155C43.2865 17.4463 43.2276 17.6972 43.2276 17.9681V18.5864C43.2276 18.9491 43.2912 19.2577 43.4184 19.5121C43.5479 19.7664 43.7281 19.9608 43.959 20.095C44.1898 20.2269 44.4595 20.2929 44.7681 20.2929C44.9683 20.2929 45.1508 20.2646 45.3157 20.2081C45.4806 20.1492 45.6231 20.0621 45.7432 19.9466C45.8633 19.8312 45.9552 19.6887 46.0188 19.5191L47.0187 19.6993C46.9386 19.9937 46.7949 20.2517 46.5876 20.4731C46.3827 20.6921 46.1248 20.8629 45.8139 20.9854C45.5053 21.1055 45.1532 21.1656 44.7575 21.1656Z" fill="black"/>
<defs>
<clipPath id="clip0_19_43">
<rect width="17.056" height="17.056" fill="white" transform="translate(8.52802 8.52802)"/>
</clipPath>
</defs>
</svg>
